<svg width="325" height="673" viewBox="0 0 325 673" fill="none" xmlns="http://www.w3.org/2000/svg">
<g clip-path="url(#clip0_14_53)">
<rect width="325" height="673" fill="#EDF9F6"/>
<rect width="360" height="56" transform="translate(-17 624)" fill="#00C485"/>
<rect width="360" height="56" transform="translate(-17 624)" fill="white"/>
<path d="M113.858 657.545C113.815 657.186 113.643 656.906 113.339 656.707C113.036 656.509 112.665 656.409 112.224 656.409C111.902 656.409 111.621 656.461 111.379 656.565C111.14 656.67 110.953 656.813 110.818 656.995C110.686 657.177 110.619 657.384 110.619 657.616C110.619 657.811 110.665 657.978 110.758 658.117C110.853 658.254 110.973 658.369 111.12 658.462C111.267 658.552 111.421 658.626 111.582 658.685C111.743 658.742 111.891 658.788 112.026 658.824L112.764 659.023C112.954 659.072 113.164 659.141 113.396 659.229C113.631 659.316 113.854 659.436 114.067 659.587C114.283 659.737 114.46 659.928 114.6 660.163C114.74 660.397 114.81 660.685 114.81 661.026C114.81 661.419 114.707 661.774 114.501 662.091C114.297 662.408 113.999 662.66 113.606 662.847C113.215 663.034 112.741 663.128 112.182 663.128C111.661 663.128 111.21 663.044 110.829 662.876C110.45 662.708 110.152 662.473 109.934 662.173C109.719 661.872 109.597 661.523 109.568 661.125H110.477C110.501 661.4 110.593 661.627 110.754 661.807C110.918 661.984 111.124 662.117 111.372 662.205C111.623 662.29 111.893 662.332 112.182 662.332C112.518 662.332 112.82 662.278 113.087 662.169C113.355 662.058 113.567 661.904 113.723 661.707C113.879 661.509 113.957 661.277 113.957 661.011C113.957 660.77 113.89 660.573 113.755 660.422C113.62 660.27 113.442 660.147 113.222 660.053C113.002 659.958 112.764 659.875 112.509 659.804L111.614 659.548C111.045 659.385 110.596 659.152 110.264 658.849C109.933 658.546 109.767 658.149 109.767 657.659C109.767 657.252 109.877 656.897 110.097 656.594C110.32 656.288 110.618 656.052 110.992 655.884C111.369 655.713 111.789 655.628 112.253 655.628C112.722 655.628 113.138 655.712 113.503 655.88C113.867 656.046 114.156 656.273 114.369 656.562C114.585 656.851 114.698 657.179 114.71 657.545H113.858ZM116.982 659.719V663H116.144V655.727H116.982V658.398H117.053C117.181 658.116 117.373 657.892 117.628 657.727C117.886 657.558 118.23 657.474 118.658 657.474C119.03 657.474 119.355 657.549 119.635 657.698C119.914 657.845 120.131 658.071 120.285 658.376C120.441 658.679 120.519 659.065 120.519 659.534V663H119.681V659.591C119.681 659.158 119.568 658.823 119.344 658.586C119.121 658.347 118.812 658.227 118.417 658.227C118.142 658.227 117.896 658.285 117.678 658.401C117.463 658.517 117.292 658.687 117.167 658.909C117.044 659.132 116.982 659.402 116.982 659.719ZM124.268 663.114C123.776 663.114 123.344 662.996 122.972 662.762C122.603 662.528 122.314 662.2 122.105 661.778C121.9 661.357 121.797 660.865 121.797 660.301C121.797 659.733 121.9 659.237 122.105 658.813C122.314 658.389 122.603 658.06 122.972 657.826C123.344 657.592 123.776 657.474 124.268 657.474C124.761 657.474 125.191 657.592 125.561 657.826C125.932 658.06 126.221 658.389 126.427 658.813C126.636 659.237 126.74 659.733 126.74 660.301C126.74 660.865 126.636 661.357 126.427 661.778C126.221 662.2 125.932 662.528 125.561 662.762C125.191 662.996 124.761 663.114 124.268 663.114ZM124.268 662.361C124.642 662.361 124.95 662.265 125.191 662.073C125.433 661.881 125.612 661.629 125.728 661.317C125.844 661.004 125.902 660.666 125.902 660.301C125.902 659.937 125.844 659.597 125.728 659.282C125.612 658.967 125.433 658.713 125.191 658.518C124.95 658.324 124.642 658.227 124.268 658.227C123.894 658.227 123.586 658.324 123.345 658.518C123.103 658.713 122.925 658.967 122.809 659.282C122.693 659.597 122.635 659.937 122.635 660.301C122.635 660.666 122.693 661.004 122.809 661.317C122.925 661.629 123.103 661.881 123.345 662.073C123.586 662.265 123.894 662.361 124.268 662.361ZM128.019 665.045V657.545H128.829V658.412H128.928C128.99 658.317 129.075 658.196 129.184 658.05C129.295 657.901 129.454 657.768 129.66 657.652C129.868 657.534 130.15 657.474 130.505 657.474C130.964 657.474 131.369 657.589 131.719 657.819C132.07 658.049 132.343 658.374 132.54 658.795C132.736 659.217 132.834 659.714 132.834 660.287C132.834 660.865 132.736 661.365 132.54 661.789C132.343 662.21 132.071 662.537 131.723 662.769C131.375 662.999 130.974 663.114 130.519 663.114C130.169 663.114 129.888 663.056 129.677 662.94C129.467 662.821 129.305 662.687 129.191 662.538C129.077 662.387 128.99 662.261 128.928 662.162H128.857V665.045H128.019ZM128.843 660.273C128.843 660.685 128.903 661.048 129.024 661.363C129.145 661.675 129.321 661.92 129.553 662.098C129.785 662.273 130.069 662.361 130.405 662.361C130.756 662.361 131.048 662.268 131.282 662.084C131.519 661.897 131.697 661.646 131.815 661.331C131.936 661.014 131.996 660.661 131.996 660.273C131.996 659.889 131.937 659.544 131.819 659.236C131.703 658.926 131.526 658.681 131.29 658.501C131.055 658.318 130.76 658.227 130.405 658.227C130.064 658.227 129.778 658.314 129.546 658.487C129.314 658.657 129.139 658.896 129.02 659.204C128.902 659.509 128.843 659.866 128.843 660.273Z" fill="#2F4858"/>
<g clip-path="url(#clip1_14_53)" filter="url(#filter0_d_14_53)">
<path d="M126.27 651.5H117.73C117.448 651.502 117.168 651.444 116.91 651.33C116.652 651.216 116.421 651.048 116.232 650.839C116.043 650.629 115.901 650.382 115.814 650.113C115.728 649.844 115.699 649.561 115.73 649.28L116.4 643.39C116.427 643.144 116.544 642.917 116.729 642.753C116.914 642.589 117.153 642.499 117.4 642.5H126.6C126.847 642.499 127.086 642.589 127.271 642.753C127.456 642.917 127.573 643.144 127.6 643.39L128.25 649.28C128.281 649.559 128.253 649.841 128.167 650.108C128.082 650.376 127.942 650.622 127.755 650.831C127.568 651.041 127.339 651.208 127.084 651.324C126.828 651.439 126.551 651.499 126.27 651.5Z" stroke="#2F4858" stroke-width="1.42857" stroke-linecap="round" stroke-linejoin="round"/>
<path d="M118 642.5C118 641.439 118.421 640.422 119.172 639.672C119.922 638.921 120.939 638.5 122 638.5C123.061 638.5 124.078 638.921 124.828 639.672C125.579 640.422 126 641.439 126 642.5M119.5 645.5H124.5" stroke="#2F4858" stroke-width="1.42857" stroke-linecap="round" stroke-linejoin="round"/>
</g>
<path d="M19.8807 663V655.727H20.7614V658.966H24.6392V655.727H25.5199V663H24.6392V659.747H20.7614V663H19.8807ZM29.3853 663.114C28.8929 663.114 28.4608 662.996 28.0891 662.762C27.7198 662.528 27.431 662.2 27.2227 661.778C27.0167 661.357 26.9137 660.865 26.9137 660.301C26.9137 659.733 27.0167 659.237 27.2227 658.813C27.431 658.389 27.7198 658.06 28.0891 657.826C28.4608 657.592 28.8929 657.474 29.3853 657.474C29.8777 657.474 30.3086 657.592 30.6779 657.826C31.0496 658.06 31.3384 658.389 31.5444 658.813C31.7527 659.237 31.8569 659.733 31.8569 660.301C31.8569 660.865 31.7527 661.357 31.5444 661.778C31.3384 662.2 31.0496 662.528 30.6779 662.762C30.3086 662.996 29.8777 663.114 29.3853 663.114ZM29.3853 662.361C29.7594 662.361 30.0671 662.265 30.3086 662.073C30.5501 661.881 30.7288 661.629 30.8448 661.317C30.9608 661.004 31.0188 660.666 31.0188 660.301C31.0188 659.937 30.9608 659.597 30.8448 659.282C30.7288 658.967 30.5501 658.713 30.3086 658.518C30.0671 658.324 29.7594 658.227 29.3853 658.227C29.0112 658.227 28.7035 658.324 28.462 658.518C28.2205 658.713 28.0418 658.967 27.9258 659.282C27.8098 659.597 27.7518 659.937 27.7518 660.301C27.7518 660.666 27.8098 661.004 27.9258 661.317C28.0418 661.629 28.2205 661.881 28.462 662.073C28.7035 662.265 29.0112 662.361 29.3853 662.361ZM33.1362 663V657.545H33.9458V658.398H34.0169C34.1305 658.107 34.314 657.88 34.5673 657.719C34.8206 657.556 35.1248 657.474 35.4799 657.474C35.8398 657.474 36.1393 657.556 36.3784 657.719C36.6199 657.88 36.8081 658.107 36.943 658.398H36.9998C37.1395 658.116 37.349 657.892 37.6284 657.727C37.9077 657.558 38.2427 657.474 38.6333 657.474C39.121 657.474 39.5199 657.627 39.8301 657.933C40.1402 658.236 40.2953 658.708 40.2953 659.349V663H39.4572V659.349C39.4572 658.947 39.3471 658.659 39.127 658.487C38.9068 658.314 38.6475 658.227 38.3493 658.227C37.9657 658.227 37.6686 658.343 37.4579 658.575C37.2472 658.805 37.1419 659.096 37.1419 659.449V663H36.2896V659.264C36.2896 658.954 36.189 658.704 35.9877 658.515C35.7865 658.323 35.5273 658.227 35.21 658.227C34.9922 658.227 34.7886 658.285 34.5993 658.401C34.4122 658.517 34.2607 658.678 34.1447 658.884C34.0311 659.088 33.9743 659.323 33.9743 659.591V663H33.1362ZM44.1145 663.114C43.589 663.114 43.1356 662.998 42.7544 662.766C42.3757 662.531 42.0833 662.205 41.8773 661.786C41.6737 661.364 41.5719 660.874 41.5719 660.315C41.5719 659.757 41.6737 659.264 41.8773 658.838C42.0833 658.41 42.3697 658.076 42.7367 657.837C43.106 657.595 43.5369 657.474 44.0293 657.474C44.3134 657.474 44.5939 657.522 44.8709 657.616C45.1479 657.711 45.4 657.865 45.6273 658.078C45.8546 658.289 46.0357 658.568 46.1706 658.916C46.3056 659.264 46.373 659.693 46.373 660.202V660.557H42.1685V659.832H45.5208C45.5208 659.525 45.4592 659.25 45.3361 659.009C45.2154 658.767 45.0426 658.576 44.8176 658.437C44.5951 658.297 44.3323 658.227 44.0293 658.227C43.6955 658.227 43.4067 658.31 43.1628 658.476C42.9213 658.639 42.7355 658.852 42.6053 659.115C42.4751 659.378 42.41 659.66 42.41 659.96V660.443C42.41 660.855 42.481 661.204 42.623 661.491C42.7675 661.775 42.9675 661.991 43.2232 662.141C43.4789 662.287 43.776 662.361 44.1145 662.361C44.3347 662.361 44.5336 662.33 44.7111 662.268C44.891 662.205 45.0461 662.11 45.1763 661.984C45.3065 661.857 45.4071 661.698 45.4782 661.509L46.2878 661.736C46.2026 662.01 46.0594 662.252 45.8581 662.46C45.6569 662.666 45.4083 662.827 45.1124 662.943C44.8165 663.057 44.4838 663.114 44.1145 663.114Z" fill="#2F4858"/>
<path d="M281.858 657.545C281.815 657.186 281.643 656.906 281.339 656.707C281.036 656.509 280.665 656.409 280.224 656.409C279.902 656.409 279.621 656.461 279.379 656.565C279.14 656.67 278.953 656.813 278.818 656.995C278.686 657.177 278.619 657.384 278.619 657.616C278.619 657.811 278.665 657.978 278.758 658.117C278.853 658.254 278.973 658.369 279.12 658.462C279.267 658.552 279.421 658.626 279.582 658.685C279.743 658.742 279.891 658.788 280.026 658.824L280.764 659.023C280.954 659.072 281.164 659.141 281.396 659.229C281.631 659.316 281.854 659.436 282.067 659.587C282.283 659.737 282.46 659.928 282.6 660.163C282.74 660.397 282.81 660.685 282.81 661.026C282.81 661.419 282.707 661.774 282.501 662.091C282.297 662.408 281.999 662.66 281.606 662.847C281.215 663.034 280.741 663.128 280.182 663.128C279.661 663.128 279.21 663.044 278.829 662.876C278.45 662.708 278.152 662.473 277.934 662.173C277.719 661.872 277.597 661.523 277.568 661.125H278.477C278.501 661.4 278.593 661.627 278.754 661.807C278.918 661.984 279.124 662.117 279.372 662.205C279.623 662.29 279.893 662.332 280.182 662.332C280.518 662.332 280.82 662.278 281.087 662.169C281.355 662.058 281.567 661.904 281.723 661.707C281.879 661.509 281.957 661.277 281.957 661.011C281.957 660.77 281.89 660.573 281.755 660.422C281.62 660.27 281.442 660.147 281.222 660.053C281.002 659.958 280.764 659.875 280.509 659.804L279.614 659.548C279.045 659.385 278.596 659.152 278.264 658.849C277.933 658.546 277.767 658.149 277.767 657.659C277.767 657.252 277.877 656.897 278.097 656.594C278.32 656.288 278.618 656.052 278.992 655.884C279.369 655.713 279.789 655.628 280.253 655.628C280.722 655.628 281.138 655.712 281.503 655.88C281.867 656.046 282.156 656.273 282.369 656.562C282.585 656.851 282.698 657.179 282.71 657.545H281.858ZM286.431 663.114C285.905 663.114 285.452 662.998 285.071 662.766C284.692 662.531 284.4 662.205 284.194 661.786C283.99 661.364 283.888 660.874 283.888 660.315C283.888 659.757 283.99 659.264 284.194 658.838C284.4 658.41 284.686 658.076 285.053 657.837C285.422 657.595 285.853 657.474 286.346 657.474C286.63 657.474 286.91 657.522 287.187 657.616C287.464 657.711 287.716 657.865 287.944 658.078C288.171 658.289 288.352 658.568 288.487 658.916C288.622 659.264 288.689 659.693 288.689 660.202V660.557H284.485V659.832H287.837C287.837 659.525 287.776 659.25 287.653 659.009C287.532 658.767 287.359 658.576 287.134 658.437C286.912 658.297 286.649 658.227 286.346 658.227C286.012 658.227 285.723 658.31 285.479 658.476C285.238 658.639 285.052 658.852 284.922 659.115C284.791 659.378 284.726 659.66 284.726 659.96V660.443C284.726 660.855 284.797 661.204 284.939 661.491C285.084 661.775 285.284 661.991 285.54 662.141C285.795 662.287 286.092 662.361 286.431 662.361C286.651 662.361 286.85 662.33 287.028 662.268C287.207 662.205 287.363 662.11 287.493 661.984C287.623 661.857 287.724 661.698 287.795 661.509L288.604 661.736C288.519 662.01 288.376 662.252 288.175 662.46C287.973 662.666 287.725 662.827 287.429 662.943C287.133 663.057 286.8 663.114 286.431 663.114ZM289.964 663V657.545H290.774V658.369H290.831C290.93 658.099 291.11 657.88 291.371 657.712C291.631 657.544 291.925 657.46 292.251 657.46C292.313 657.46 292.39 657.461 292.482 657.464C292.574 657.466 292.644 657.47 292.692 657.474V658.327C292.663 658.32 292.598 658.309 292.496 658.295C292.397 658.278 292.291 658.27 292.18 658.27C291.915 658.27 291.678 658.326 291.47 658.437C291.264 658.546 291.101 658.697 290.98 658.891C290.862 659.083 290.802 659.302 290.802 659.548V663H289.964ZM298.311 657.545L296.294 663H295.442L293.425 657.545H294.334L295.84 661.892H295.896L297.402 657.545H298.311ZM299.417 663V657.545H300.256V663H299.417ZM299.844 656.636C299.68 656.636 299.539 656.581 299.421 656.469C299.305 656.358 299.247 656.224 299.247 656.068C299.247 655.912 299.305 655.778 299.421 655.667C299.539 655.556 299.68 655.5 299.844 655.5C300.007 655.5 300.147 655.556 300.263 655.667C300.381 655.778 300.44 655.912 300.44 656.068C300.44 656.224 300.381 656.358 300.263 656.469C300.147 656.581 300.007 656.636 299.844 656.636ZM304.006 663.114C303.495 663.114 303.055 662.993 302.685 662.751C302.316 662.51 302.032 662.177 301.833 661.754C301.634 661.33 301.535 660.846 301.535 660.301C301.535 659.747 301.637 659.258 301.84 658.835C302.046 658.408 302.333 658.076 302.7 657.837C303.069 657.595 303.5 657.474 303.992 657.474C304.376 657.474 304.721 657.545 305.029 657.688C305.337 657.83 305.589 658.028 305.786 658.284C305.982 658.54 306.104 658.838 306.151 659.179H305.313C305.249 658.93 305.107 658.71 304.887 658.518C304.669 658.324 304.376 658.227 304.006 658.227C303.68 658.227 303.393 658.312 303.147 658.483C302.903 658.651 302.713 658.889 302.575 659.197C302.44 659.502 302.373 659.861 302.373 660.273C302.373 660.694 302.439 661.061 302.572 661.374C302.707 661.686 302.896 661.929 303.14 662.102C303.386 662.274 303.675 662.361 304.006 662.361C304.224 662.361 304.422 662.323 304.599 662.247C304.777 662.171 304.927 662.062 305.05 661.92C305.174 661.778 305.261 661.608 305.313 661.409H306.151C306.104 661.731 305.987 662.021 305.8 662.279C305.615 662.535 305.37 662.738 305.065 662.89C304.762 663.039 304.409 663.114 304.006 663.114ZM309.663 663.114C309.138 663.114 308.684 662.998 308.303 662.766C307.924 662.531 307.632 662.205 307.426 661.786C307.223 661.364 307.121 660.874 307.121 660.315C307.121 659.757 307.223 659.264 307.426 658.838C307.632 658.41 307.919 658.076 308.286 657.837C308.655 657.595 309.086 657.474 309.578 657.474C309.862 657.474 310.143 657.522 310.42 657.616C310.697 657.711 310.949 657.865 311.176 658.078C311.403 658.289 311.585 658.568 311.719 658.916C311.854 659.264 311.922 659.693 311.922 660.202V660.557H307.717V659.832H311.07C311.07 659.525 311.008 659.25 310.885 659.009C310.764 658.767 310.591 658.576 310.366 658.437C310.144 658.297 309.881 658.227 309.578 658.227C309.244 658.227 308.955 658.31 308.712 658.476C308.47 658.639 308.284 658.852 308.154 659.115C308.024 659.378 307.959 659.66 307.959 659.96V660.443C307.959 660.855 308.03 661.204 308.172 661.491C308.316 661.775 308.516 661.991 308.772 662.141C309.028 662.287 309.325 662.361 309.663 662.361C309.884 662.361 310.082 662.33 310.26 662.268C310.44 662.205 310.595 662.11 310.725 661.984C310.855 661.857 310.956 661.698 311.027 661.509L311.837 661.736C311.751 662.01 311.608 662.252 311.407 662.46C311.206 662.666 310.957 662.827 310.661 662.943C310.365 663.057 310.033 663.114 309.663 663.114ZM317.06 658.767L316.308 658.98C316.26 658.855 316.19 658.733 316.098 658.614C316.008 658.494 315.885 658.394 315.729 658.316C315.572 658.238 315.372 658.199 315.129 658.199C314.795 658.199 314.517 658.276 314.294 658.43C314.074 658.581 313.964 658.774 313.964 659.009C313.964 659.217 314.04 659.381 314.191 659.502C314.343 659.623 314.579 659.723 314.901 659.804L315.711 660.003C316.199 660.121 316.562 660.302 316.801 660.546C317.04 660.788 317.16 661.099 317.16 661.48C317.16 661.793 317.07 662.072 316.89 662.318C316.712 662.564 316.464 662.759 316.144 662.901C315.825 663.043 315.453 663.114 315.029 663.114C314.473 663.114 314.012 662.993 313.648 662.751C313.283 662.51 313.052 662.157 312.955 661.693L313.751 661.494C313.826 661.788 313.97 662.008 314.18 662.155C314.393 662.302 314.672 662.375 315.015 662.375C315.406 662.375 315.716 662.292 315.945 662.126C316.177 661.958 316.293 661.757 316.293 661.523C316.293 661.333 316.227 661.175 316.094 661.047C315.962 660.917 315.758 660.82 315.484 660.756L314.575 660.543C314.075 660.424 313.708 660.241 313.474 659.992C313.242 659.741 313.126 659.428 313.126 659.051C313.126 658.743 313.212 658.471 313.385 658.234C313.56 657.998 313.798 657.812 314.099 657.677C314.402 657.542 314.745 657.474 315.129 657.474C315.668 657.474 316.092 657.593 316.4 657.83C316.71 658.066 316.93 658.379 317.06 658.767Z" fill="#2F4858"/>
<path d="M181.179 663H180.256L182.926 655.727H183.835L186.506 663H185.582L183.409 656.878H183.352L181.179 663ZM181.52 660.159H185.241V660.94H181.52V660.159ZM191.388 658.767L190.636 658.98C190.588 658.855 190.518 658.733 190.426 658.614C190.336 658.494 190.213 658.394 190.057 658.316C189.901 658.238 189.701 658.199 189.457 658.199C189.123 658.199 188.845 658.276 188.622 658.43C188.402 658.581 188.292 658.774 188.292 659.009C188.292 659.217 188.368 659.381 188.519 659.502C188.671 659.623 188.907 659.723 189.229 659.804L190.039 660.003C190.527 660.121 190.89 660.302 191.129 660.546C191.368 660.788 191.488 661.099 191.488 661.48C191.488 661.793 191.398 662.072 191.218 662.318C191.04 662.564 190.792 662.759 190.472 662.901C190.153 663.043 189.781 663.114 189.357 663.114C188.801 663.114 188.34 662.993 187.976 662.751C187.611 662.51 187.38 662.157 187.283 661.693L188.079 661.494C188.155 661.788 188.298 662.008 188.509 662.155C188.722 662.302 189 662.375 189.343 662.375C189.734 662.375 190.044 662.292 190.273 662.126C190.505 661.958 190.621 661.757 190.621 661.523C190.621 661.333 190.555 661.175 190.423 661.047C190.29 660.917 190.086 660.82 189.812 660.756L188.903 660.543C188.403 660.424 188.036 660.241 187.802 659.992C187.57 659.741 187.454 659.428 187.454 659.051C187.454 658.743 187.54 658.471 187.713 658.234C187.888 657.998 188.126 657.812 188.427 657.677C188.73 657.542 189.073 657.474 189.457 657.474C189.996 657.474 190.42 657.593 190.728 657.83C191.038 658.066 191.258 658.379 191.388 658.767ZM195.122 657.545V658.256H192.295V657.545H195.122ZM193.119 656.239H193.957V661.438C193.957 661.674 193.991 661.852 194.06 661.97C194.131 662.086 194.221 662.164 194.33 662.205C194.441 662.242 194.558 662.261 194.681 662.261C194.774 662.261 194.849 662.257 194.909 662.247C194.968 662.235 195.015 662.226 195.051 662.219L195.221 662.972C195.164 662.993 195.085 663.014 194.983 663.036C194.881 663.059 194.752 663.071 194.596 663.071C194.359 663.071 194.127 663.02 193.9 662.918C193.675 662.817 193.488 662.661 193.339 662.453C193.192 662.245 193.119 661.982 193.119 661.665V656.239ZM196.382 663V657.545H197.192V658.369H197.249C197.348 658.099 197.528 657.88 197.789 657.712C198.049 657.544 198.343 657.46 198.669 657.46C198.731 657.46 198.808 657.461 198.9 657.464C198.992 657.466 199.062 657.47 199.11 657.474V658.327C199.081 658.32 199.016 658.309 198.914 658.295C198.815 658.278 198.709 658.27 198.598 658.27C198.333 658.27 198.096 658.326 197.888 658.437C197.682 658.546 197.519 658.697 197.398 658.891C197.28 659.083 197.22 659.302 197.22 659.548V663H196.382ZM202.153 663.114C201.66 663.114 201.228 662.996 200.857 662.762C200.487 662.528 200.199 662.2 199.99 661.778C199.784 661.357 199.681 660.865 199.681 660.301C199.681 659.733 199.784 659.237 199.99 658.813C200.199 658.389 200.487 658.06 200.857 657.826C201.228 657.592 201.66 657.474 202.153 657.474C202.645 657.474 203.076 657.592 203.445 657.826C203.817 658.06 204.106 658.389 204.312 658.813C204.52 659.237 204.624 659.733 204.624 660.301C204.624 660.865 204.52 661.357 204.312 661.778C204.106 662.2 203.817 662.528 203.445 662.762C203.076 662.996 202.645 663.114 202.153 663.114ZM202.153 662.361C202.527 662.361 202.835 662.265 203.076 662.073C203.318 661.881 203.496 661.629 203.612 661.317C203.728 661.004 203.786 660.666 203.786 660.301C203.786 659.937 203.728 659.597 203.612 659.282C203.496 658.967 203.318 658.713 203.076 658.518C202.835 658.324 202.527 658.227 202.153 658.227C201.779 658.227 201.471 658.324 201.23 658.518C200.988 658.713 200.809 658.967 200.693 659.282C200.577 659.597 200.519 659.937 200.519 660.301C200.519 660.666 200.577 661.004 200.693 661.317C200.809 661.629 200.988 661.881 201.23 662.073C201.471 662.265 201.779 662.361 202.153 662.361ZM206.742 655.727V663H205.904V655.727H206.742ZM210.493 663.114C210 663.114 209.568 662.996 209.197 662.762C208.827 662.528 208.538 662.2 208.33 661.778C208.124 661.357 208.021 660.865 208.021 660.301C208.021 659.733 208.124 659.237 208.33 658.813C208.538 658.389 208.827 658.06 209.197 657.826C209.568 657.592 210 657.474 210.493 657.474C210.985 657.474 211.416 657.592 211.785 657.826C212.157 658.06 212.446 658.389 212.652 658.813C212.86 659.237 212.964 659.733 212.964 660.301C212.964 660.865 212.86 661.357 212.652 661.778C212.446 662.2 212.157 662.528 211.785 662.762C211.416 662.996 210.985 663.114 210.493 663.114ZM210.493 662.361C210.867 662.361 211.175 662.265 211.416 662.073C211.657 661.881 211.836 661.629 211.952 661.317C212.068 661.004 212.126 660.666 212.126 660.301C212.126 659.937 212.068 659.597 211.952 659.282C211.836 658.967 211.657 658.713 211.416 658.518C211.175 658.324 210.867 658.227 210.493 658.227C210.119 658.227 209.811 658.324 209.569 658.518C209.328 658.713 209.149 658.967 209.033 659.282C208.917 659.597 208.859 659.937 208.859 660.301C208.859 660.666 208.917 661.004 209.033 661.317C209.149 661.629 209.328 661.881 209.569 662.073C209.811 662.265 210.119 662.361 210.493 662.361ZM216.445 665.159C216.04 665.159 215.692 665.107 215.401 665.003C215.11 664.901 214.867 664.766 214.673 664.598C214.482 664.432 214.329 664.255 214.215 664.065L214.883 663.597C214.959 663.696 215.054 663.81 215.17 663.938C215.286 664.068 215.445 664.18 215.646 664.275C215.85 664.372 216.116 664.42 216.445 664.42C216.886 664.42 217.249 664.314 217.536 664.101C217.822 663.888 217.965 663.554 217.965 663.099V661.991H217.894C217.833 662.091 217.745 662.214 217.631 662.361C217.52 662.505 217.359 662.634 217.148 662.748C216.94 662.859 216.658 662.915 216.303 662.915C215.863 662.915 215.468 662.811 215.117 662.602C214.769 662.394 214.493 662.091 214.29 661.693C214.089 661.295 213.988 660.812 213.988 660.244C213.988 659.686 214.086 659.199 214.283 658.785C214.479 658.368 214.753 658.046 215.103 657.819C215.453 657.589 215.858 657.474 216.317 657.474C216.673 657.474 216.954 657.534 217.163 657.652C217.373 657.768 217.534 657.901 217.646 658.05C217.759 658.196 217.847 658.317 217.908 658.412H217.994V657.545H218.803V663.156C218.803 663.625 218.697 664.006 218.484 664.3C218.273 664.596 217.989 664.812 217.631 664.95C217.276 665.089 216.881 665.159 216.445 665.159ZM216.417 662.162C216.753 662.162 217.037 662.085 217.269 661.931C217.501 661.777 217.678 661.556 217.798 661.267C217.919 660.978 217.979 660.633 217.979 660.23C217.979 659.837 217.92 659.49 217.802 659.19C217.683 658.889 217.508 658.653 217.276 658.483C217.044 658.312 216.758 658.227 216.417 658.227C216.062 658.227 215.766 658.317 215.529 658.497C215.295 658.677 215.118 658.919 215 659.222C214.884 659.525 214.826 659.861 214.826 660.23C214.826 660.609 214.885 660.944 215.004 661.235C215.124 661.524 215.302 661.751 215.536 661.917C215.773 662.08 216.067 662.162 216.417 662.162ZM222.624 663.114C222.099 663.114 221.645 662.998 221.264 662.766C220.885 662.531 220.593 662.205 220.387 661.786C220.183 661.364 220.082 660.874 220.082 660.315C220.082 659.757 220.183 659.264 220.387 658.838C220.593 658.41 220.879 658.076 221.246 657.837C221.616 657.595 222.047 657.474 222.539 657.474C222.823 657.474 223.104 657.522 223.381 657.616C223.658 657.711 223.91 657.865 224.137 658.078C224.364 658.289 224.545 658.568 224.68 658.916C224.815 659.264 224.883 659.693 224.883 660.202V660.557H220.678V659.832H224.031C224.031 659.525 223.969 659.25 223.846 659.009C223.725 658.767 223.552 658.576 223.327 658.437C223.105 658.297 222.842 658.227 222.539 658.227C222.205 658.227 221.916 658.31 221.673 658.476C221.431 658.639 221.245 658.852 221.115 659.115C220.985 659.378 220.92 659.66 220.92 659.96V660.443C220.92 660.855 220.991 661.204 221.133 661.491C221.277 661.775 221.477 661.991 221.733 662.141C221.989 662.287 222.286 662.361 222.624 662.361C222.844 662.361 223.043 662.33 223.221 662.268C223.401 662.205 223.556 662.11 223.686 661.984C223.816 661.857 223.917 661.698 223.988 661.509L224.798 661.736C224.712 662.01 224.569 662.252 224.368 662.46C224.167 662.666 223.918 662.827 223.622 662.943C223.326 663.057 222.994 663.114 222.624 663.114ZM226.158 663V657.545H226.967V658.369H227.024C227.124 658.099 227.304 657.88 227.564 657.712C227.824 657.544 228.118 657.46 228.445 657.46C228.506 657.46 228.583 657.461 228.675 657.464C228.768 657.466 228.838 657.47 228.885 657.474V658.327C228.857 658.32 228.791 658.309 228.69 658.295C228.59 658.278 228.485 658.27 228.374 658.27C228.108 658.27 227.872 658.326 227.663 658.437C227.457 658.546 227.294 658.697 227.173 658.891C227.055 659.083 226.996 659.302 226.996 659.548V663H226.158ZM233.742 658.767L232.989 658.98C232.942 658.855 232.872 658.733 232.78 658.614C232.69 658.494 232.567 658.394 232.41 658.316C232.254 658.238 232.054 658.199 231.81 658.199C231.476 658.199 231.198 658.276 230.976 658.43C230.756 658.581 230.645 658.774 230.645 659.009C230.645 659.217 230.721 659.381 230.873 659.502C231.024 659.623 231.261 659.723 231.583 659.804L232.393 660.003C232.88 660.121 233.244 660.302 233.483 660.546C233.722 660.788 233.841 661.099 233.841 661.48C233.841 661.793 233.751 662.072 233.572 662.318C233.394 662.564 233.145 662.759 232.826 662.901C232.506 663.043 232.135 663.114 231.711 663.114C231.154 663.114 230.694 662.993 230.329 662.751C229.965 662.51 229.734 662.157 229.637 661.693L230.432 661.494C230.508 661.788 230.651 662.008 230.862 662.155C231.075 662.302 231.353 662.375 231.697 662.375C232.087 662.375 232.397 662.292 232.627 662.126C232.859 661.958 232.975 661.757 232.975 661.523C232.975 661.333 232.909 661.175 232.776 661.047C232.644 660.917 232.44 660.82 232.165 660.756L231.256 660.543C230.757 660.424 230.39 660.241 230.155 659.992C229.923 659.741 229.807 659.428 229.807 659.051C229.807 658.743 229.894 658.471 230.067 658.234C230.242 657.998 230.48 657.812 230.78 657.677C231.083 657.542 231.427 657.474 231.81 657.474C232.35 657.474 232.774 657.593 233.081 657.83C233.392 658.066 233.612 658.379 233.742 658.767Z" fill="#2F4858"/>
<g clip-path="url(#clip2_14_53)">
<path d="M208 640.167C207.226 640.167 206.485 640.474 205.938 641.021C205.391 641.568 205.083 642.31 205.083 643.083C205.083 643.857 205.391 644.599 205.938 645.146C206.485 645.693 207.226 646 208 646C208.774 646 209.515 645.693 210.062 645.146C210.609 644.599 210.917 643.857 210.917 643.083C210.917 642.31 210.609 641.568 210.062 641.021C209.515 640.474 208.774 640.167 208 640.167ZM208 641.833C208.332 641.833 208.649 641.965 208.884 642.199C209.118 642.434 209.25 642.752 209.25 643.083C209.25 643.415 209.118 643.733 208.884 643.967C208.649 644.202 208.332 644.333 208 644.333C207.668 644.333 207.351 644.202 207.116 643.967C206.882 643.733 206.75 643.415 206.75 643.083C206.75 642.752 206.882 642.434 207.116 642.199C207.351 641.965 207.668 641.833 208 641.833ZM202.583 642.667C202.031 642.667 201.501 642.886 201.11 643.277C200.719 643.668 200.5 644.197 200.5 644.75C200.5 645.533 200.942 646.208 201.575 646.567C201.875 646.733 202.217 646.833 202.583 646.833C202.95 646.833 203.292 646.733 203.592 646.567C203.9 646.392 204.158 646.142 204.35 645.842C203.743 645.05 203.415 644.081 203.417 643.083V642.85C203.167 642.733 202.883 642.667 202.583 642.667ZM213.417 642.667C213.117 642.667 212.833 642.733 212.583 642.85V643.083C212.583 644.083 212.258 645.05 211.65 645.842C211.75 646 211.858 646.125 211.983 646.25C212.368 646.623 212.881 646.832 213.417 646.833C213.783 646.833 214.125 646.733 214.425 646.567C215.058 646.208 215.5 645.533 215.5 644.75C215.5 644.197 215.281 643.668 214.89 643.277C214.499 642.886 213.969 642.667 213.417 642.667ZM208 647.667C206.05 647.667 202.167 648.642 202.167 650.583V651.833H213.833V650.583C213.833 648.642 209.95 647.667 208 647.667ZM201.925 648.125C200.317 648.317 198 649.133 198 650.583V651.833H200.5V650.225C200.5 649.383 201.075 648.683 201.925 648.125ZM214.075 648.125C214.925 648.683 215.5 649.383 215.5 650.225V651.833H218V650.583C218 649.133 215.683 648.317 214.075 648.125ZM208 649.333C209.275 649.333 210.7 649.75 211.525 650.167H204.475C205.3 649.75 206.725 649.333 208 649.333Z" fill="#2F4858"/>
</g>
<g clip-path="url(#clip3_14_53)">
<path d="M292.029 644.63C288.66 646.388 286.606 648.316 287.039 649.533C287.649 651.246 292.933 650.909 298.779 648.789C304.625 646.67 308.958 643.661 308.349 641.948C307.964 640.84 305.585 640.635 302.379 641.119" stroke="#2F4858" stroke-width="1.42857" stroke-linecap="round" stroke-linejoin="round"/>
<path d="M304.74 646.098C304.725 647.175 304.439 648.231 303.909 649.169C303.378 650.107 302.621 650.896 301.706 651.465C300.791 652.034 299.748 652.364 298.672 652.424C297.597 652.484 296.523 652.273 295.55 651.811C294.773 651.442 294.076 650.922 293.501 650.282M292.008 647.281C291.701 645.765 291.951 644.188 292.712 642.841C293.473 641.494 294.695 640.466 296.153 639.947C297.611 639.428 299.207 639.453 300.648 640.016C302.09 640.579 303.279 641.643 303.999 643.013" stroke="#2F4858" stroke-width="1.42857" stroke-linecap="round" stroke-linejoin="round"/>
</g>
<path d="M28 650.833H30.5V645.833H35.5V650.833H38V643.333L33 639.583L28 643.333V650.833ZM28 652.5C27.5417 652.5 27.1492 652.337 26.8225 652.01C26.4959 651.683 26.3328 651.291 26.3334 650.833V643.333C26.3334 643.069 26.3925 642.819 26.5109 642.583C26.6292 642.347 26.7923 642.153 27 642L32 638.25C32.1528 638.139 32.3125 638.056 32.4792 638C32.6459 637.944 32.8195 637.917 33 637.917C33.1806 637.917 33.3542 637.944 33.5209 638C33.6875 638.056 33.8473 638.139 34 638.25L39 642C39.2084 642.153 39.3717 642.347 39.49 642.583C39.6084 642.819 39.6673 643.069 39.6667 643.333V650.833C39.6667 651.292 39.5034 651.684 39.1767 652.011C38.85 652.337 38.4578 652.501 38 652.5H33.8334V647.5H32.1667V652.5H28Z" fill="#2F4858"/>
<rect width="330" height="62" transform="translate(-5)" fill="#24AC27"/>
<rect x="-5" width="330" height="62" fill="#FAFFFA"/>
<path d="M104.39 38L108.26 27.5H110L113.84 38H112.16L111.26 35.435H106.97L106.07 38H104.39ZM107.42 34.175H110.81L109.115 29.39L107.42 34.175ZM115.244 38V30.56H116.654L116.774 31.865C117.004 31.405 117.339 31.045 117.779 30.785C118.229 30.515 118.744 30.38 119.324 30.38C120.224 30.38 120.929 30.66 121.439 31.22C121.959 31.78 122.219 32.615 122.219 33.725V38H120.644V33.89C120.644 32.45 120.054 31.73 118.874 31.73C118.284 31.73 117.794 31.94 117.404 32.36C117.024 32.78 116.834 33.38 116.834 34.16V38H115.244ZM127.572 38.18C126.862 38.18 126.222 38.02 125.652 37.7C125.092 37.37 124.647 36.915 124.317 36.335C123.987 35.745 123.822 35.06 123.822 34.28C123.822 33.5 123.987 32.82 124.317 32.24C124.657 31.65 125.112 31.195 125.682 30.875C126.252 30.545 126.887 30.38 127.587 30.38C128.297 30.38 128.932 30.545 129.492 30.875C130.062 31.195 130.512 31.65 130.842 32.24C131.182 32.82 131.352 33.5 131.352 34.28C131.352 35.06 131.182 35.745 130.842 36.335C130.512 36.915 130.062 37.37 129.492 37.7C128.922 38.02 128.282 38.18 127.572 38.18ZM127.572 36.815C127.952 36.815 128.302 36.72 128.622 36.53C128.952 36.34 129.217 36.06 129.417 35.69C129.617 35.31 129.717 34.84 129.717 34.28C129.717 33.72 129.617 33.255 129.417 32.885C129.227 32.505 128.967 32.22 128.637 32.03C128.317 31.84 127.967 31.745 127.587 31.745C127.207 31.745 126.852 31.84 126.522 32.03C126.202 32.22 125.942 32.505 125.742 32.885C125.542 33.255 125.442 33.72 125.442 34.28C125.442 34.84 125.542 35.31 125.742 35.69C125.942 36.06 126.202 36.34 126.522 36.53C126.842 36.72 127.192 36.815 127.572 36.815ZM135.898 38C135.168 38 134.588 37.825 134.158 37.475C133.728 37.115 133.513 36.48 133.513 35.57V31.895H132.238V30.56H133.513L133.708 28.67H135.103V30.56H137.203V31.895H135.103V35.57C135.103 35.98 135.188 36.265 135.358 36.425C135.538 36.575 135.843 36.65 136.273 36.65H137.128V38H135.898ZM138.843 38V27.2H140.433V31.76C140.683 31.33 141.028 30.995 141.468 30.755C141.918 30.505 142.413 30.38 142.953 30.38C143.843 30.38 144.543 30.66 145.053 31.22C145.563 31.78 145.818 32.615 145.818 33.725V38H144.243V33.89C144.243 32.45 143.668 31.73 142.518 31.73C141.918 31.73 141.418 31.94 141.018 32.36C140.628 32.78 140.433 33.38 140.433 34.16V38H138.843ZM151.171 38.18C150.441 38.18 149.791 38.02 149.221 37.7C148.661 37.37 148.221 36.915 147.901 36.335C147.581 35.755 147.421 35.08 147.421 34.31C147.421 33.53 147.576 32.845 147.886 32.255C148.206 31.665 148.646 31.205 149.206 30.875C149.776 30.545 150.436 30.38 151.186 30.38C151.916 30.38 152.551 30.545 153.091 30.875C153.631 31.195 154.051 31.625 154.351 32.165C154.651 32.705 154.801 33.3 154.801 33.95C154.801 34.05 154.796 34.16 154.786 34.28C154.786 34.39 154.781 34.515 154.771 34.655H148.981C149.031 35.375 149.266 35.925 149.686 36.305C150.116 36.675 150.611 36.86 151.171 36.86C151.621 36.86 151.996 36.76 152.296 36.56C152.606 36.35 152.836 36.07 152.986 35.72H154.576C154.376 36.42 153.976 37.005 153.376 37.475C152.786 37.945 152.051 38.18 151.171 38.18ZM151.171 31.685C150.641 31.685 150.171 31.845 149.761 32.165C149.351 32.475 149.101 32.945 149.011 33.575H153.211C153.181 32.995 152.976 32.535 152.596 32.195C152.216 31.855 151.741 31.685 151.171 31.685ZM156.45 38V30.56H157.875L158.01 31.97C158.27 31.48 158.63 31.095 159.09 30.815C159.56 30.525 160.125 30.38 160.785 30.38V32.045H160.35C159.91 32.045 159.515 32.12 159.165 32.27C158.825 32.41 158.55 32.655 158.34 33.005C158.14 33.345 158.04 33.82 158.04 34.43V38H156.45ZM169.453 38.18C168.683 38.18 168.008 38.045 167.428 37.775C166.848 37.505 166.393 37.12 166.063 36.62C165.743 36.12 165.578 35.525 165.568 34.835H167.248C167.258 35.395 167.453 35.87 167.833 36.26C168.213 36.65 168.748 36.845 169.438 36.845C170.048 36.845 170.523 36.7 170.863 36.41C171.213 36.11 171.388 35.73 171.388 35.27C171.388 34.9 171.303 34.6 171.133 34.37C170.973 34.14 170.748 33.95 170.458 33.8C170.178 33.65 169.853 33.515 169.483 33.395C169.113 33.275 168.723 33.145 168.313 33.005C167.503 32.735 166.893 32.385 166.483 31.955C166.083 31.525 165.883 30.96 165.883 30.26C165.873 29.67 166.008 29.155 166.288 28.715C166.578 28.275 166.978 27.935 167.488 27.695C168.008 27.445 168.613 27.32 169.303 27.32C169.983 27.32 170.578 27.445 171.088 27.695C171.608 27.945 172.013 28.295 172.303 28.745C172.593 29.185 172.743 29.7 172.753 30.29H171.073C171.073 30.02 171.003 29.765 170.863 29.525C170.723 29.275 170.518 29.07 170.248 28.91C169.978 28.75 169.648 28.67 169.258 28.67C168.758 28.66 168.343 28.785 168.013 29.045C167.693 29.305 167.533 29.665 167.533 30.125C167.533 30.535 167.653 30.85 167.893 31.07C168.133 31.29 168.463 31.475 168.883 31.625C169.303 31.765 169.783 31.93 170.323 32.12C170.843 32.29 171.308 32.495 171.718 32.735C172.128 32.975 172.453 33.29 172.693 33.68C172.943 34.07 173.068 34.565 173.068 35.165C173.068 35.695 172.933 36.19 172.663 36.65C172.393 37.1 171.988 37.47 171.448 37.76C170.908 38.04 170.243 38.18 169.453 38.18ZM178.271 38.18C177.541 38.18 176.886 38.015 176.306 37.685C175.736 37.355 175.286 36.9 174.956 36.32C174.636 35.73 174.476 35.05 174.476 34.28C174.476 33.51 174.636 32.835 174.956 32.255C175.286 31.665 175.736 31.205 176.306 30.875C176.886 30.545 177.541 30.38 178.271 30.38C179.191 30.38 179.961 30.62 180.581 31.1C181.211 31.58 181.616 32.23 181.796 33.05H180.131C180.031 32.64 179.811 32.32 179.471 32.09C179.131 31.86 178.731 31.745 178.271 31.745C177.881 31.745 177.521 31.845 177.191 32.045C176.861 32.235 176.596 32.52 176.396 32.9C176.196 33.27 176.096 33.73 176.096 34.28C176.096 34.83 176.196 35.295 176.396 35.675C176.596 36.045 176.861 36.33 177.191 36.53C177.521 36.73 177.881 36.83 178.271 36.83C178.731 36.83 179.131 36.715 179.471 36.485C179.811 36.255 180.031 35.93 180.131 35.51H181.796C181.626 36.31 181.226 36.955 180.596 37.445C179.966 37.935 179.191 38.18 178.271 38.18ZM183.521 38V30.56H184.946L185.081 31.97C185.341 31.48 185.701 31.095 186.161 30.815C186.631 30.525 187.196 30.38 187.856 30.38V32.045H187.421C186.981 32.045 186.586 32.12 186.236 32.27C185.896 32.41 185.621 32.655 185.411 33.005C185.211 33.345 185.111 33.82 185.111 34.43V38H183.521ZM192.494 38.18C191.764 38.18 191.114 38.02 190.544 37.7C189.984 37.37 189.544 36.915 189.224 36.335C188.904 35.755 188.744 35.08 188.744 34.31C188.744 33.53 188.899 32.845 189.209 32.255C189.529 31.665 189.969 31.205 190.529 30.875C191.099 30.545 191.759 30.38 192.509 30.38C193.239 30.38 193.874 30.545 194.414 30.875C194.954 31.195 195.374 31.625 195.674 32.165C195.974 32.705 196.124 33.3 196.124 33.95C196.124 34.05 196.119 34.16 196.109 34.28C196.109 34.39 196.104 34.515 196.094 34.655H190.304C190.354 35.375 190.589 35.925 191.009 36.305C191.439 36.675 191.934 36.86 192.494 36.86C192.944 36.86 193.319 36.76 193.619 36.56C193.929 36.35 194.159 36.07 194.309 35.72H195.899C195.699 36.42 195.299 37.005 194.699 37.475C194.109 37.945 193.374 38.18 192.494 38.18ZM192.494 31.685C191.964 31.685 191.494 31.845 191.084 32.165C190.674 32.475 190.424 32.945 190.334 33.575H194.534C194.504 32.995 194.299 32.535 193.919 32.195C193.539 31.855 193.064 31.685 192.494 31.685ZM201.254 38.18C200.524 38.18 199.874 38.02 199.304 37.7C198.744 37.37 198.304 36.915 197.984 36.335C197.664 35.755 197.504 35.08 197.504 34.31C197.504 33.53 197.659 32.845 197.969 32.255C198.289 31.665 198.729 31.205 199.289 30.875C199.859 30.545 200.519 30.38 201.269 30.38C201.999 30.38 202.634 30.545 203.174 30.875C203.714 31.195 204.134 31.625 204.434 32.165C204.734 32.705 204.884 33.3 204.884 33.95C204.884 34.05 204.879 34.16 204.869 34.28C204.869 34.39 204.864 34.515 204.854 34.655H199.064C199.114 35.375 199.349 35.925 199.769 36.305C200.199 36.675 200.694 36.86 201.254 36.86C201.704 36.86 202.079 36.76 202.379 36.56C202.689 36.35 202.919 36.07 203.069 35.72H204.659C204.459 36.42 204.059 37.005 203.459 37.475C202.869 37.945 202.134 38.18 201.254 38.18ZM201.254 31.685C200.724 31.685 200.254 31.845 199.844 32.165C199.434 32.475 199.184 32.945 199.094 33.575H203.294C203.264 32.995 203.059 32.535 202.679 32.195C202.299 31.855 201.824 31.685 201.254 31.685ZM206.533 38V30.56H207.943L208.063 31.865C208.293 31.405 208.628 31.045 209.068 30.785C209.518 30.515 210.033 30.38 210.613 30.38C211.513 30.38 212.218 30.66 212.728 31.22C213.248 31.78 213.508 32.615 213.508 33.725V38H211.933V33.89C211.933 32.45 211.343 31.73 210.163 31.73C209.573 31.73 209.083 31.94 208.693 32.36C208.313 32.78 208.123 33.38 208.123 34.16V38H206.533Z" fill="#009C95"/>
<path d="M27.5 43.5L17.5 33.5L27.5 23.5L29.2813 25.25L22.2812 32.25H37.5V34.75H22.2812L29.2813 41.75L27.5 43.5Z" fill="#2F4858"/>
</g>
<defs>
<filter id="filter0_d_14_53" x="111" y="638" width="22" height="22" filterUnits="userSpaceOnUse" color-interpolation-filters="sRGB">
<feFlood flood-opacity="0" result="BackgroundImageFix"/>
<feColorMatrix in="SourceAlpha" type="matrix" values="0 0 0 0 0 0 0 0 0 0 0 0 0 0 0 0 0 0 127 0" result="hardAlpha"/>
<feOffset dy="4"/>
<feGaussianBlur stdDeviation="2"/>
<feComposite in2="hardAlpha" operator="out"/>
<feColorMatrix type="matrix" values="0 0 0 0 0 0 0 0 0 0 0 0 0 0 0 0 0 0 0.25 0"/>
<feBlend mode="normal" in2="BackgroundImageFix" result="effect1_dropShadow_14_53"/>
<feBlend mode="normal" in="SourceGraphic" in2="effect1_dropShadow_14_53" result="shape"/>
</filter>
<clipPath id="clip0_14_53">
<rect width="325" height="673" fill="white"/>
</clipPath>
<clipPath id="clip1_14_53">
<rect width="14" height="14" fill="white" transform="translate(115 638)"/>
</clipPath>
<clipPath id="clip2_14_53">
<rect width="20" height="20" fill="white" transform="translate(198 636)"/>
</clipPath>
<clipPath id="clip3_14_53">
<rect width="18" height="18" fill="white" transform="translate(293.46 633.737) rotate(25.4076)"/>
</clipPath>
</defs>
</svg>
