<svg xmlns="http://www.w3.org/2000/svg" xmlns:xlink="http://www.w3.org/1999/xlink" width="140" zoomAndPan="magnify" viewBox="0 0 104.88 30.000001" height="40" preserveAspectRatio="xMidYMid meet" version="1.0"><defs><g/><clipPath id="fbcd1c6e86"><path d="M 5 5.804688 L 19.777344 5.804688 L 19.777344 23.226562 L 5 23.226562 Z M 5 5.804688 " clip-rule="nonzero"/></clipPath></defs><g clip-path="url(#fbcd1c6e86)"><path fill="#ffffff" d="M 17.394531 15.039062 C 17.421875 17.667969 19.746094 18.542969 19.769531 18.550781 C 19.75 18.613281 19.398438 19.800781 18.546875 21.023438 C 17.808594 22.082031 17.042969 23.136719 15.839844 23.160156 C 14.652344 23.179688 14.273438 22.46875 12.917969 22.46875 C 11.566406 22.46875 11.140625 23.136719 10.019531 23.179688 C 8.855469 23.222656 7.96875 22.035156 7.226562 20.980469 C 5.707031 18.824219 4.546875 14.886719 6.105469 12.226562 C 6.878906 10.90625 8.265625 10.070312 9.765625 10.050781 C 10.910156 10.027344 11.988281 10.804688 12.6875 10.804688 C 13.382812 10.804688 14.695312 9.871094 16.074219 10.007812 C 16.648438 10.03125 18.269531 10.238281 19.308594 11.730469 C 19.222656 11.78125 17.375 12.839844 17.394531 15.039062 M 15.171875 8.582031 C 15.789062 7.847656 16.203125 6.824219 16.089844 5.804688 C 15.199219 5.839844 14.125 6.390625 13.484375 7.125 C 12.914062 7.773438 12.410156 8.8125 12.546875 9.8125 C 13.539062 9.886719 14.550781 9.316406 15.171875 8.582031 " fill-opacity="1" fill-rule="nonzero"/></g><g fill="#ffffff" fill-opacity="1"><g transform="translate(23.550635, 23.072089)"><g><path d="M 0.34375 0 L 4.203125 -10.546875 L 6.375 -10.546875 L 10.234375 0 L 8.1875 0 L 7.34375 -2.4375 L 3.234375 -2.4375 L 2.375 0 Z M 3.75 -3.953125 L 6.8125 -3.953125 L 5.28125 -8.34375 Z M 3.75 -3.953125 "/></g></g></g><g fill="#ffffff" fill-opacity="1"><g transform="translate(34.115939, 23.072089)"><g><path d="M 0.984375 3.3125 L 0.984375 -7.484375 L 2.703125 -7.484375 L 2.90625 -6.40625 C 3.144531 -6.738281 3.460938 -7.03125 3.859375 -7.28125 C 4.265625 -7.53125 4.78125 -7.65625 5.40625 -7.65625 C 6.113281 -7.65625 6.742188 -7.484375 7.296875 -7.140625 C 7.847656 -6.804688 8.285156 -6.34375 8.609375 -5.75 C 8.929688 -5.15625 9.09375 -4.476562 9.09375 -3.71875 C 9.09375 -2.96875 8.929688 -2.296875 8.609375 -1.703125 C 8.285156 -1.117188 7.847656 -0.65625 7.296875 -0.3125 C 6.742188 0.0195312 6.113281 0.1875 5.40625 0.1875 C 4.84375 0.1875 4.347656 0.0820312 3.921875 -0.125 C 3.503906 -0.34375 3.164062 -0.644531 2.90625 -1.03125 L 2.90625 3.3125 Z M 5 -1.5 C 5.613281 -1.5 6.117188 -1.707031 6.515625 -2.125 C 6.921875 -2.539062 7.125 -3.070312 7.125 -3.71875 C 7.125 -4.375 6.921875 -4.910156 6.515625 -5.328125 C 6.117188 -5.753906 5.613281 -5.96875 5 -5.96875 C 4.382812 -5.96875 3.875 -5.757812 3.46875 -5.34375 C 3.070312 -4.925781 2.875 -4.390625 2.875 -3.734375 C 2.875 -3.085938 3.070312 -2.550781 3.46875 -2.125 C 3.875 -1.707031 4.382812 -1.5 5 -1.5 Z M 5 -1.5 "/></g></g></g><g fill="#ffffff" fill-opacity="1"><g transform="translate(43.942733, 23.072089)"><g><path d="M 0.984375 3.3125 L 0.984375 -7.484375 L 2.703125 -7.484375 L 2.90625 -6.40625 C 3.144531 -6.738281 3.460938 -7.03125 3.859375 -7.28125 C 4.265625 -7.53125 4.78125 -7.65625 5.40625 -7.65625 C 6.113281 -7.65625 6.742188 -7.484375 7.296875 -7.140625 C 7.847656 -6.804688 8.285156 -6.34375 8.609375 -5.75 C 8.929688 -5.15625 9.09375 -4.476562 9.09375 -3.71875 C 9.09375 -2.96875 8.929688 -2.296875 8.609375 -1.703125 C 8.285156 -1.117188 7.847656 -0.65625 7.296875 -0.3125 C 6.742188 0.0195312 6.113281 0.1875 5.40625 0.1875 C 4.84375 0.1875 4.347656 0.0820312 3.921875 -0.125 C 3.503906 -0.34375 3.164062 -0.644531 2.90625 -1.03125 L 2.90625 3.3125 Z M 5 -1.5 C 5.613281 -1.5 6.117188 -1.707031 6.515625 -2.125 C 6.921875 -2.539062 7.125 -3.070312 7.125 -3.71875 C 7.125 -4.375 6.921875 -4.910156 6.515625 -5.328125 C 6.117188 -5.753906 5.613281 -5.96875 5 -5.96875 C 4.382812 -5.96875 3.875 -5.757812 3.46875 -5.34375 C 3.070312 -4.925781 2.875 -4.390625 2.875 -3.734375 C 2.875 -3.085938 3.070312 -2.550781 3.46875 -2.125 C 3.875 -1.707031 4.382812 -1.5 5 -1.5 Z M 5 -1.5 "/></g></g></g><g fill="#ffffff" fill-opacity="1"><g transform="translate(53.769527, 23.072089)"><g/></g></g><g fill="#ffffff" fill-opacity="1"><g transform="translate(57.356607, 23.072089)"><g><path d="M 4.625 0.1875 C 3.851562 0.1875 3.171875 0.0507812 2.578125 -0.21875 C 1.984375 -0.488281 1.515625 -0.867188 1.171875 -1.359375 C 0.828125 -1.859375 0.648438 -2.46875 0.640625 -3.1875 L 2.6875 -3.1875 C 2.707031 -2.6875 2.882812 -2.269531 3.21875 -1.9375 C 3.550781 -1.601562 4.015625 -1.4375 4.609375 -1.4375 C 5.128906 -1.4375 5.535156 -1.554688 5.828125 -1.796875 C 6.128906 -2.046875 6.28125 -2.378906 6.28125 -2.796875 C 6.28125 -3.222656 6.144531 -3.554688 5.875 -3.796875 C 5.613281 -4.035156 5.257812 -4.226562 4.8125 -4.375 C 4.375 -4.53125 3.90625 -4.695312 3.40625 -4.875 C 2.59375 -5.15625 1.972656 -5.515625 1.546875 -5.953125 C 1.117188 -6.398438 0.90625 -6.988281 0.90625 -7.71875 C 0.894531 -8.34375 1.039062 -8.878906 1.34375 -9.328125 C 1.65625 -9.773438 2.078125 -10.117188 2.609375 -10.359375 C 3.140625 -10.609375 3.753906 -10.734375 4.453125 -10.734375 C 5.148438 -10.734375 5.765625 -10.609375 6.296875 -10.359375 C 6.835938 -10.109375 7.257812 -9.753906 7.5625 -9.296875 C 7.875 -8.847656 8.039062 -8.3125 8.0625 -7.6875 L 6 -7.6875 C 5.988281 -8.0625 5.84375 -8.390625 5.5625 -8.671875 C 5.289062 -8.960938 4.910156 -9.109375 4.421875 -9.109375 C 3.992188 -9.117188 3.632812 -9.015625 3.34375 -8.796875 C 3.0625 -8.578125 2.921875 -8.265625 2.921875 -7.859375 C 2.921875 -7.503906 3.03125 -7.222656 3.25 -7.015625 C 3.476562 -6.804688 3.78125 -6.628906 4.15625 -6.484375 C 4.539062 -6.347656 4.976562 -6.203125 5.46875 -6.046875 C 5.988281 -5.867188 6.460938 -5.65625 6.890625 -5.40625 C 7.328125 -5.164062 7.675781 -4.847656 7.9375 -4.453125 C 8.207031 -4.054688 8.34375 -3.546875 8.34375 -2.921875 C 8.34375 -2.367188 8.203125 -1.851562 7.921875 -1.375 C 7.640625 -0.90625 7.21875 -0.523438 6.65625 -0.234375 C 6.101562 0.046875 5.425781 0.1875 4.625 0.1875 Z M 4.625 0.1875 "/></g></g></g><g fill="#ffffff" fill-opacity="1"><g transform="translate(66.354454, 23.072089)"><g><path d="M 4.3125 0 C 3.53125 0 2.898438 -0.1875 2.421875 -0.5625 C 1.953125 -0.945312 1.71875 -1.628906 1.71875 -2.609375 L 1.71875 -5.859375 L 0.4375 -5.859375 L 0.4375 -7.484375 L 1.71875 -7.484375 L 1.9375 -9.484375 L 3.65625 -9.484375 L 3.65625 -7.484375 L 5.671875 -7.484375 L 5.671875 -5.859375 L 3.65625 -5.859375 L 3.65625 -2.59375 C 3.65625 -2.226562 3.726562 -1.976562 3.875 -1.84375 C 4.03125 -1.707031 4.300781 -1.640625 4.6875 -1.640625 L 5.625 -1.640625 L 5.625 0 Z M 4.3125 0 "/></g></g></g><g fill="#ffffff" fill-opacity="1"><g transform="translate(72.699668, 23.072089)"><g><path d="M 4.5625 0.1875 C 3.84375 0.1875 3.191406 0.0195312 2.609375 -0.3125 C 2.035156 -0.644531 1.578125 -1.101562 1.234375 -1.6875 C 0.898438 -2.28125 0.734375 -2.960938 0.734375 -3.734375 C 0.734375 -4.515625 0.90625 -5.195312 1.25 -5.78125 C 1.59375 -6.375 2.050781 -6.832031 2.625 -7.15625 C 3.207031 -7.488281 3.859375 -7.65625 4.578125 -7.65625 C 5.296875 -7.65625 5.941406 -7.488281 6.515625 -7.15625 C 7.097656 -6.832031 7.554688 -6.375 7.890625 -5.78125 C 8.234375 -5.195312 8.40625 -4.515625 8.40625 -3.734375 C 8.40625 -2.960938 8.234375 -2.28125 7.890625 -1.6875 C 7.554688 -1.101562 7.097656 -0.644531 6.515625 -0.3125 C 5.929688 0.0195312 5.28125 0.1875 4.5625 0.1875 Z M 4.5625 -1.5 C 5.070312 -1.5 5.507812 -1.6875 5.875 -2.0625 C 6.25 -2.4375 6.4375 -2.992188 6.4375 -3.734375 C 6.4375 -4.484375 6.25 -5.046875 5.875 -5.421875 C 5.507812 -5.796875 5.078125 -5.984375 4.578125 -5.984375 C 4.066406 -5.984375 3.628906 -5.796875 3.265625 -5.421875 C 2.898438 -5.046875 2.71875 -4.484375 2.71875 -3.734375 C 2.71875 -2.992188 2.898438 -2.4375 3.265625 -2.0625 C 3.628906 -1.6875 4.0625 -1.5 4.5625 -1.5 Z M 4.5625 -1.5 "/></g></g></g><g fill="#ffffff" fill-opacity="1"><g transform="translate(81.833161, 23.072089)"><g><path d="M 0.984375 0 L 0.984375 -7.484375 L 2.703125 -7.484375 L 2.875 -6.078125 C 3.144531 -6.554688 3.515625 -6.9375 3.984375 -7.21875 C 4.453125 -7.507812 5.003906 -7.65625 5.640625 -7.65625 L 5.640625 -5.625 L 5.09375 -5.625 C 4.675781 -5.625 4.300781 -5.554688 3.96875 -5.421875 C 3.632812 -5.296875 3.375 -5.070312 3.1875 -4.75 C 3 -4.425781 2.90625 -3.976562 2.90625 -3.40625 L 2.90625 0 Z M 0.984375 0 "/></g></g></g><g fill="#ffffff" fill-opacity="1"><g transform="translate(87.801583, 23.072089)"><g><path d="M 4.609375 0.1875 C 3.859375 0.1875 3.191406 0.0234375 2.609375 -0.296875 C 2.023438 -0.617188 1.566406 -1.070312 1.234375 -1.65625 C 0.898438 -2.238281 0.734375 -2.910156 0.734375 -3.671875 C 0.734375 -4.453125 0.894531 -5.144531 1.21875 -5.75 C 1.550781 -6.351562 2.003906 -6.820312 2.578125 -7.15625 C 3.160156 -7.488281 3.84375 -7.65625 4.625 -7.65625 C 5.363281 -7.65625 6.015625 -7.492188 6.578125 -7.171875 C 7.140625 -6.847656 7.578125 -6.40625 7.890625 -5.84375 C 8.210938 -5.289062 8.375 -4.675781 8.375 -4 C 8.375 -3.882812 8.367188 -3.765625 8.359375 -3.640625 C 8.359375 -3.523438 8.351562 -3.398438 8.34375 -3.265625 L 2.65625 -3.265625 C 2.695312 -2.679688 2.898438 -2.222656 3.265625 -1.890625 C 3.628906 -1.566406 4.070312 -1.40625 4.59375 -1.40625 C 4.988281 -1.40625 5.316406 -1.492188 5.578125 -1.671875 C 5.847656 -1.847656 6.050781 -2.078125 6.1875 -2.359375 L 8.140625 -2.359375 C 8.003906 -1.878906 7.769531 -1.445312 7.4375 -1.0625 C 7.113281 -0.675781 6.710938 -0.367188 6.234375 -0.140625 C 5.753906 0.078125 5.210938 0.1875 4.609375 0.1875 Z M 4.625 -6.09375 C 4.15625 -6.09375 3.738281 -5.957031 3.375 -5.6875 C 3.007812 -5.425781 2.78125 -5.023438 2.6875 -4.484375 L 6.40625 -4.484375 C 6.375 -4.972656 6.191406 -5.363281 5.859375 -5.65625 C 5.535156 -5.945312 5.125 -6.09375 4.625 -6.09375 Z M 4.625 -6.09375 "/></g></g></g><g fill="#ffffff" fill-opacity="1"><g transform="translate(29.220746, 7.532219)"><g><path d="M 0.171875 0 L 2.15625 -5.40625 L 3.265625 -5.40625 L 5.25 0 L 4.203125 0 L 3.765625 -1.25 L 1.65625 -1.25 L 1.21875 0 Z M 1.921875 -2.03125 L 3.5 -2.03125 L 2.703125 -4.28125 Z M 1.921875 -2.03125 "/></g></g></g><g fill="#ffffff" fill-opacity="1"><g transform="translate(34.6479, 7.532219)"><g><path d="M 1.546875 0 L 0.125 -3.84375 L 1.171875 -3.84375 L 2.140625 -0.9375 L 3.109375 -3.84375 L 4.15625 -3.84375 L 2.734375 0 Z M 1.546875 0 "/></g></g></g><g fill="#ffffff" fill-opacity="1"><g transform="translate(38.929234, 7.532219)"><g><path d="M 1.828125 0.09375 C 1.492188 0.09375 1.222656 0.0390625 1.015625 -0.0625 C 0.804688 -0.164062 0.648438 -0.304688 0.546875 -0.484375 C 0.441406 -0.660156 0.390625 -0.851562 0.390625 -1.0625 C 0.390625 -1.414062 0.523438 -1.703125 0.796875 -1.921875 C 1.078125 -2.148438 1.5 -2.265625 2.0625 -2.265625 L 3.03125 -2.265625 L 3.03125 -2.359375 C 3.03125 -2.617188 2.953125 -2.8125 2.796875 -2.9375 C 2.648438 -3.0625 2.46875 -3.125 2.25 -3.125 C 2.050781 -3.125 1.875 -3.078125 1.71875 -2.984375 C 1.570312 -2.890625 1.484375 -2.75 1.453125 -2.5625 L 0.484375 -2.5625 C 0.503906 -2.84375 0.59375 -3.082031 0.75 -3.28125 C 0.914062 -3.488281 1.128906 -3.644531 1.390625 -3.75 C 1.648438 -3.863281 1.941406 -3.921875 2.265625 -3.921875 C 2.804688 -3.921875 3.234375 -3.785156 3.546875 -3.515625 C 3.859375 -3.242188 4.015625 -2.859375 4.015625 -2.359375 L 4.015625 0 L 3.171875 0 L 3.09375 -0.625 C 2.976562 -0.414062 2.816406 -0.242188 2.609375 -0.109375 C 2.410156 0.0234375 2.148438 0.09375 1.828125 0.09375 Z M 2.046875 -0.6875 C 2.328125 -0.6875 2.546875 -0.773438 2.703125 -0.953125 C 2.867188 -1.140625 2.972656 -1.367188 3.015625 -1.640625 L 2.171875 -1.640625 C 1.898438 -1.640625 1.707031 -1.59375 1.59375 -1.5 C 1.488281 -1.40625 1.4375 -1.289062 1.4375 -1.15625 C 1.4375 -1 1.488281 -0.878906 1.59375 -0.796875 C 1.707031 -0.722656 1.859375 -0.6875 2.046875 -0.6875 Z M 2.046875 -0.6875 "/></g></g></g><g fill="#ffffff" fill-opacity="1"><g transform="translate(43.396371, 7.532219)"><g><path d="M 1.03125 -4.4375 C 0.851562 -4.4375 0.707031 -4.488281 0.59375 -4.59375 C 0.476562 -4.695312 0.421875 -4.832031 0.421875 -5 C 0.421875 -5.164062 0.476562 -5.300781 0.59375 -5.40625 C 0.707031 -5.507812 0.851562 -5.5625 1.03125 -5.5625 C 1.21875 -5.5625 1.367188 -5.507812 1.484375 -5.40625 C 1.597656 -5.300781 1.65625 -5.164062 1.65625 -5 C 1.65625 -4.832031 1.597656 -4.695312 1.484375 -4.59375 C 1.367188 -4.488281 1.21875 -4.4375 1.03125 -4.4375 Z M 0.546875 0 L 0.546875 -3.84375 L 1.53125 -3.84375 L 1.53125 0 Z M 0.546875 0 "/></g></g></g><g fill="#ffffff" fill-opacity="1"><g transform="translate(45.463491, 7.532219)"><g><path d="M 0.5 0 L 0.5 -5.5625 L 1.5 -5.5625 L 1.5 0 Z M 0.5 0 "/></g></g></g><g fill="#ffffff" fill-opacity="1"><g transform="translate(47.468669, 7.532219)"><g><path d="M 1.828125 0.09375 C 1.492188 0.09375 1.222656 0.0390625 1.015625 -0.0625 C 0.804688 -0.164062 0.648438 -0.304688 0.546875 -0.484375 C 0.441406 -0.660156 0.390625 -0.851562 0.390625 -1.0625 C 0.390625 -1.414062 0.523438 -1.703125 0.796875 -1.921875 C 1.078125 -2.148438 1.5 -2.265625 2.0625 -2.265625 L 3.03125 -2.265625 L 3.03125 -2.359375 C 3.03125 -2.617188 2.953125 -2.8125 2.796875 -2.9375 C 2.648438 -3.0625 2.46875 -3.125 2.25 -3.125 C 2.050781 -3.125 1.875 -3.078125 1.71875 -2.984375 C 1.570312 -2.890625 1.484375 -2.75 1.453125 -2.5625 L 0.484375 -2.5625 C 0.503906 -2.84375 0.59375 -3.082031 0.75 -3.28125 C 0.914062 -3.488281 1.128906 -3.644531 1.390625 -3.75 C 1.648438 -3.863281 1.941406 -3.921875 2.265625 -3.921875 C 2.804688 -3.921875 3.234375 -3.785156 3.546875 -3.515625 C 3.859375 -3.242188 4.015625 -2.859375 4.015625 -2.359375 L 4.015625 0 L 3.171875 0 L 3.09375 -0.625 C 2.976562 -0.414062 2.816406 -0.242188 2.609375 -0.109375 C 2.410156 0.0234375 2.148438 0.09375 1.828125 0.09375 Z M 2.046875 -0.6875 C 2.328125 -0.6875 2.546875 -0.773438 2.703125 -0.953125 C 2.867188 -1.140625 2.972656 -1.367188 3.015625 -1.640625 L 2.171875 -1.640625 C 1.898438 -1.640625 1.707031 -1.59375 1.59375 -1.5 C 1.488281 -1.40625 1.4375 -1.289062 1.4375 -1.15625 C 1.4375 -1 1.488281 -0.878906 1.59375 -0.796875 C 1.707031 -0.722656 1.859375 -0.6875 2.046875 -0.6875 Z M 2.046875 -0.6875 "/></g></g></g><g fill="#ffffff" fill-opacity="1"><g transform="translate(51.935807, 7.532219)"><g><path d="M 2.78125 0.09375 C 2.488281 0.09375 2.234375 0.0390625 2.015625 -0.0625 C 1.796875 -0.175781 1.625 -0.332031 1.5 -0.53125 L 1.390625 0 L 0.5 0 L 0.5 -5.5625 L 1.5 -5.5625 L 1.5 -3.28125 C 1.613281 -3.457031 1.773438 -3.609375 1.984375 -3.734375 C 2.191406 -3.859375 2.457031 -3.921875 2.78125 -3.921875 C 3.132812 -3.921875 3.453125 -3.832031 3.734375 -3.65625 C 4.023438 -3.488281 4.25 -3.25 4.40625 -2.9375 C 4.570312 -2.632812 4.65625 -2.289062 4.65625 -1.90625 C 4.65625 -1.519531 4.570312 -1.175781 4.40625 -0.875 C 4.25 -0.570312 4.023438 -0.332031 3.734375 -0.15625 C 3.453125 0.0078125 3.132812 0.09375 2.78125 0.09375 Z M 2.5625 -0.765625 C 2.882812 -0.765625 3.144531 -0.867188 3.34375 -1.078125 C 3.550781 -1.296875 3.65625 -1.570312 3.65625 -1.90625 C 3.65625 -2.238281 3.550781 -2.515625 3.34375 -2.734375 C 3.144531 -2.953125 2.882812 -3.0625 2.5625 -3.0625 C 2.25 -3.0625 1.988281 -2.953125 1.78125 -2.734375 C 1.582031 -2.523438 1.484375 -2.253906 1.484375 -1.921875 C 1.484375 -1.585938 1.582031 -1.3125 1.78125 -1.09375 C 1.988281 -0.875 2.25 -0.765625 2.5625 -0.765625 Z M 2.5625 -0.765625 "/></g></g></g><g fill="#ffffff" fill-opacity="1"><g transform="translate(56.983597, 7.532219)"><g><path d="M 0.5 0 L 0.5 -5.5625 L 1.5 -5.5625 L 1.5 0 Z M 0.5 0 "/></g></g></g><g fill="#ffffff" fill-opacity="1"><g transform="translate(58.988775, 7.532219)"><g><path d="M 2.359375 0.09375 C 1.972656 0.09375 1.628906 0.0078125 1.328125 -0.15625 C 1.035156 -0.320312 0.800781 -0.550781 0.625 -0.84375 C 0.457031 -1.144531 0.375 -1.492188 0.375 -1.890625 C 0.375 -2.285156 0.457031 -2.632812 0.625 -2.9375 C 0.789062 -3.25 1.019531 -3.488281 1.3125 -3.65625 C 1.613281 -3.832031 1.96875 -3.921875 2.375 -3.921875 C 2.75 -3.921875 3.082031 -3.835938 3.375 -3.671875 C 3.664062 -3.515625 3.890625 -3.289062 4.046875 -3 C 4.210938 -2.71875 4.296875 -2.398438 4.296875 -2.046875 C 4.296875 -1.992188 4.289062 -1.9375 4.28125 -1.875 C 4.28125 -1.8125 4.28125 -1.742188 4.28125 -1.671875 L 1.359375 -1.671875 C 1.378906 -1.378906 1.484375 -1.144531 1.671875 -0.96875 C 1.859375 -0.800781 2.085938 -0.71875 2.359375 -0.71875 C 2.554688 -0.71875 2.722656 -0.757812 2.859375 -0.84375 C 3.003906 -0.9375 3.109375 -1.054688 3.171875 -1.203125 L 4.171875 -1.203125 C 4.097656 -0.960938 3.976562 -0.742188 3.8125 -0.546875 C 3.644531 -0.347656 3.4375 -0.191406 3.1875 -0.078125 C 2.945312 0.0351562 2.671875 0.09375 2.359375 0.09375 Z M 2.375 -3.125 C 2.132812 -3.125 1.921875 -3.054688 1.734375 -2.921875 C 1.546875 -2.785156 1.425781 -2.578125 1.375 -2.296875 L 3.28125 -2.296875 C 3.269531 -2.546875 3.175781 -2.742188 3 -2.890625 C 2.832031 -3.046875 2.625 -3.125 2.375 -3.125 Z M 2.375 -3.125 "/></g></g></g><g fill="#ffffff" fill-opacity="1"><g transform="translate(63.618503, 7.532219)"><g/></g></g><g fill="#ffffff" fill-opacity="1"><g transform="translate(65.461101, 7.532219)"><g><path d="M 2.34375 0.09375 C 1.96875 0.09375 1.628906 0.0078125 1.328125 -0.15625 C 1.035156 -0.332031 0.800781 -0.570312 0.625 -0.875 C 0.457031 -1.175781 0.375 -1.523438 0.375 -1.921875 C 0.375 -2.316406 0.460938 -2.664062 0.640625 -2.96875 C 0.816406 -3.269531 1.050781 -3.503906 1.34375 -3.671875 C 1.644531 -3.835938 1.976562 -3.921875 2.34375 -3.921875 C 2.71875 -3.921875 3.050781 -3.835938 3.34375 -3.671875 C 3.644531 -3.503906 3.878906 -3.269531 4.046875 -2.96875 C 4.222656 -2.664062 4.3125 -2.316406 4.3125 -1.921875 C 4.3125 -1.523438 4.222656 -1.175781 4.046875 -0.875 C 3.878906 -0.570312 3.644531 -0.332031 3.34375 -0.15625 C 3.039062 0.0078125 2.707031 0.09375 2.34375 0.09375 Z M 2.34375 -0.765625 C 2.601562 -0.765625 2.828125 -0.859375 3.015625 -1.046875 C 3.203125 -1.242188 3.296875 -1.535156 3.296875 -1.921875 C 3.296875 -2.296875 3.203125 -2.582031 3.015625 -2.78125 C 2.828125 -2.976562 2.601562 -3.078125 2.34375 -3.078125 C 2.082031 -3.078125 1.859375 -2.976562 1.671875 -2.78125 C 1.484375 -2.582031 1.390625 -2.296875 1.390625 -1.921875 C 1.390625 -1.535156 1.484375 -1.242188 1.671875 -1.046875 C 1.859375 -0.859375 2.082031 -0.765625 2.34375 -0.765625 Z M 2.34375 -0.765625 "/></g></g></g><g fill="#ffffff" fill-opacity="1"><g transform="translate(70.15276, 7.532219)"><g><path d="M 0.5 0 L 0.5 -3.84375 L 1.375 -3.84375 L 1.453125 -3.1875 C 1.566406 -3.414062 1.738281 -3.59375 1.96875 -3.71875 C 2.195312 -3.851562 2.460938 -3.921875 2.765625 -3.921875 C 3.234375 -3.921875 3.597656 -3.769531 3.859375 -3.46875 C 4.128906 -3.175781 4.265625 -2.742188 4.265625 -2.171875 L 4.265625 0 L 3.265625 0 L 3.265625 -2.078125 C 3.265625 -2.398438 3.195312 -2.648438 3.0625 -2.828125 C 2.9375 -3.003906 2.726562 -3.09375 2.4375 -3.09375 C 2.164062 -3.09375 1.941406 -2.992188 1.765625 -2.796875 C 1.585938 -2.597656 1.5 -2.328125 1.5 -1.984375 L 1.5 0 Z M 0.5 0 "/></g></g></g><g fill="#ffffff" fill-opacity="1"><g transform="translate(74.859904, 7.532219)"><g/></g></g><g fill="#ffffff" fill-opacity="1"><g transform="translate(76.702502, 7.532219)"><g><path d="M 2.21875 0 C 1.8125 0 1.484375 -0.0976562 1.234375 -0.296875 C 0.992188 -0.492188 0.875 -0.84375 0.875 -1.34375 L 0.875 -3.015625 L 0.21875 -3.015625 L 0.21875 -3.84375 L 0.875 -3.84375 L 1 -4.859375 L 1.875 -4.859375 L 1.875 -3.84375 L 2.90625 -3.84375 L 2.90625 -3.015625 L 1.875 -3.015625 L 1.875 -1.328125 C 1.875 -1.140625 1.910156 -1.007812 1.984375 -0.9375 C 2.066406 -0.875 2.207031 -0.84375 2.40625 -0.84375 L 2.890625 -0.84375 L 2.890625 0 Z M 2.21875 0 "/></g></g></g><g fill="#ffffff" fill-opacity="1"><g transform="translate(79.961888, 7.532219)"><g><path d="M 0.5 0 L 0.5 -5.5625 L 1.5 -5.5625 L 1.5 -3.25 C 1.625 -3.457031 1.796875 -3.617188 2.015625 -3.734375 C 2.234375 -3.859375 2.484375 -3.921875 2.765625 -3.921875 C 3.242188 -3.921875 3.613281 -3.769531 3.875 -3.46875 C 4.132812 -3.175781 4.265625 -2.742188 4.265625 -2.171875 L 4.265625 0 L 3.28125 0 L 3.28125 -2.078125 C 3.28125 -2.398438 3.210938 -2.648438 3.078125 -2.828125 C 2.953125 -3.003906 2.742188 -3.09375 2.453125 -3.09375 C 2.179688 -3.09375 1.953125 -2.992188 1.765625 -2.796875 C 1.585938 -2.597656 1.5 -2.328125 1.5 -1.984375 L 1.5 0 Z M 0.5 0 "/></g></g></g><g fill="#ffffff" fill-opacity="1"><g transform="translate(84.669032, 7.532219)"><g><path d="M 2.359375 0.09375 C 1.972656 0.09375 1.628906 0.0078125 1.328125 -0.15625 C 1.035156 -0.320312 0.800781 -0.550781 0.625 -0.84375 C 0.457031 -1.144531 0.375 -1.492188 0.375 -1.890625 C 0.375 -2.285156 0.457031 -2.632812 0.625 -2.9375 C 0.789062 -3.25 1.019531 -3.488281 1.3125 -3.65625 C 1.613281 -3.832031 1.96875 -3.921875 2.375 -3.921875 C 2.75 -3.921875 3.082031 -3.835938 3.375 -3.671875 C 3.664062 -3.515625 3.890625 -3.289062 4.046875 -3 C 4.210938 -2.71875 4.296875 -2.398438 4.296875 -2.046875 C 4.296875 -1.992188 4.289062 -1.9375 4.28125 -1.875 C 4.28125 -1.8125 4.28125 -1.742188 4.28125 -1.671875 L 1.359375 -1.671875 C 1.378906 -1.378906 1.484375 -1.144531 1.671875 -0.96875 C 1.859375 -0.800781 2.085938 -0.71875 2.359375 -0.71875 C 2.554688 -0.71875 2.722656 -0.757812 2.859375 -0.84375 C 3.003906 -0.9375 3.109375 -1.054688 3.171875 -1.203125 L 4.171875 -1.203125 C 4.097656 -0.960938 3.976562 -0.742188 3.8125 -0.546875 C 3.644531 -0.347656 3.4375 -0.191406 3.1875 -0.078125 C 2.945312 0.0351562 2.671875 0.09375 2.359375 0.09375 Z M 2.375 -3.125 C 2.132812 -3.125 1.921875 -3.054688 1.734375 -2.921875 C 1.546875 -2.785156 1.425781 -2.578125 1.375 -2.296875 L 3.28125 -2.296875 C 3.269531 -2.546875 3.175781 -2.742188 3 -2.890625 C 2.832031 -3.046875 2.625 -3.125 2.375 -3.125 Z M 2.375 -3.125 "/></g></g></g><g fill="#ffffff" fill-opacity="1"><g transform="translate(89.291494, 7.532219)"><g/></g></g></svg>