<svg xmlns="http://www.w3.org/2000/svg" xmlns:xlink="http://www.w3.org/1999/xlink" width="57" zoomAndPan="magnify" viewBox="0 0 42.75 42.749999" height="57" preserveAspectRatio="xMidYMid meet" version="1.0"><defs><clipPath id="e07ffdb6e2"><path d="M 4.273438 4.273438 L 38.773438 4.273438 L 38.773438 38.773438 L 4.273438 38.773438 Z M 4.273438 4.273438 " clip-rule="nonzero"/></clipPath><clipPath id="db77c08cf8"><path d="M 9.785156 9.785156 L 33.035156 9.785156 L 33.035156 33.035156 L 9.785156 33.035156 Z M 9.785156 9.785156 " clip-rule="nonzero"/></clipPath></defs><g clip-path="url(#e07ffdb6e2)"><path fill="#edf9f6" d="M 38.773438 21.523438 C 38.773438 22.089844 38.746094 22.652344 38.691406 23.214844 C 38.636719 23.777344 38.554688 24.335938 38.441406 24.890625 C 38.332031 25.445312 38.195312 25.992188 38.03125 26.53125 C 37.867188 27.074219 37.675781 27.605469 37.460938 28.125 C 37.246094 28.648438 37.003906 29.15625 36.738281 29.65625 C 36.472656 30.15625 36.179688 30.636719 35.867188 31.109375 C 35.554688 31.578125 35.21875 32.03125 34.859375 32.46875 C 34.5 32.90625 34.121094 33.324219 33.722656 33.722656 C 33.324219 34.121094 32.90625 34.5 32.46875 34.859375 C 32.03125 35.21875 31.578125 35.554688 31.109375 35.867188 C 30.636719 36.179688 30.15625 36.472656 29.65625 36.738281 C 29.15625 37.003906 28.648438 37.246094 28.125 37.460938 C 27.605469 37.675781 27.074219 37.867188 26.53125 38.03125 C 25.992188 38.195312 25.445312 38.332031 24.890625 38.441406 C 24.335938 38.554688 23.777344 38.636719 23.214844 38.691406 C 22.652344 38.746094 22.089844 38.773438 21.523438 38.773438 C 20.960938 38.773438 20.394531 38.746094 19.832031 38.691406 C 19.273438 38.636719 18.714844 38.554688 18.160156 38.441406 C 17.605469 38.332031 17.058594 38.195312 16.515625 38.03125 C 15.976562 37.867188 15.445312 37.675781 14.921875 37.460938 C 14.402344 37.246094 13.890625 37.003906 13.394531 36.738281 C 12.894531 36.472656 12.410156 36.179688 11.941406 35.867188 C 11.472656 35.554688 11.019531 35.21875 10.582031 34.859375 C 10.144531 34.5 9.726562 34.121094 9.328125 33.722656 C 8.929688 33.324219 8.550781 32.90625 8.191406 32.46875 C 7.832031 32.03125 7.496094 31.578125 7.183594 31.109375 C 6.867188 30.636719 6.578125 30.15625 6.3125 29.65625 C 6.046875 29.15625 5.804688 28.648438 5.589844 28.125 C 5.371094 27.605469 5.183594 27.074219 5.019531 26.53125 C 4.855469 25.992188 4.714844 25.445312 4.605469 24.890625 C 4.496094 24.335938 4.414062 23.777344 4.359375 23.214844 C 4.300781 22.652344 4.273438 22.089844 4.273438 21.523438 C 4.273438 20.960938 4.300781 20.394531 4.359375 19.832031 C 4.414062 19.273438 4.496094 18.714844 4.605469 18.160156 C 4.714844 17.605469 4.855469 17.058594 5.019531 16.515625 C 5.183594 15.976562 5.371094 15.445312 5.589844 14.921875 C 5.804688 14.402344 6.046875 13.890625 6.3125 13.394531 C 6.578125 12.894531 6.867188 12.410156 7.183594 11.941406 C 7.496094 11.472656 7.832031 11.019531 8.191406 10.582031 C 8.550781 10.144531 8.929688 9.726562 9.328125 9.328125 C 9.726562 8.929688 10.144531 8.550781 10.582031 8.191406 C 11.019531 7.832031 11.472656 7.496094 11.941406 7.183594 C 12.410156 6.867188 12.894531 6.578125 13.394531 6.3125 C 13.890625 6.046875 14.402344 5.804688 14.921875 5.589844 C 15.445312 5.371094 15.976562 5.183594 16.515625 5.019531 C 17.058594 4.855469 17.605469 4.714844 18.160156 4.605469 C 18.714844 4.496094 19.273438 4.414062 19.832031 4.359375 C 20.394531 4.300781 20.960938 4.273438 21.523438 4.273438 C 22.089844 4.273438 22.652344 4.300781 23.214844 4.359375 C 23.777344 4.414062 24.335938 4.496094 24.890625 4.605469 C 25.445312 4.714844 25.992188 4.855469 26.53125 5.019531 C 27.074219 5.183594 27.605469 5.371094 28.125 5.589844 C 28.648438 5.804688 29.15625 6.046875 29.65625 6.3125 C 30.15625 6.578125 30.636719 6.867188 31.109375 7.183594 C 31.578125 7.496094 32.03125 7.832031 32.46875 8.191406 C 32.90625 8.550781 33.324219 8.929688 33.722656 9.328125 C 34.121094 9.726562 34.5 10.144531 34.859375 10.582031 C 35.21875 11.019531 35.554688 11.472656 35.867188 11.941406 C 36.179688 12.410156 36.472656 12.894531 36.738281 13.394531 C 37.003906 13.890625 37.246094 14.402344 37.460938 14.921875 C 37.675781 15.445312 37.867188 15.976562 38.03125 16.515625 C 38.195312 17.058594 38.332031 17.605469 38.441406 18.160156 C 38.554688 18.714844 38.636719 19.273438 38.691406 19.832031 C 38.746094 20.394531 38.773438 20.960938 38.773438 21.523438 Z M 38.773438 21.523438 " fill-opacity="1" fill-rule="nonzero"/></g><g clip-path="url(#db77c08cf8)"><path fill="#00c485" d="M 32.804688 19.226562 C 32.773438 19.226562 32.742188 19.257812 32.710938 19.257812 C 32.648438 19.257812 32.433594 19.476562 32.308594 19.570312 C 32.183594 19.691406 32.03125 19.753906 32 19.816406 C 31.96875 19.878906 32 19.972656 32.089844 20.035156 C 32.183594 20.09375 32.089844 20.25 32.089844 20.527344 C 32.089844 20.808594 32 20.589844 31.90625 20.683594 C 31.8125 20.746094 31.6875 20.746094 31.628906 20.714844 C 31.566406 20.683594 31.472656 20.589844 31.410156 20.40625 C 31.347656 20.21875 31.316406 20.09375 31.285156 20.035156 C 31.257812 19.972656 31.164062 19.601562 31.101562 19.476562 C 31.070312 19.351562 31.039062 19.320312 30.945312 19.199219 C 30.882812 19.105469 30.824219 19.136719 30.730469 18.980469 C 30.605469 18.855469 30.636719 18.855469 30.542969 18.703125 C 30.449219 18.578125 30.328125 18.578125 30.234375 18.578125 C 30.140625 18.578125 29.769531 18.578125 29.644531 18.515625 C 29.523438 18.453125 29.554688 18.421875 29.492188 18.421875 C 29.429688 18.421875 29.273438 18.421875 29.121094 18.300781 C 28.964844 18.175781 29.121094 18.300781 28.996094 18.300781 C 28.871094 18.300781 28.46875 18.207031 28.46875 18.207031 C 28.46875 18.207031 28.46875 18.269531 28.5 18.332031 C 28.53125 18.390625 29.210938 18.609375 29.273438 18.609375 C 29.335938 18.640625 29.367188 18.765625 29.460938 18.855469 C 29.554688 18.949219 29.613281 18.980469 29.613281 19.011719 C 29.644531 19.074219 29.492188 19.289062 29.492188 19.289062 C 29.492188 19.289062 29.242188 19.414062 29.183594 19.445312 C 29.121094 19.476562 28.996094 19.570312 28.964844 19.632812 C 28.933594 19.691406 28.59375 19.878906 28.53125 19.910156 C 28.46875 19.941406 28.191406 20.003906 28.128906 19.972656 C 28.066406 19.941406 28.003906 19.847656 28.003906 19.847656 C 28.003906 19.847656 27.851562 19.691406 27.789062 19.445312 C 27.757812 19.226562 27.726562 19.167969 27.695312 18.980469 C 27.664062 18.796875 27.480469 18.703125 27.417969 18.578125 C 27.324219 18.421875 27.109375 18.207031 27.109375 18.207031 C 27.109375 18.207031 26.953125 18.332031 26.890625 18.363281 C 26.859375 18.421875 26.953125 18.640625 26.984375 18.734375 C 27.015625 18.824219 27.046875 18.980469 27.167969 19.136719 C 27.261719 19.289062 27.355469 19.351562 27.539062 19.507812 C 27.726562 19.660156 27.757812 19.910156 27.789062 19.972656 C 27.820312 20.035156 27.972656 20.1875 28.128906 20.3125 C 28.285156 20.4375 28.316406 20.34375 28.59375 20.3125 C 28.871094 20.28125 28.777344 20.375 28.777344 20.464844 C 28.777344 20.558594 28.71875 20.839844 28.65625 20.960938 C 28.59375 21.117188 28.40625 21.179688 28.285156 21.273438 C 28.160156 21.363281 28.097656 21.519531 27.941406 21.644531 C 27.789062 21.765625 27.789062 21.859375 27.820312 21.921875 C 27.851562 21.984375 27.789062 22.324219 27.820312 22.386719 C 27.851562 22.449219 27.789062 22.632812 27.820312 22.851562 C 27.851562 23.066406 27.820312 23.222656 27.820312 23.285156 C 27.820312 23.347656 27.664062 23.5 27.539062 23.59375 C 27.449219 23.65625 27.355469 23.75 27.230469 23.78125 C 27.109375 23.808594 27.230469 23.902344 27.230469 24.152344 C 27.230469 24.398438 27.109375 24.460938 27.046875 24.429688 C 26.984375 24.367188 26.890625 24.675781 26.828125 24.863281 C 26.765625 25.046875 26.703125 25.140625 26.675781 25.171875 C 26.644531 25.234375 26.519531 25.296875 26.394531 25.421875 C 26.273438 25.542969 26.117188 25.636719 25.992188 25.699219 C 25.867188 25.730469 25.683594 25.824219 25.4375 25.824219 C 25.21875 25.855469 25.1875 25.203125 25.09375 25.109375 C 25.003906 25.019531 24.972656 24.832031 24.972656 24.675781 C 24.972656 24.523438 24.972656 24.492188 24.972656 24.398438 C 24.972656 24.304688 24.816406 24.183594 24.878906 24.027344 C 24.941406 23.871094 24.816406 23.808594 24.785156 23.65625 C 24.753906 23.53125 24.785156 23.4375 24.785156 23.375 C 24.785156 23.316406 25.125 23.066406 24.972656 23.003906 C 24.878906 22.972656 24.816406 22.632812 24.753906 22.511719 C 24.691406 22.386719 24.628906 22.355469 24.539062 22.230469 C 24.445312 22.109375 24.414062 22.109375 24.382812 21.921875 C 24.351562 21.734375 24.445312 21.519531 24.476562 21.363281 C 24.507812 21.242188 24.257812 21.085938 24.136719 20.992188 C 24.011719 20.898438 23.917969 20.871094 23.765625 20.871094 C 23.609375 20.871094 23.640625 20.929688 23.546875 20.929688 C 23.453125 20.929688 23.269531 20.898438 23.207031 20.898438 C 23.144531 20.871094 23.082031 20.898438 22.988281 20.871094 C 22.957031 20.960938 22.648438 21.117188 22.648438 21.117188 C 22.648438 21.117188 22.371094 20.960938 22.277344 20.871094 C 22.183594 20.777344 22.125 20.714844 22 20.589844 C 21.90625 20.464844 21.875 20.464844 21.71875 20.25 C 21.566406 20.035156 21.71875 20.09375 21.71875 20.035156 C 21.71875 19.972656 21.75 19.878906 21.875 19.660156 C 22 19.445312 21.875 19.507812 21.875 19.289062 C 21.875 19.074219 21.96875 18.886719 22.03125 18.796875 C 22.09375 18.703125 22.152344 18.671875 22.183594 18.640625 C 22.246094 18.578125 22.496094 18.421875 22.496094 18.421875 C 22.496094 18.421875 22.464844 18.269531 22.496094 18.144531 C 22.527344 18.019531 22.617188 17.988281 22.648438 17.898438 C 22.679688 17.835938 22.898438 17.679688 23.019531 17.585938 C 23.144531 17.464844 23.175781 17.558594 23.332031 17.558594 C 23.453125 17.558594 23.332031 17.558594 23.484375 17.558594 C 23.640625 17.558594 23.703125 17.558594 23.703125 17.558594 C 23.703125 17.558594 23.824219 17.527344 24.011719 17.496094 C 24.199219 17.464844 24.167969 17.433594 24.289062 17.339844 C 24.414062 17.246094 24.539062 17.339844 24.601562 17.339844 C 24.660156 17.339844 24.722656 17.464844 24.722656 17.464844 C 24.722656 17.464844 24.785156 17.679688 24.847656 17.742188 C 24.910156 17.804688 25.003906 17.804688 25.0625 17.835938 C 25.125 17.867188 25.21875 17.929688 25.34375 17.960938 C 25.464844 17.988281 25.621094 17.929688 25.621094 17.929688 C 25.621094 17.929688 25.621094 17.929688 25.714844 17.898438 C 25.808594 17.867188 25.929688 17.929688 25.929688 17.929688 C 25.929688 17.929688 26.054688 17.988281 26.148438 18.050781 C 26.242188 18.082031 26.363281 18.050781 26.425781 18.050781 C 26.488281 18.050781 26.550781 18.019531 26.675781 18.019531 C 26.796875 18.019531 26.859375 17.988281 26.859375 17.988281 C 26.859375 17.988281 26.953125 17.898438 27.015625 17.835938 C 27.078125 17.773438 27.046875 17.742188 27.167969 17.527344 C 27.292969 17.308594 27.167969 17.527344 27.230469 17.464844 C 27.292969 17.402344 27.230469 17.371094 27.199219 17.308594 C 27.167969 17.246094 26.984375 17.246094 26.859375 17.214844 C 26.734375 17.183594 26.859375 17.214844 26.734375 17.183594 C 26.613281 17.152344 26.550781 17.152344 26.550781 17.152344 C 26.550781 17.152344 26.394531 17.125 26.273438 17.09375 C 26.148438 17.03125 26.273438 17.09375 26.242188 17.03125 C 26.210938 16.96875 26.210938 16.9375 26.210938 16.9375 L 26.054688 16.84375 C 26.054688 16.84375 25.992188 16.9375 25.992188 17 C 25.992188 17.0625 26.054688 17.214844 26.054688 17.214844 L 25.839844 17.277344 C 25.839844 17.277344 25.746094 17.214844 25.714844 17.152344 C 25.683594 17.09375 25.746094 17.03125 25.621094 16.90625 C 25.496094 16.78125 25.621094 16.90625 25.527344 16.84375 C 25.4375 16.78125 25.496094 16.722656 25.496094 16.691406 C 25.496094 16.660156 25.4375 16.566406 25.4375 16.566406 C 25.4375 16.566406 25.28125 16.503906 25.1875 16.441406 C 25.125 16.378906 25.09375 16.316406 25.003906 16.226562 C 24.878906 16.070312 24.878906 16.164062 24.816406 16.164062 C 24.816406 16.164062 24.785156 16.164062 24.785156 16.164062 C 24.785156 16.164062 24.785156 16.195312 24.816406 16.195312 C 24.847656 16.226562 24.847656 16.257812 24.878906 16.289062 C 24.910156 16.316406 24.941406 16.410156 24.941406 16.441406 C 24.972656 16.472656 25.003906 16.472656 25.0625 16.503906 C 25.125 16.535156 25.125 16.566406 25.15625 16.597656 C 25.1875 16.628906 25.21875 16.660156 25.25 16.691406 C 25.28125 16.722656 25.34375 16.722656 25.40625 16.75 C 25.464844 16.78125 25.40625 16.875 25.40625 16.84375 C 25.40625 16.84375 25.375 16.8125 25.3125 16.8125 C 25.25 16.8125 25.28125 16.875 25.3125 16.875 C 25.34375 16.875 25.375 16.9375 25.375 16.96875 C 25.375 16.96875 25.34375 17.0625 25.3125 17.09375 C 25.28125 17.125 25.28125 17.125 25.25 17.152344 C 25.21875 17.183594 25.21875 17.183594 25.1875 17.183594 C 25.1875 17.183594 25.15625 17.246094 25.15625 17.277344 C 25.15625 17.308594 25.09375 17.339844 25.0625 17.339844 C 25.035156 17.339844 25.003906 17.308594 25.003906 17.277344 C 24.972656 17.246094 24.941406 17.277344 24.910156 17.246094 C 24.878906 17.214844 24.847656 17.183594 24.878906 17.152344 C 24.910156 17.125 24.941406 17.152344 25.003906 17.152344 C 25.0625 17.125 25.0625 17.183594 25.125 17.152344 C 25.1875 17.125 25.21875 17.09375 25.21875 17.09375 C 25.21875 17.09375 25.125 16.875 25.09375 16.84375 C 25.0625 16.8125 25.003906 16.78125 24.972656 16.75 C 24.941406 16.722656 24.878906 16.722656 24.816406 16.660156 C 24.753906 16.597656 24.753906 16.628906 24.722656 16.566406 C 24.691406 16.503906 24.691406 16.535156 24.660156 16.503906 C 24.628906 16.472656 24.601562 16.410156 24.601562 16.378906 C 24.570312 16.347656 24.570312 16.347656 24.539062 16.316406 C 24.507812 16.316406 24.507812 16.316406 24.507812 16.316406 C 24.507812 16.316406 24.507812 16.316406 24.445312 16.347656 C 24.382812 16.378906 24.351562 16.472656 24.226562 16.597656 C 24.105469 16.722656 24.074219 16.722656 24.042969 16.660156 C 23.980469 16.597656 23.855469 16.78125 23.855469 16.78125 L 23.792969 17 C 23.792969 17 23.671875 17.125 23.578125 17.152344 C 23.484375 17.183594 23.484375 17.277344 23.453125 17.308594 C 23.421875 17.371094 23.238281 17.371094 23.144531 17.371094 C 23.050781 17.371094 23.019531 17.308594 22.929688 17.214844 C 22.835938 17.125 22.929688 17.214844 22.867188 17.214844 C 22.804688 17.214844 22.710938 17.0625 22.710938 17.0625 C 22.710938 17.0625 22.710938 17.0625 22.804688 17 C 22.898438 16.9375 22.804688 16.875 22.804688 16.875 L 22.867188 16.75 C 22.867188 16.75 22.742188 16.628906 22.867188 16.378906 C 22.988281 16.164062 22.867188 16.378906 23.082031 16.226562 C 23.300781 16.070312 23.082031 16.226562 23.332031 16.257812 C 23.578125 16.289062 23.515625 16.257812 23.515625 16.257812 C 23.515625 16.257812 23.515625 16.257812 23.484375 16.132812 C 23.453125 16.007812 23.484375 16.039062 23.453125 15.914062 C 23.421875 15.792969 23.453125 15.914062 23.390625 15.886719 C 23.332031 15.855469 23.269531 15.730469 23.300781 15.667969 C 23.332031 15.605469 23.453125 15.636719 23.453125 15.636719 C 23.453125 15.636719 23.765625 15.542969 23.949219 15.390625 C 24.105469 15.234375 23.949219 15.390625 24.042969 15.296875 C 24.136719 15.203125 24.136719 15.140625 24.136719 15.078125 C 24.136719 15.050781 24.414062 14.988281 24.414062 14.988281 C 24.414062 14.988281 24.445312 14.894531 24.445312 14.832031 C 24.445312 14.769531 24.476562 14.648438 24.476562 14.648438 C 24.476562 14.648438 24.570312 14.707031 24.628906 14.738281 C 24.691406 14.769531 24.660156 14.957031 24.660156 14.957031 C 24.660156 14.957031 24.753906 14.988281 24.816406 14.988281 C 24.878906 14.988281 24.941406 15.050781 25.03125 15.050781 C 25.125 15.050781 25.15625 15.078125 25.3125 15.078125 C 25.4375 15.078125 25.527344 14.988281 25.527344 14.988281 C 25.527344 14.988281 25.558594 14.832031 25.589844 14.707031 C 25.621094 14.585938 25.621094 14.585938 25.652344 14.492188 C 25.683594 14.398438 25.808594 14.335938 25.777344 14.242188 C 25.746094 14.152344 25.652344 14.121094 25.652344 13.933594 C 25.621094 13.75 25.652344 13.933594 25.777344 13.871094 C 25.898438 13.8125 25.777344 13.75 25.777344 13.75 C 25.777344 13.75 25.777344 13.75 25.714844 13.75 C 25.652344 13.75 25.4375 13.839844 25.40625 13.871094 C 25.34375 13.902344 25.21875 14.089844 25.21875 14.089844 C 25.21875 14.089844 25.3125 14.152344 25.4375 14.214844 C 25.558594 14.273438 25.40625 14.367188 25.375 14.429688 C 25.3125 14.492188 25.25 14.492188 25.21875 14.554688 C 25.1875 14.617188 25.15625 14.675781 25.09375 14.738281 C 25.03125 14.800781 24.972656 14.769531 24.910156 14.675781 C 24.847656 14.585938 24.910156 14.492188 24.910156 14.398438 C 24.910156 14.304688 24.753906 14.304688 24.691406 14.335938 C 24.628906 14.367188 24.476562 14.460938 24.414062 14.460938 C 24.351562 14.460938 24.257812 14.460938 24.167969 14.398438 C 24.074219 14.335938 24.105469 14.273438 24.167969 14.121094 C 24.226562 13.964844 24.320312 13.996094 24.539062 13.902344 C 24.753906 13.8125 24.628906 13.78125 24.691406 13.65625 C 24.753906 13.53125 24.722656 13.5625 24.847656 13.4375 C 24.972656 13.316406 24.972656 13.316406 25.25 13.253906 C 25.527344 13.191406 25.621094 13.222656 25.652344 13.191406 C 25.714844 13.128906 25.867188 13.128906 25.929688 13.128906 C 25.992188 13.128906 26.148438 13.253906 26.242188 13.316406 C 26.332031 13.378906 26.457031 13.347656 26.828125 13.285156 C 27.199219 13.222656 27.015625 13.40625 27.292969 13.40625 C 27.570312 13.40625 27.789062 13.378906 27.851562 13.347656 C 27.914062 13.316406 28.097656 13.285156 28.316406 13.222656 C 28.53125 13.160156 28.46875 13.191406 28.59375 13.160156 C 28.71875 13.128906 28.71875 13.003906 28.777344 12.882812 C 28.839844 12.757812 29.089844 12.914062 29.273438 13.035156 C 29.398438 13.128906 29.429688 13.097656 29.429688 13.035156 C 27.355469 11.023438 24.507812 9.785156 21.378906 9.785156 C 18.222656 9.785156 15.34375 11.054688 13.238281 13.128906 C 13.394531 13.128906 13.421875 13.191406 13.421875 13.191406 C 13.421875 13.191406 13.824219 13.160156 13.886719 13.128906 C 13.917969 13.097656 13.980469 13.128906 14.105469 13.097656 C 14.199219 13.097656 14.230469 13.128906 14.414062 13.160156 C 14.601562 13.191406 14.507812 13.191406 14.570312 13.191406 C 14.632812 13.191406 14.632812 13.222656 14.722656 13.222656 C 14.816406 13.222656 14.816406 13.253906 14.910156 13.285156 C 14.878906 13.253906 14.941406 13.222656 14.941406 13.191406 C 14.941406 13.128906 14.941406 13.128906 14.972656 13.097656 C 15.003906 13.066406 15.035156 13.035156 15.066406 13.003906 C 15.09375 12.976562 15.066406 12.976562 15.035156 12.914062 C 15.003906 12.851562 14.910156 12.945312 14.878906 12.945312 C 14.847656 12.945312 14.722656 13.003906 14.722656 13.003906 C 14.722656 13.003906 14.632812 12.976562 14.601562 12.945312 C 14.570312 12.914062 14.570312 12.882812 14.539062 12.851562 C 14.507812 12.820312 14.570312 12.851562 14.660156 12.820312 C 14.753906 12.789062 14.753906 12.757812 14.785156 12.726562 C 14.816406 12.695312 14.816406 12.695312 14.910156 12.632812 C 15.003906 12.574219 14.972656 12.601562 15.066406 12.601562 C 15.15625 12.601562 15.125 12.632812 15.21875 12.632812 C 15.3125 12.632812 15.34375 12.695312 15.375 12.695312 C 15.46875 12.664062 15.527344 12.789062 15.558594 12.789062 C 15.589844 12.789062 15.589844 12.820312 15.652344 12.820312 C 15.714844 12.820312 15.746094 12.820312 15.808594 12.820312 C 15.871094 12.820312 15.960938 12.789062 15.992188 12.757812 C 16.023438 12.726562 16.179688 12.726562 16.179688 12.726562 C 16.179688 12.726562 16.117188 12.820312 16.117188 12.820312 C 16.117188 12.820312 16.054688 12.914062 16.054688 12.976562 C 16.054688 13.003906 16.085938 13.035156 16.117188 13.097656 C 16.148438 13.160156 16.085938 13.160156 16.054688 13.160156 C 16.023438 13.160156 16.023438 13.222656 16.023438 13.253906 C 16.023438 13.285156 15.960938 13.253906 15.929688 13.253906 C 15.898438 13.253906 15.871094 13.253906 15.808594 13.253906 C 15.746094 13.253906 15.808594 13.316406 15.808594 13.347656 C 15.839844 13.347656 15.871094 13.347656 15.898438 13.347656 C 16.054688 13.347656 16.054688 13.378906 16.210938 13.378906 C 16.363281 13.378906 16.332031 13.347656 16.519531 13.285156 C 16.707031 13.222656 16.519531 13.253906 16.550781 13.222656 C 16.582031 13.191406 16.550781 13.191406 16.582031 13.128906 C 16.613281 13.066406 16.550781 13.066406 16.550781 13.035156 C 16.550781 13.003906 16.613281 12.976562 16.644531 12.976562 C 16.675781 12.976562 16.734375 12.882812 16.828125 12.820312 C 16.921875 12.757812 16.828125 12.820312 16.828125 12.789062 C 16.828125 12.757812 16.796875 12.757812 16.828125 12.695312 C 16.859375 12.664062 16.859375 12.695312 16.984375 12.664062 C 17.109375 12.632812 17.109375 12.574219 17.199219 12.632812 C 17.261719 12.664062 17.292969 12.695312 17.292969 12.726562 C 17.355469 12.695312 17.386719 12.664062 17.417969 12.664062 C 17.480469 12.664062 17.511719 12.695312 17.511719 12.664062 C 17.542969 12.632812 17.632812 12.695312 17.695312 12.695312 C 17.757812 12.695312 17.757812 12.695312 17.820312 12.695312 C 17.851562 12.695312 17.976562 12.664062 18.066406 12.664062 C 18.160156 12.664062 18.160156 12.695312 18.222656 12.726562 C 18.285156 12.757812 18.285156 12.789062 18.285156 12.789062 C 18.285156 12.789062 18.347656 12.851562 18.347656 12.851562 C 18.347656 12.882812 18.40625 12.882812 18.46875 12.914062 C 18.53125 12.945312 18.53125 13.003906 18.53125 13.003906 C 18.53125 13.003906 18.5 13.128906 18.5 13.128906 C 18.5 13.128906 18.65625 13.191406 18.65625 13.191406 C 18.65625 13.191406 18.71875 13.285156 18.75 13.285156 C 18.75 13.285156 18.808594 13.347656 18.808594 13.347656 C 18.808594 13.347656 18.871094 13.4375 18.871094 13.4375 C 18.871094 13.4375 18.839844 13.5 18.839844 13.5 C 18.839844 13.5 18.46875 13.5 18.46875 13.5 C 18.4375 13.5 18.46875 13.8125 18.40625 13.8125 C 18.347656 13.8125 18.378906 13.8125 18.316406 13.78125 C 18.253906 13.75 18.316406 13.933594 18.316406 13.964844 C 18.316406 13.996094 18.285156 14.121094 18.222656 14.121094 C 18.191406 14.089844 18.035156 14.058594 18.003906 14.058594 C 17.945312 14.058594 17.882812 13.964844 17.851562 13.902344 C 17.820312 13.839844 17.726562 13.871094 17.695312 13.871094 C 17.664062 13.871094 17.480469 13.78125 17.511719 13.75 C 17.542969 13.71875 17.542969 13.75 17.664062 13.6875 C 17.789062 13.625 17.914062 13.5625 17.976562 13.5 C 18.035156 13.4375 18.035156 13.40625 18.035156 13.378906 C 18.035156 13.347656 17.976562 13.285156 17.945312 13.222656 C 17.914062 13.160156 17.789062 13.160156 17.757812 13.160156 C 17.726562 13.160156 17.695312 13.160156 17.601562 13.222656 C 17.511719 13.285156 17.542969 13.285156 17.542969 13.285156 C 17.542969 13.285156 17.480469 13.40625 17.480469 13.40625 C 17.480469 13.4375 17.417969 13.46875 17.355469 13.53125 C 17.292969 13.5625 17.292969 13.5625 17.230469 13.59375 C 17.167969 13.625 17.199219 13.6875 17.199219 13.6875 C 17.199219 13.6875 17.230469 13.8125 17.230469 13.839844 C 17.261719 13.902344 17.167969 13.871094 17.140625 13.839844 C 17.109375 13.8125 17.078125 13.8125 17.015625 13.8125 C 16.953125 13.8125 16.953125 13.871094 16.921875 13.871094 C 16.890625 13.871094 16.859375 13.839844 16.859375 13.8125 C 16.859375 13.78125 16.921875 13.75 16.921875 13.71875 C 16.921875 13.6875 16.953125 13.6875 16.984375 13.65625 C 17.015625 13.625 17.046875 13.5625 17.015625 13.53125 C 16.984375 13.5 16.984375 13.5 16.953125 13.46875 C 16.921875 13.4375 16.984375 13.40625 17.046875 13.378906 C 17.109375 13.347656 17.046875 13.378906 17.109375 13.347656 C 17.167969 13.316406 17.199219 13.191406 17.167969 13.160156 C 17.109375 13.128906 17.140625 13.128906 17.140625 13.097656 C 17.140625 13.066406 17.109375 13.066406 17.109375 13.035156 C 17.109375 13.035156 17.109375 13.003906 17.109375 12.976562 C 17.015625 13.003906 16.953125 13.003906 16.921875 13.035156 C 16.921875 13.066406 16.890625 13.191406 16.890625 13.191406 C 16.890625 13.191406 16.765625 13.378906 16.734375 13.46875 C 16.765625 13.5625 16.921875 13.6875 16.921875 13.6875 C 16.921875 13.6875 16.582031 13.8125 16.550781 13.8125 C 16.519531 13.8125 16.179688 13.964844 15.992188 14.027344 C 15.777344 14.089844 15.746094 14.304688 15.683594 14.367188 C 15.621094 14.429688 15.960938 14.800781 16.117188 14.832031 C 16.273438 14.863281 16.582031 15.050781 16.613281 14.988281 C 16.675781 14.925781 16.859375 14.832031 16.921875 14.800781 C 17.015625 14.769531 17.078125 14.460938 17.199219 14.273438 C 17.324219 14.089844 17.324219 14.089844 17.417969 14.089844 C 17.511719 14.089844 17.511719 13.996094 17.632812 13.996094 C 17.757812 13.996094 17.726562 14.058594 17.726562 14.058594 C 17.726562 14.058594 17.789062 14.214844 17.882812 14.398438 C 17.976562 14.585938 17.976562 14.429688 18.097656 14.335938 C 18.253906 14.242188 18.222656 14.214844 18.378906 14.183594 C 18.53125 14.152344 18.46875 14.648438 18.46875 14.648438 C 18.46875 14.648438 18.5 14.894531 18.5625 15.109375 C 18.59375 15.328125 18.46875 15.296875 18.4375 15.359375 C 18.40625 15.390625 18.5 15.542969 18.5625 15.605469 C 18.59375 15.636719 18.625 15.855469 18.625 15.886719 C 18.625 15.914062 18.5 15.976562 18.40625 15.945312 C 18.285156 15.914062 18.253906 15.886719 18.253906 15.792969 C 18.253906 15.699219 18.097656 15.574219 18.035156 15.542969 C 17.976562 15.511719 17.820312 15.542969 17.757812 15.605469 C 17.695312 15.667969 17.664062 15.886719 17.757812 15.945312 C 17.851562 16.007812 17.851562 16.132812 17.851562 16.132812 C 17.851562 16.132812 17.542969 16.226562 17.449219 16.226562 C 17.324219 16.226562 17.230469 16.289062 17.167969 16.347656 C 17.109375 16.410156 17.046875 16.566406 16.984375 16.628906 C 16.921875 16.691406 16.675781 16.75 16.644531 16.75 C 16.613281 16.75 16.304688 17.125 16.304688 17.152344 C 16.304688 17.214844 16.242188 17.433594 16.242188 17.433594 C 16.242188 17.433594 15.898438 17.585938 15.808594 17.648438 C 15.714844 17.710938 15.621094 17.929688 15.589844 17.960938 C 15.558594 17.960938 15.46875 18.207031 15.46875 18.238281 C 15.46875 18.269531 15.46875 18.515625 15.46875 18.640625 C 15.46875 18.765625 15.34375 18.671875 15.28125 18.578125 C 15.21875 18.484375 15.28125 18.421875 15.28125 18.332031 C 15.28125 18.238281 15.21875 18.207031 15.125 18.144531 C 15.035156 18.082031 14.785156 18.175781 14.691406 18.144531 C 14.601562 18.113281 14.507812 18.144531 14.351562 18.144531 C 14.199219 18.144531 14.042969 18.207031 13.949219 18.238281 C 13.855469 18.238281 13.640625 18.515625 13.609375 18.609375 C 13.578125 18.734375 13.515625 18.949219 13.515625 18.949219 C 13.515625 18.949219 13.609375 19.320312 13.671875 19.382812 C 13.703125 19.445312 13.824219 19.476562 13.949219 19.445312 C 14.074219 19.445312 14.105469 19.414062 14.199219 19.382812 C 14.289062 19.351562 14.351562 19.226562 14.445312 19.226562 C 14.539062 19.226562 14.507812 19.257812 14.570312 19.257812 C 14.632812 19.257812 14.476562 19.601562 14.445312 19.632812 C 14.414062 19.660156 14.382812 19.816406 14.414062 19.816406 C 14.445312 19.816406 14.539062 19.816406 14.601562 19.816406 C 14.691406 19.816406 14.816406 19.910156 14.878906 19.941406 C 14.941406 19.972656 14.847656 20.1875 14.847656 20.21875 C 14.847656 20.25 14.878906 20.375 14.972656 20.4375 C 15.066406 20.464844 15.15625 20.652344 15.15625 20.652344 C 15.15625 20.652344 14.910156 20.746094 14.847656 20.652344 C 14.816406 20.558594 14.691406 20.496094 14.660156 20.40625 C 14.601562 20.28125 14.539062 20.375 14.476562 20.3125 C 14.382812 20.25 14.105469 20.09375 14.105469 20.09375 C 14.105469 20.09375 13.980469 19.972656 13.886719 19.941406 C 13.796875 19.910156 13.703125 19.941406 13.703125 19.941406 C 13.703125 19.941406 13.363281 19.941406 13.269531 19.878906 C 13.175781 19.816406 13.082031 19.785156 12.960938 19.691406 C 12.835938 19.601562 12.742188 19.539062 12.742188 19.382812 C 12.742188 19.226562 12.742188 19.136719 12.742188 19.136719 C 12.742188 19.136719 12.679688 19.074219 12.648438 19.011719 C 12.617188 18.949219 12.585938 18.886719 12.558594 18.855469 C 12.558594 18.824219 12.496094 18.734375 12.433594 18.671875 C 12.371094 18.609375 12.371094 18.546875 12.371094 18.546875 C 12.371094 18.546875 12.15625 18.332031 12.125 18.332031 C 12.09375 18.332031 12.09375 18.390625 12.09375 18.390625 C 12.09375 18.390625 12.09375 18.546875 12.09375 18.609375 C 12.09375 18.640625 12.125 18.796875 12.15625 18.824219 C 12.183594 18.855469 12.246094 19.011719 12.214844 19.042969 C 12.183594 19.074219 12.125 19.105469 12.0625 19.042969 C 12 18.980469 11.9375 18.917969 11.84375 18.765625 C 11.722656 18.609375 11.78125 18.609375 11.78125 18.300781 C 11.78125 17.988281 11.75 17.988281 11.75 17.867188 C 11.75 17.742188 11.691406 17.710938 11.597656 17.558594 C 11.503906 17.402344 11.503906 17.183594 11.503906 17.03125 C 11.535156 16.875 11.78125 16.566406 11.84375 16.472656 C 11.90625 16.378906 11.96875 16.289062 11.96875 16.226562 C 11.96875 16.195312 11.96875 15.730469 12.03125 15.574219 C 12.09375 15.421875 12.0625 15.453125 12.125 15.328125 C 12.183594 15.203125 12.09375 15.109375 12.09375 15.109375 C 12.09375 15.109375 11.84375 15.203125 11.78125 15.171875 C 11.722656 15.140625 11.78125 15.050781 11.84375 14.894531 C 11.875 14.832031 11.90625 14.800781 11.875 14.738281 C 10.574219 16.660156 9.800781 18.949219 9.800781 21.425781 C 9.800781 27.835938 15.003906 33.035156 21.410156 33.035156 C 27.820312 33.035156 33.019531 27.835938 33.019531 21.425781 C 33.019531 20.683594 32.957031 19.941406 32.804688 19.226562 Z M 23.207031 14.738281 C 23.207031 14.707031 23.175781 14.707031 23.175781 14.707031 C 23.175781 14.707031 23.082031 14.648438 23.113281 14.648438 C 23.113281 14.648438 23.175781 14.617188 23.175781 14.617188 C 23.175781 14.617188 23.238281 14.617188 23.238281 14.617188 C 23.238281 14.617188 23.300781 14.585938 23.300781 14.585938 C 23.300781 14.585938 23.390625 14.492188 23.390625 14.523438 C 23.390625 14.523438 23.515625 14.492188 23.515625 14.523438 C 23.515625 14.585938 23.484375 14.585938 23.484375 14.617188 C 23.484375 14.648438 23.484375 14.617188 23.546875 14.617188 C 23.609375 14.617188 23.578125 14.617188 23.578125 14.648438 C 23.578125 14.675781 23.515625 14.707031 23.515625 14.707031 C 23.484375 14.707031 23.546875 14.800781 23.546875 14.800781 L 23.578125 14.925781 C 23.578125 14.925781 23.609375 14.957031 23.640625 14.988281 C 23.671875 15.019531 23.765625 15.078125 23.765625 15.109375 C 23.765625 15.140625 23.824219 15.171875 23.855469 15.171875 C 23.886719 15.171875 23.917969 15.234375 23.917969 15.265625 C 23.917969 15.296875 23.886719 15.328125 23.855469 15.328125 C 23.824219 15.328125 23.792969 15.390625 23.765625 15.421875 C 23.734375 15.453125 23.703125 15.453125 23.703125 15.453125 C 23.671875 15.453125 23.671875 15.484375 23.640625 15.484375 C 23.609375 15.484375 23.546875 15.484375 23.515625 15.484375 C 23.453125 15.484375 23.515625 15.484375 23.484375 15.484375 C 23.453125 15.484375 23.421875 15.511719 23.421875 15.511719 C 23.421875 15.511719 23.363281 15.574219 23.332031 15.574219 C 23.300781 15.574219 23.238281 15.605469 23.269531 15.574219 C 23.300781 15.542969 23.332031 15.542969 23.363281 15.484375 C 23.390625 15.421875 23.421875 15.453125 23.421875 15.421875 C 23.421875 15.421875 23.421875 15.390625 23.390625 15.359375 C 23.363281 15.328125 23.332031 15.359375 23.332031 15.359375 C 23.332031 15.359375 23.269531 15.328125 23.300781 15.296875 C 23.332031 15.265625 23.300781 15.296875 23.363281 15.296875 C 23.421875 15.296875 23.363281 15.296875 23.363281 15.265625 C 23.363281 15.234375 23.332031 15.234375 23.363281 15.171875 C 23.390625 15.140625 23.363281 15.171875 23.390625 15.171875 C 23.421875 15.171875 23.453125 15.140625 23.453125 15.109375 C 23.453125 15.078125 23.453125 15.078125 23.453125 15.050781 C 23.453125 15.019531 23.453125 15.019531 23.421875 14.957031 C 23.390625 14.894531 23.421875 14.957031 23.390625 14.925781 C 23.363281 14.894531 23.332031 14.925781 23.300781 14.925781 C 23.269531 14.925781 23.269531 14.957031 23.269531 14.957031 C 23.269531 14.957031 23.238281 14.988281 23.238281 15.019531 C 23.238281 15.050781 23.207031 15.050781 23.207031 15.078125 C 23.207031 15.109375 23.175781 15.140625 23.175781 15.140625 C 23.175781 15.140625 23.175781 15.203125 23.175781 15.234375 C 23.175781 15.265625 23.144531 15.296875 23.144531 15.296875 C 23.144531 15.296875 23.082031 15.328125 23.050781 15.328125 C 23.019531 15.328125 22.988281 15.359375 22.957031 15.359375 C 22.929688 15.359375 22.898438 15.390625 22.898438 15.390625 C 22.898438 15.390625 22.835938 15.421875 22.804688 15.390625 C 22.773438 15.359375 22.773438 15.359375 22.773438 15.328125 C 22.773438 15.296875 22.773438 15.296875 22.835938 15.265625 C 22.898438 15.234375 22.867188 15.203125 22.867188 15.203125 C 22.867188 15.203125 22.835938 15.171875 22.835938 15.140625 C 22.835938 15.109375 22.867188 15.078125 22.898438 15.050781 C 22.929688 15.019531 22.957031 15.050781 22.988281 15.050781 C 23.019531 15.050781 22.988281 15.050781 22.988281 15.019531 C 22.988281 14.988281 22.988281 14.988281 22.988281 14.988281 C 22.988281 14.988281 22.988281 14.957031 23.019531 14.925781 C 23.050781 14.894531 23.082031 14.925781 23.082031 14.925781 L 23.207031 14.894531 C 23.207031 14.894531 23.207031 14.863281 23.238281 14.832031 C 23.238281 14.800781 23.238281 14.832031 23.238281 14.800781 C 23.238281 14.769531 23.207031 14.769531 23.207031 14.738281 Z M 17.355469 12.292969 C 17.355469 12.292969 17.386719 12.261719 17.355469 12.292969 C 17.386719 12.261719 17.386719 12.261719 17.386719 12.230469 C 17.417969 12.199219 17.449219 12.230469 17.480469 12.261719 C 17.542969 12.292969 17.480469 12.324219 17.480469 12.386719 C 17.480469 12.449219 17.449219 12.386719 17.417969 12.386719 C 17.386719 12.386719 17.355469 12.386719 17.324219 12.386719 C 17.292969 12.386719 17.261719 12.355469 17.261719 12.355469 C 17.261719 12.355469 17.324219 12.292969 17.355469 12.292969 Z M 16.984375 12.230469 C 17.015625 12.199219 17.078125 12.199219 17.167969 12.230469 C 17.167969 12.230469 17.199219 12.292969 17.199219 12.292969 C 17.199219 12.292969 17.167969 12.355469 17.167969 12.355469 C 17.167969 12.355469 17.140625 12.355469 17.109375 12.355469 C 17.078125 12.355469 17.015625 12.355469 16.984375 12.324219 C 16.953125 12.292969 16.921875 12.230469 16.984375 12.230469 Z M 16.179688 12.664062 C 16.117188 12.664062 16.054688 12.664062 15.992188 12.695312 C 15.929688 12.726562 15.808594 12.726562 15.746094 12.726562 C 15.683594 12.726562 15.652344 12.695312 15.652344 12.695312 C 15.652344 12.695312 15.527344 12.632812 15.527344 12.632812 C 15.527344 12.632812 15.40625 12.601562 15.375 12.601562 C 15.3125 12.601562 15.3125 12.574219 15.3125 12.542969 C 15.3125 12.511719 15.375 12.542969 15.4375 12.511719 C 15.496094 12.511719 15.496094 12.511719 15.527344 12.480469 C 15.558594 12.449219 15.621094 12.449219 15.683594 12.386719 C 15.746094 12.324219 15.714844 12.386719 15.777344 12.355469 C 15.839844 12.324219 15.898438 12.355469 15.929688 12.355469 C 15.992188 12.355469 15.960938 12.355469 15.992188 12.386719 C 16.023438 12.417969 15.992188 12.449219 15.992188 12.449219 C 15.992188 12.449219 15.992188 12.480469 16.117188 12.511719 C 16.117188 12.511719 16.210938 12.511719 16.273438 12.480469 C 16.332031 12.449219 16.304688 12.449219 16.363281 12.417969 C 16.425781 12.386719 16.457031 12.480469 16.488281 12.511719 C 16.488281 12.542969 16.488281 12.574219 16.457031 12.574219 C 16.457031 12.574219 16.394531 12.601562 16.363281 12.632812 C 16.273438 12.664062 16.210938 12.664062 16.179688 12.664062 Z M 16.734375 12.914062 C 16.734375 12.945312 16.644531 12.976562 16.644531 12.976562 C 16.644531 12.976562 16.332031 13.003906 16.332031 12.976562 C 16.304688 12.945312 16.332031 12.882812 16.332031 12.851562 C 16.332031 12.820312 16.363281 12.851562 16.425781 12.851562 C 16.488281 12.851562 16.425781 12.820312 16.425781 12.789062 C 16.425781 12.757812 16.582031 12.757812 16.734375 12.757812 C 16.828125 12.757812 16.734375 12.914062 16.734375 12.914062 Z M 17.167969 12.664062 C 17.140625 12.664062 17.109375 12.664062 17.046875 12.632812 C 16.984375 12.632812 16.984375 12.601562 16.953125 12.601562 C 16.921875 12.601562 16.890625 12.664062 16.859375 12.664062 C 16.828125 12.664062 16.765625 12.664062 16.734375 12.664062 C 16.707031 12.664062 16.675781 12.632812 16.644531 12.601562 C 16.613281 12.574219 16.582031 12.511719 16.582031 12.480469 C 16.582031 12.449219 16.613281 12.480469 16.644531 12.480469 C 16.675781 12.480469 16.707031 12.480469 16.765625 12.449219 C 16.828125 12.449219 16.828125 12.449219 16.890625 12.449219 C 16.890625 12.449219 16.921875 12.449219 16.953125 12.417969 C 16.984375 12.386719 17.015625 12.417969 17.046875 12.417969 C 17.078125 12.417969 17.078125 12.449219 17.078125 12.511719 C 17.078125 12.574219 17.078125 12.511719 17.167969 12.511719 C 17.261719 12.511719 17.230469 12.542969 17.261719 12.601562 C 17.261719 12.664062 17.199219 12.664062 17.167969 12.664062 Z M 18.160156 12.664062 C 18.128906 12.664062 18.097656 12.695312 18.066406 12.695312 C 18.035156 12.695312 17.976562 12.726562 17.945312 12.726562 C 17.914062 12.726562 17.789062 12.726562 17.757812 12.726562 C 17.726562 12.726562 17.664062 12.695312 17.601562 12.695312 C 17.542969 12.695312 17.511719 12.695312 17.480469 12.664062 C 17.449219 12.664062 17.355469 12.664062 17.324219 12.632812 C 17.292969 12.601562 17.324219 12.601562 17.355469 12.574219 C 17.386719 12.542969 17.355469 12.574219 17.386719 12.542969 C 17.417969 12.511719 17.386719 12.511719 17.355469 12.511719 C 17.324219 12.511719 17.230469 12.480469 17.230469 12.480469 C 17.230469 12.480469 17.230469 12.449219 17.292969 12.449219 C 17.355469 12.449219 17.417969 12.480469 17.449219 12.480469 C 17.480469 12.511719 17.480469 12.511719 17.511719 12.511719 C 17.542969 12.542969 17.542969 12.542969 17.570312 12.542969 C 17.601562 12.542969 17.664062 12.542969 17.695312 12.542969 C 17.757812 12.542969 17.757812 12.542969 17.820312 12.542969 C 17.882812 12.542969 17.914062 12.542969 18.035156 12.542969 C 18.160156 12.542969 18.160156 12.574219 18.191406 12.601562 C 18.253906 12.632812 18.191406 12.664062 18.160156 12.664062 Z M 19.554688 23.003906 L 19.398438 23.347656 C 19.398438 23.347656 19.398438 23.46875 19.398438 23.75 C 19.398438 24.027344 19.335938 24.027344 19.304688 24.242188 C 19.273438 24.492188 18.996094 24.523438 18.996094 24.523438 C 18.996094 24.523438 18.808594 24.644531 18.71875 24.675781 C 18.625 24.707031 18.71875 24.738281 18.71875 24.738281 C 18.71875 24.738281 18.625 24.925781 18.59375 24.988281 C 18.5625 25.046875 18.59375 25.109375 18.59375 25.109375 C 18.59375 25.109375 18.5 25.390625 18.46875 25.449219 C 18.4375 25.511719 18.316406 25.761719 18.316406 25.761719 L 18.097656 25.855469 C 18.097656 25.855469 18.035156 26.039062 17.945312 26.101562 C 17.882812 26.164062 17.945312 26.316406 17.945312 26.316406 L 17.820312 26.347656 C 17.820312 26.347656 17.664062 26.503906 17.601562 26.535156 C 17.542969 26.566406 17.480469 26.628906 17.480469 26.628906 C 17.480469 26.628906 17.480469 26.9375 17.480469 27.03125 C 17.480469 27.121094 17.449219 27.464844 17.449219 27.523438 C 17.449219 27.585938 17.511719 27.710938 17.511719 27.710938 C 17.511719 27.710938 17.789062 28.050781 17.820312 28.144531 C 17.882812 28.238281 17.386719 28.207031 17.292969 28.144531 C 17.199219 28.082031 17.140625 28.019531 17.015625 27.898438 C 16.890625 27.773438 16.519531 27.152344 16.457031 27 C 16.425781 26.84375 16.488281 26.660156 16.457031 26.628906 C 16.425781 26.597656 16.457031 26.347656 16.457031 26.257812 C 16.457031 26.164062 16.304688 25.976562 16.242188 25.730469 C 16.179688 25.449219 16.304688 25.542969 16.242188 25.359375 C 16.179688 25.203125 16.273438 25.171875 16.210938 25.046875 C 16.148438 24.925781 16.304688 24.429688 16.210938 24.210938 C 16.117188 23.996094 16.242188 24.089844 16.210938 24.027344 C 16.179688 23.964844 16.085938 23.839844 16.054688 23.78125 C 16.023438 23.71875 15.808594 23.625 15.746094 23.53125 C 15.683594 23.46875 15.621094 23.40625 15.558594 23.347656 C 15.496094 23.285156 15.28125 23.222656 15.15625 23.066406 C 15.035156 22.914062 15.09375 22.820312 15.1875 22.570312 C 15.28125 22.324219 15.125 22.480469 15.035156 22.292969 C 14.910156 22.109375 14.972656 22.167969 15.035156 22.015625 C 15.09375 21.859375 15.125 21.796875 15.1875 21.675781 C 15.25 21.550781 15.1875 21.675781 15.3125 21.550781 C 15.4375 21.425781 15.3125 21.425781 15.3125 21.394531 C 15.3125 21.332031 15.3125 21.242188 15.375 21.054688 C 15.4375 20.898438 15.34375 20.898438 15.375 20.808594 C 15.40625 20.714844 15.40625 20.746094 15.496094 20.621094 C 15.589844 20.496094 15.496094 20.621094 15.558594 20.496094 C 15.621094 20.375 15.558594 20.496094 15.683594 20.4375 C 15.808594 20.375 15.683594 20.375 15.683594 20.375 C 15.808594 20.25 15.839844 20.3125 16.242188 20.21875 C 16.644531 20.125 16.394531 20.21875 16.519531 20.21875 C 16.644531 20.21875 16.675781 20.28125 16.921875 20.375 C 17.167969 20.464844 17.078125 20.464844 17.078125 20.464844 C 17.078125 20.464844 17.199219 20.621094 17.324219 20.714844 C 17.449219 20.808594 17.480469 20.777344 17.664062 20.898438 C 17.882812 21.023438 17.664062 20.898438 17.820312 20.992188 C 17.976562 21.085938 18.097656 21.273438 18.128906 21.363281 C 18.191406 21.457031 18.40625 21.613281 18.5 21.675781 C 18.59375 21.734375 18.71875 21.828125 18.871094 21.796875 C 19.027344 21.734375 19.027344 21.890625 19.183594 21.953125 C 19.335938 22.015625 19.273438 22.015625 19.429688 22.078125 C 19.585938 22.136719 19.492188 22.167969 19.644531 22.292969 C 19.832031 22.449219 19.554688 23.003906 19.554688 23.003906 Z M 21.164062 13.625 C 20.945312 13.71875 20.976562 13.6875 20.914062 13.71875 C 20.855469 13.75 20.605469 13.839844 20.511719 13.871094 C 20.390625 13.902344 20.359375 14.027344 20.359375 14.089844 C 20.359375 14.152344 20.171875 14.335938 20.109375 14.273438 C 20.050781 14.214844 19.832031 14.304688 19.769531 14.273438 C 19.707031 14.242188 19.675781 14.089844 19.554688 13.933594 C 19.429688 13.78125 19.523438 13.78125 19.554688 13.625 C 19.585938 13.46875 19.617188 13.40625 19.644531 13.285156 C 19.675781 13.160156 19.707031 13.160156 19.800781 13.066406 C 19.894531 12.945312 19.863281 12.945312 19.863281 12.851562 C 19.863281 12.757812 19.707031 12.726562 19.644531 12.695312 C 19.585938 12.664062 19.273438 12.632812 19.121094 12.511719 C 18.964844 12.386719 19.027344 12.386719 19.027344 12.386719 C 19.027344 12.386719 19.121094 12.355469 19.242188 12.292969 C 19.089844 12.230469 19.152344 12.292969 19.027344 12.230469 C 18.902344 12.167969 18.808594 12.355469 18.65625 12.386719 C 18.53125 12.449219 18.5 12.480469 18.4375 12.542969 C 18.378906 12.601562 18.316406 12.542969 18.316406 12.542969 C 18.316406 12.542969 18.222656 12.542969 18.160156 12.542969 C 18.097656 12.542969 17.726562 12.542969 17.542969 12.480469 C 17.355469 12.417969 17.632812 12.449219 17.664062 12.386719 C 17.695312 12.324219 17.851562 12.386719 18.035156 12.386719 C 18.222656 12.386719 18.097656 12.355469 18.035156 12.324219 C 17.976562 12.292969 17.851562 12.324219 17.726562 12.230469 C 17.601562 12.140625 17.632812 12.199219 17.726562 12.140625 C 17.820312 12.078125 17.945312 12.109375 18.066406 12.046875 C 18.191406 12.015625 18.222656 12.046875 18.40625 12.046875 C 18.59375 12.046875 18.53125 11.984375 18.625 11.953125 C 18.71875 11.921875 18.78125 11.953125 18.933594 11.953125 C 19.089844 11.953125 19.089844 11.953125 19.152344 11.953125 C 19.214844 11.953125 19.304688 11.953125 19.429688 11.953125 C 19.554688 11.953125 19.585938 11.921875 19.738281 11.859375 C 19.894531 11.796875 19.863281 11.890625 19.988281 11.984375 C 20.019531 11.984375 20.078125 11.984375 20.140625 11.953125 C 20.421875 11.921875 20.453125 11.984375 20.605469 12.015625 C 20.761719 12.046875 20.882812 11.984375 21.007812 11.890625 C 21.101562 11.796875 21.257812 11.859375 21.628906 11.890625 C 21.660156 11.890625 21.691406 11.890625 21.71875 11.890625 C 21.8125 11.890625 22.585938 11.890625 22.710938 11.859375 C 22.835938 11.828125 22.898438 11.859375 23.019531 11.859375 C 23.144531 11.859375 23.050781 12.078125 22.929688 12.078125 C 22.804688 12.078125 22.710938 12.167969 22.648438 12.292969 C 22.585938 12.417969 22.496094 12.511719 22.371094 12.574219 C 22.246094 12.632812 22.214844 12.820312 22.183594 12.882812 C 22.152344 12.945312 22.09375 13.160156 22.03125 13.191406 C 21.96875 13.222656 21.78125 13.285156 21.691406 13.316406 C 21.566406 13.378906 21.347656 13.53125 21.164062 13.625 Z M 21.164062 13.625 " fill-opacity="1" fill-rule="nonzero"/></g></svg>