<svg xmlns="http://www.w3.org/2000/svg" xmlns:xlink="http://www.w3.org/1999/xlink" width="57" zoomAndPan="magnify" viewBox="0 0 42.75 42.749999" height="57" preserveAspectRatio="xMidYMid meet" version="1.0"><defs><clipPath id="240d2bb79a"><path d="M 4.273438 4.273438 L 38.773438 4.273438 L 38.773438 38.773438 L 4.273438 38.773438 Z M 4.273438 4.273438 " clip-rule="nonzero"/></clipPath><clipPath id="d703a99cc1"><path d="M 15 8.925781 L 27 8.925781 L 27 26 L 15 26 Z M 15 8.925781 " clip-rule="nonzero"/></clipPath><clipPath id="18e0838e67"><path d="M 10.425781 22 L 32.175781 22 L 32.175781 30.675781 L 10.425781 30.675781 Z M 10.425781 22 " clip-rule="nonzero"/></clipPath></defs><g clip-path="url(#240d2bb79a)"><path fill="#edf9f6" d="M 38.773438 21.523438 C 38.773438 22.089844 38.746094 22.652344 38.691406 23.214844 C 38.636719 23.777344 38.554688 24.335938 38.441406 24.890625 C 38.332031 25.445312 38.195312 25.992188 38.03125 26.53125 C 37.867188 27.074219 37.675781 27.605469 37.460938 28.125 C 37.246094 28.648438 37.003906 29.15625 36.738281 29.65625 C 36.472656 30.15625 36.179688 30.636719 35.867188 31.109375 C 35.554688 31.578125 35.21875 32.03125 34.859375 32.46875 C 34.5 32.90625 34.121094 33.324219 33.722656 33.722656 C 33.324219 34.121094 32.90625 34.5 32.46875 34.859375 C 32.03125 35.21875 31.578125 35.554688 31.109375 35.867188 C 30.636719 36.179688 30.15625 36.472656 29.65625 36.738281 C 29.15625 37.003906 28.648438 37.246094 28.125 37.460938 C 27.605469 37.675781 27.074219 37.867188 26.53125 38.03125 C 25.992188 38.195312 25.445312 38.332031 24.890625 38.441406 C 24.335938 38.554688 23.777344 38.636719 23.214844 38.691406 C 22.652344 38.746094 22.089844 38.773438 21.523438 38.773438 C 20.960938 38.773438 20.394531 38.746094 19.832031 38.691406 C 19.273438 38.636719 18.714844 38.554688 18.160156 38.441406 C 17.605469 38.332031 17.058594 38.195312 16.515625 38.03125 C 15.976562 37.867188 15.445312 37.675781 14.921875 37.460938 C 14.402344 37.246094 13.890625 37.003906 13.394531 36.738281 C 12.894531 36.472656 12.410156 36.179688 11.941406 35.867188 C 11.472656 35.554688 11.019531 35.21875 10.582031 34.859375 C 10.144531 34.5 9.726562 34.121094 9.328125 33.722656 C 8.929688 33.324219 8.550781 32.90625 8.191406 32.46875 C 7.832031 32.03125 7.496094 31.578125 7.183594 31.109375 C 6.867188 30.636719 6.578125 30.15625 6.3125 29.65625 C 6.046875 29.15625 5.804688 28.648438 5.589844 28.125 C 5.371094 27.605469 5.183594 27.074219 5.019531 26.53125 C 4.855469 25.992188 4.714844 25.445312 4.605469 24.890625 C 4.496094 24.335938 4.414062 23.777344 4.359375 23.214844 C 4.300781 22.652344 4.273438 22.089844 4.273438 21.523438 C 4.273438 20.960938 4.300781 20.394531 4.359375 19.832031 C 4.414062 19.273438 4.496094 18.714844 4.605469 18.160156 C 4.714844 17.605469 4.855469 17.058594 5.019531 16.515625 C 5.183594 15.976562 5.371094 15.445312 5.589844 14.921875 C 5.804688 14.402344 6.046875 13.890625 6.3125 13.394531 C 6.578125 12.894531 6.867188 12.410156 7.183594 11.941406 C 7.496094 11.472656 7.832031 11.019531 8.191406 10.582031 C 8.550781 10.144531 8.929688 9.726562 9.328125 9.328125 C 9.726562 8.929688 10.144531 8.550781 10.582031 8.191406 C 11.019531 7.832031 11.472656 7.496094 11.941406 7.183594 C 12.410156 6.867188 12.894531 6.578125 13.394531 6.3125 C 13.890625 6.046875 14.402344 5.804688 14.921875 5.589844 C 15.445312 5.371094 15.976562 5.183594 16.515625 5.019531 C 17.058594 4.855469 17.605469 4.714844 18.160156 4.605469 C 18.714844 4.496094 19.273438 4.414062 19.832031 4.359375 C 20.394531 4.300781 20.960938 4.273438 21.523438 4.273438 C 22.089844 4.273438 22.652344 4.300781 23.214844 4.359375 C 23.777344 4.414062 24.335938 4.496094 24.890625 4.605469 C 25.445312 4.714844 25.992188 4.855469 26.53125 5.019531 C 27.074219 5.183594 27.605469 5.371094 28.125 5.589844 C 28.648438 5.804688 29.15625 6.046875 29.65625 6.3125 C 30.15625 6.578125 30.636719 6.867188 31.109375 7.183594 C 31.578125 7.496094 32.03125 7.832031 32.46875 8.191406 C 32.90625 8.550781 33.324219 8.929688 33.722656 9.328125 C 34.121094 9.726562 34.5 10.144531 34.859375 10.582031 C 35.21875 11.019531 35.554688 11.472656 35.867188 11.941406 C 36.179688 12.410156 36.472656 12.894531 36.738281 13.394531 C 37.003906 13.890625 37.246094 14.402344 37.460938 14.921875 C 37.675781 15.445312 37.867188 15.976562 38.03125 16.515625 C 38.195312 17.058594 38.332031 17.605469 38.441406 18.160156 C 38.554688 18.714844 38.636719 19.273438 38.691406 19.832031 C 38.746094 20.394531 38.773438 20.960938 38.773438 21.523438 Z M 38.773438 21.523438 " fill-opacity="1" fill-rule="nonzero"/></g><g clip-path="url(#d703a99cc1)"><path fill="#00c485" d="M 22.257812 22.417969 L 22.257812 9.882812 C 22.257812 9.628906 22.160156 9.382812 21.976562 9.203125 C 21.796875 9.027344 21.550781 8.925781 21.300781 8.925781 C 21.046875 8.925781 20.800781 9.027344 20.621094 9.203125 C 20.4375 9.382812 20.339844 9.628906 20.339844 9.882812 L 20.339844 22.417969 C 20.339844 22.417969 18.511719 20.589844 17.492188 19.570312 C 17.3125 19.390625 17.066406 19.292969 16.8125 19.292969 C 16.558594 19.292969 16.316406 19.390625 16.136719 19.570312 C 15.761719 19.945312 15.761719 20.550781 16.136719 20.921875 L 20.65625 25.445312 C 20.828125 25.613281 21.054688 25.707031 21.300781 25.707031 C 21.542969 25.707031 21.769531 25.613281 21.941406 25.445312 L 26.460938 20.921875 C 26.835938 20.550781 26.835938 19.945312 26.460938 19.570312 C 26.28125 19.390625 26.039062 19.292969 25.785156 19.292969 C 25.53125 19.292969 25.285156 19.390625 25.105469 19.570312 C 24.078125 20.589844 22.257812 22.417969 22.257812 22.417969 Z M 22.257812 22.417969 " fill-opacity="1" fill-rule="evenodd"/></g><g clip-path="url(#18e0838e67)"><path fill="#00c485" d="M 10.425781 28.863281 C 10.425781 29.34375 10.617188 29.804688 10.957031 30.140625 C 11.300781 30.480469 11.761719 30.675781 12.238281 30.675781 L 30.363281 30.675781 C 30.84375 30.675781 31.304688 30.480469 31.640625 30.140625 C 31.980469 29.796875 32.175781 29.335938 32.175781 28.863281 L 32.175781 23.378906 C 32.175781 22.847656 31.742188 22.417969 31.214844 22.417969 C 30.960938 22.417969 30.71875 22.523438 30.539062 22.699219 C 30.355469 22.878906 30.257812 23.125 30.257812 23.378906 L 30.257812 27.855469 C 30.257812 28.359375 29.855469 28.761719 29.351562 28.761719 L 13.246094 28.761719 C 12.742188 28.761719 12.339844 28.359375 12.339844 27.855469 L 12.339844 23.378906 C 12.339844 23.125 12.238281 22.878906 12.058594 22.699219 C 11.878906 22.519531 11.636719 22.417969 11.382812 22.417969 C 10.855469 22.417969 10.425781 22.847656 10.425781 23.378906 Z M 10.425781 28.863281 " fill-opacity="1" fill-rule="evenodd"/></g></svg>