<svg xmlns="http://www.w3.org/2000/svg" xmlns:xlink="http://www.w3.org/1999/xlink" width="121" zoomAndPan="magnify" viewBox="0 0 90.75 30.000001" height="40" preserveAspectRatio="xMidYMid meet" version="1.0"><defs><g/><clipPath id="f6eade11c4"><path d="M 82 15 L 89.164062 15 L 89.164062 24 L 82 24 Z M 82 15 " clip-rule="nonzero"/></clipPath><clipPath id="b7ece8e276"><path d="M 2.363281 5.484375 L 19 5.484375 L 19 23.679688 L 2.363281 23.679688 Z M 2.363281 5.484375 " clip-rule="nonzero"/></clipPath></defs><g fill="#00c485" fill-opacity="1"><g transform="translate(26.735079, 8.477892)"><g><path d="M 0.171875 0 L 2.171875 -5.4375 L 3.28125 -5.4375 L 5.265625 0 L 4.21875 0 L 3.78125 -1.265625 L 1.65625 -1.265625 L 1.21875 0 Z M 1.9375 -2.03125 L 3.515625 -2.03125 L 2.71875 -4.296875 Z M 1.9375 -2.03125 "/></g></g></g><g fill="#00c485" fill-opacity="1"><g transform="translate(32.177173, 8.477892)"><g><path d="M 1.546875 0 L 0.125 -3.859375 L 1.171875 -3.859375 L 2.15625 -0.9375 L 3.125 -3.859375 L 4.171875 -3.859375 L 2.75 0 Z M 1.546875 0 "/></g></g></g><g fill="#00c485" fill-opacity="1"><g transform="translate(36.470293, 8.477892)"><g><path d="M 1.828125 0.09375 C 1.492188 0.09375 1.222656 0.0390625 1.015625 -0.0625 C 0.804688 -0.164062 0.648438 -0.304688 0.546875 -0.484375 C 0.441406 -0.660156 0.390625 -0.859375 0.390625 -1.078125 C 0.390625 -1.429688 0.53125 -1.71875 0.8125 -1.9375 C 1.09375 -2.164062 1.507812 -2.28125 2.0625 -2.28125 L 3.046875 -2.28125 L 3.046875 -2.375 C 3.046875 -2.632812 2.96875 -2.828125 2.8125 -2.953125 C 2.664062 -3.078125 2.484375 -3.140625 2.265625 -3.140625 C 2.054688 -3.140625 1.875 -3.085938 1.71875 -2.984375 C 1.570312 -2.890625 1.484375 -2.753906 1.453125 -2.578125 L 0.484375 -2.578125 C 0.503906 -2.847656 0.597656 -3.085938 0.765625 -3.296875 C 0.929688 -3.503906 1.140625 -3.660156 1.390625 -3.765625 C 1.648438 -3.878906 1.941406 -3.9375 2.265625 -3.9375 C 2.816406 -3.9375 3.25 -3.800781 3.5625 -3.53125 C 3.875 -3.257812 4.03125 -2.875 4.03125 -2.375 L 4.03125 0 L 3.1875 0 L 3.09375 -0.625 C 2.976562 -0.414062 2.816406 -0.242188 2.609375 -0.109375 C 2.410156 0.0234375 2.148438 0.09375 1.828125 0.09375 Z M 2.0625 -0.6875 C 2.34375 -0.6875 2.5625 -0.78125 2.71875 -0.96875 C 2.875 -1.15625 2.972656 -1.382812 3.015625 -1.65625 L 2.171875 -1.65625 C 1.910156 -1.65625 1.722656 -1.601562 1.609375 -1.5 C 1.492188 -1.40625 1.4375 -1.289062 1.4375 -1.15625 C 1.4375 -1.007812 1.492188 -0.894531 1.609375 -0.8125 C 1.722656 -0.726562 1.875 -0.6875 2.0625 -0.6875 Z M 2.0625 -0.6875 "/></g></g></g><g fill="#00c485" fill-opacity="1"><g transform="translate(40.949727, 8.477892)"><g><path d="M 1.046875 -4.453125 C 0.859375 -4.453125 0.707031 -4.503906 0.59375 -4.609375 C 0.476562 -4.722656 0.421875 -4.863281 0.421875 -5.03125 C 0.421875 -5.1875 0.476562 -5.316406 0.59375 -5.421875 C 0.707031 -5.535156 0.859375 -5.59375 1.046875 -5.59375 C 1.222656 -5.59375 1.367188 -5.535156 1.484375 -5.421875 C 1.597656 -5.316406 1.65625 -5.1875 1.65625 -5.03125 C 1.65625 -4.863281 1.597656 -4.722656 1.484375 -4.609375 C 1.367188 -4.503906 1.222656 -4.453125 1.046875 -4.453125 Z M 0.546875 0 L 0.546875 -3.859375 L 1.53125 -3.859375 L 1.53125 0 Z M 0.546875 0 "/></g></g></g><g fill="#00c485" fill-opacity="1"><g transform="translate(43.022537, 8.477892)"><g><path d="M 0.5 0 L 0.5 -5.59375 L 1.5 -5.59375 L 1.5 0 Z M 0.5 0 "/></g></g></g><g fill="#00c485" fill-opacity="1"><g transform="translate(45.033235, 8.477892)"><g><path d="M 1.828125 0.09375 C 1.492188 0.09375 1.222656 0.0390625 1.015625 -0.0625 C 0.804688 -0.164062 0.648438 -0.304688 0.546875 -0.484375 C 0.441406 -0.660156 0.390625 -0.859375 0.390625 -1.078125 C 0.390625 -1.429688 0.53125 -1.71875 0.8125 -1.9375 C 1.09375 -2.164062 1.507812 -2.28125 2.0625 -2.28125 L 3.046875 -2.28125 L 3.046875 -2.375 C 3.046875 -2.632812 2.96875 -2.828125 2.8125 -2.953125 C 2.664062 -3.078125 2.484375 -3.140625 2.265625 -3.140625 C 2.054688 -3.140625 1.875 -3.085938 1.71875 -2.984375 C 1.570312 -2.890625 1.484375 -2.753906 1.453125 -2.578125 L 0.484375 -2.578125 C 0.503906 -2.847656 0.597656 -3.085938 0.765625 -3.296875 C 0.929688 -3.503906 1.140625 -3.660156 1.390625 -3.765625 C 1.648438 -3.878906 1.941406 -3.9375 2.265625 -3.9375 C 2.816406 -3.9375 3.25 -3.800781 3.5625 -3.53125 C 3.875 -3.257812 4.03125 -2.875 4.03125 -2.375 L 4.03125 0 L 3.1875 0 L 3.09375 -0.625 C 2.976562 -0.414062 2.816406 -0.242188 2.609375 -0.109375 C 2.410156 0.0234375 2.148438 0.09375 1.828125 0.09375 Z M 2.0625 -0.6875 C 2.34375 -0.6875 2.5625 -0.78125 2.71875 -0.96875 C 2.875 -1.15625 2.972656 -1.382812 3.015625 -1.65625 L 2.171875 -1.65625 C 1.910156 -1.65625 1.722656 -1.601562 1.609375 -1.5 C 1.492188 -1.40625 1.4375 -1.289062 1.4375 -1.15625 C 1.4375 -1.007812 1.492188 -0.894531 1.609375 -0.8125 C 1.722656 -0.726562 1.875 -0.6875 2.0625 -0.6875 Z M 2.0625 -0.6875 "/></g></g></g><g fill="#00c485" fill-opacity="1"><g transform="translate(49.512669, 8.477892)"><g><path d="M 2.78125 0.09375 C 2.5 0.09375 2.25 0.0390625 2.03125 -0.0625 C 1.8125 -0.175781 1.632812 -0.332031 1.5 -0.53125 L 1.390625 0 L 0.5 0 L 0.5 -5.59375 L 1.5 -5.59375 L 1.5 -3.296875 C 1.625 -3.472656 1.785156 -3.625 1.984375 -3.75 C 2.191406 -3.875 2.457031 -3.9375 2.78125 -3.9375 C 3.144531 -3.9375 3.46875 -3.847656 3.75 -3.671875 C 4.039062 -3.503906 4.269531 -3.265625 4.4375 -2.953125 C 4.601562 -2.648438 4.6875 -2.304688 4.6875 -1.921875 C 4.6875 -1.523438 4.601562 -1.175781 4.4375 -0.875 C 4.269531 -0.570312 4.039062 -0.332031 3.75 -0.15625 C 3.46875 0.0078125 3.144531 0.09375 2.78125 0.09375 Z M 2.578125 -0.78125 C 2.890625 -0.78125 3.148438 -0.882812 3.359375 -1.09375 C 3.566406 -1.300781 3.671875 -1.578125 3.671875 -1.921875 C 3.671875 -2.253906 3.566406 -2.53125 3.359375 -2.75 C 3.148438 -2.96875 2.890625 -3.078125 2.578125 -3.078125 C 2.253906 -3.078125 1.988281 -2.96875 1.78125 -2.75 C 1.582031 -2.539062 1.484375 -2.265625 1.484375 -1.921875 C 1.484375 -1.585938 1.582031 -1.3125 1.78125 -1.09375 C 1.988281 -0.882812 2.253906 -0.78125 2.578125 -0.78125 Z M 2.578125 -0.78125 "/></g></g></g><g fill="#00c485" fill-opacity="1"><g transform="translate(54.574354, 8.477892)"><g><path d="M 0.5 0 L 0.5 -5.59375 L 1.5 -5.59375 L 1.5 0 Z M 0.5 0 "/></g></g></g><g fill="#00c485" fill-opacity="1"><g transform="translate(56.585052, 8.477892)"><g><path d="M 2.375 0.09375 C 1.988281 0.09375 1.644531 0.0078125 1.34375 -0.15625 C 1.039062 -0.320312 0.800781 -0.550781 0.625 -0.84375 C 0.457031 -1.144531 0.375 -1.492188 0.375 -1.890625 C 0.375 -2.296875 0.457031 -2.648438 0.625 -2.953125 C 0.800781 -3.265625 1.035156 -3.503906 1.328125 -3.671875 C 1.628906 -3.847656 1.984375 -3.9375 2.390625 -3.9375 C 2.765625 -3.9375 3.097656 -3.851562 3.390625 -3.6875 C 3.679688 -3.53125 3.90625 -3.304688 4.0625 -3.015625 C 4.226562 -2.722656 4.3125 -2.40625 4.3125 -2.0625 C 4.3125 -2 4.304688 -1.9375 4.296875 -1.875 C 4.296875 -1.8125 4.296875 -1.75 4.296875 -1.6875 L 1.359375 -1.6875 C 1.378906 -1.382812 1.484375 -1.144531 1.671875 -0.96875 C 1.867188 -0.800781 2.101562 -0.71875 2.375 -0.71875 C 2.570312 -0.71875 2.738281 -0.765625 2.875 -0.859375 C 3.007812 -0.953125 3.113281 -1.070312 3.1875 -1.21875 L 4.1875 -1.21875 C 4.113281 -0.96875 3.992188 -0.742188 3.828125 -0.546875 C 3.660156 -0.347656 3.453125 -0.191406 3.203125 -0.078125 C 2.960938 0.0351562 2.6875 0.09375 2.375 0.09375 Z M 2.390625 -3.140625 C 2.140625 -3.140625 1.921875 -3.066406 1.734375 -2.921875 C 1.546875 -2.785156 1.425781 -2.582031 1.375 -2.3125 L 3.296875 -2.3125 C 3.285156 -2.5625 3.191406 -2.757812 3.015625 -2.90625 C 2.847656 -3.0625 2.640625 -3.140625 2.390625 -3.140625 Z M 2.390625 -3.140625 "/></g></g></g><g fill="#00c485" fill-opacity="1"><g transform="translate(61.227524, 8.477892)"><g/></g></g><g fill="#00c485" fill-opacity="1"><g transform="translate(63.075195, 8.477892)"><g><path d="M 2.359375 0.09375 C 1.984375 0.09375 1.644531 0.0078125 1.34375 -0.15625 C 1.050781 -0.332031 0.816406 -0.570312 0.640625 -0.875 C 0.460938 -1.175781 0.375 -1.523438 0.375 -1.921875 C 0.375 -2.328125 0.460938 -2.679688 0.640625 -2.984375 C 0.816406 -3.285156 1.050781 -3.519531 1.34375 -3.6875 C 1.644531 -3.851562 1.984375 -3.9375 2.359375 -3.9375 C 2.722656 -3.9375 3.054688 -3.851562 3.359375 -3.6875 C 3.660156 -3.519531 3.894531 -3.285156 4.0625 -2.984375 C 4.238281 -2.679688 4.328125 -2.328125 4.328125 -1.921875 C 4.328125 -1.523438 4.238281 -1.175781 4.0625 -0.875 C 3.894531 -0.570312 3.660156 -0.332031 3.359375 -0.15625 C 3.054688 0.0078125 2.722656 0.09375 2.359375 0.09375 Z M 2.359375 -0.765625 C 2.609375 -0.765625 2.828125 -0.859375 3.015625 -1.046875 C 3.210938 -1.242188 3.3125 -1.535156 3.3125 -1.921875 C 3.3125 -2.304688 3.210938 -2.59375 3.015625 -2.78125 C 2.828125 -2.976562 2.609375 -3.078125 2.359375 -3.078125 C 2.097656 -3.078125 1.867188 -2.976562 1.671875 -2.78125 C 1.484375 -2.59375 1.390625 -2.304688 1.390625 -1.921875 C 1.390625 -1.535156 1.484375 -1.242188 1.671875 -1.046875 C 1.867188 -0.859375 2.097656 -0.765625 2.359375 -0.765625 Z M 2.359375 -0.765625 "/></g></g></g><g fill="#00c485" fill-opacity="1"><g transform="translate(67.779768, 8.477892)"><g><path d="M 0.5 0 L 0.5 -3.859375 L 1.375 -3.859375 L 1.453125 -3.203125 C 1.578125 -3.429688 1.75 -3.609375 1.96875 -3.734375 C 2.195312 -3.867188 2.460938 -3.9375 2.765625 -3.9375 C 3.242188 -3.9375 3.613281 -3.785156 3.875 -3.484375 C 4.144531 -3.191406 4.28125 -2.753906 4.28125 -2.171875 L 4.28125 0 L 3.28125 0 L 3.28125 -2.078125 C 3.28125 -2.410156 3.210938 -2.664062 3.078125 -2.84375 C 2.941406 -3.019531 2.734375 -3.109375 2.453125 -3.109375 C 2.171875 -3.109375 1.941406 -3.007812 1.765625 -2.8125 C 1.585938 -2.613281 1.5 -2.335938 1.5 -1.984375 L 1.5 0 Z M 0.5 0 "/></g></g></g><g fill="#00c485" fill-opacity="1"><g transform="translate(72.49987, 8.477892)"><g/></g></g><g fill="#00c485" fill-opacity="1"><g transform="translate(74.34754, 8.477892)"><g><path d="M 2.21875 0 C 1.8125 0 1.488281 -0.0976562 1.25 -0.296875 C 1.007812 -0.492188 0.890625 -0.84375 0.890625 -1.34375 L 0.890625 -3.015625 L 0.21875 -3.015625 L 0.21875 -3.859375 L 0.890625 -3.859375 L 1 -4.890625 L 1.875 -4.890625 L 1.875 -3.859375 L 2.921875 -3.859375 L 2.921875 -3.015625 L 1.875 -3.015625 L 1.875 -1.328125 C 1.875 -1.148438 1.914062 -1.023438 2 -0.953125 C 2.082031 -0.878906 2.222656 -0.84375 2.421875 -0.84375 L 2.890625 -0.84375 L 2.890625 0 Z M 2.21875 0 "/></g></g></g><g fill="#00c485" fill-opacity="1"><g transform="translate(77.615898, 8.477892)"><g><path d="M 0.5 0 L 0.5 -5.59375 L 1.5 -5.59375 L 1.5 -3.265625 C 1.625 -3.472656 1.796875 -3.632812 2.015625 -3.75 C 2.242188 -3.875 2.5 -3.9375 2.78125 -3.9375 C 3.257812 -3.9375 3.628906 -3.785156 3.890625 -3.484375 C 4.148438 -3.191406 4.28125 -2.753906 4.28125 -2.171875 L 4.28125 0 L 3.296875 0 L 3.296875 -2.078125 C 3.296875 -2.410156 3.226562 -2.664062 3.09375 -2.84375 C 2.957031 -3.019531 2.75 -3.109375 2.46875 -3.109375 C 2.1875 -3.109375 1.953125 -3.007812 1.765625 -2.8125 C 1.585938 -2.613281 1.5 -2.335938 1.5 -1.984375 L 1.5 0 Z M 0.5 0 "/></g></g></g><g fill="#00c485" fill-opacity="1"><g transform="translate(82.336, 8.477892)"><g><path d="M 2.375 0.09375 C 1.988281 0.09375 1.644531 0.0078125 1.34375 -0.15625 C 1.039062 -0.320312 0.800781 -0.550781 0.625 -0.84375 C 0.457031 -1.144531 0.375 -1.492188 0.375 -1.890625 C 0.375 -2.296875 0.457031 -2.648438 0.625 -2.953125 C 0.800781 -3.265625 1.035156 -3.503906 1.328125 -3.671875 C 1.628906 -3.847656 1.984375 -3.9375 2.390625 -3.9375 C 2.765625 -3.9375 3.097656 -3.851562 3.390625 -3.6875 C 3.679688 -3.53125 3.90625 -3.304688 4.0625 -3.015625 C 4.226562 -2.722656 4.3125 -2.40625 4.3125 -2.0625 C 4.3125 -2 4.304688 -1.9375 4.296875 -1.875 C 4.296875 -1.8125 4.296875 -1.75 4.296875 -1.6875 L 1.359375 -1.6875 C 1.378906 -1.382812 1.484375 -1.144531 1.671875 -0.96875 C 1.867188 -0.800781 2.101562 -0.71875 2.375 -0.71875 C 2.570312 -0.71875 2.738281 -0.765625 2.875 -0.859375 C 3.007812 -0.953125 3.113281 -1.070312 3.1875 -1.21875 L 4.1875 -1.21875 C 4.113281 -0.96875 3.992188 -0.742188 3.828125 -0.546875 C 3.660156 -0.347656 3.453125 -0.191406 3.203125 -0.078125 C 2.960938 0.0351562 2.6875 0.09375 2.375 0.09375 Z M 2.390625 -3.140625 C 2.140625 -3.140625 1.921875 -3.066406 1.734375 -2.921875 C 1.546875 -2.785156 1.425781 -2.582031 1.375 -2.3125 L 3.296875 -2.3125 C 3.285156 -2.5625 3.191406 -2.757812 3.015625 -2.90625 C 2.847656 -3.0625 2.640625 -3.140625 2.390625 -3.140625 Z M 2.390625 -3.140625 "/></g></g></g><g fill="#00c485" fill-opacity="1"><g transform="translate(86.971186, 8.477892)"><g/></g></g><g fill="#00c485" fill-opacity="1"><g transform="translate(23.922919, 21.403829)"><g><path d="M 4.3125 0.140625 C 3.550781 0.140625 2.882812 -0.03125 2.3125 -0.375 C 1.75 -0.71875 1.304688 -1.195312 0.984375 -1.8125 C 0.671875 -2.4375 0.515625 -3.160156 0.515625 -3.984375 C 0.515625 -4.816406 0.675781 -5.546875 1 -6.171875 C 1.332031 -6.804688 1.800781 -7.300781 2.40625 -7.65625 C 3.007812 -8.019531 3.722656 -8.203125 4.546875 -8.203125 C 5.492188 -8.203125 6.273438 -7.972656 6.890625 -7.515625 C 7.515625 -7.066406 7.921875 -6.441406 8.109375 -5.640625 L 6.453125 -5.640625 C 6.335938 -6.015625 6.117188 -6.304688 5.796875 -6.515625 C 5.472656 -6.734375 5.054688 -6.84375 4.546875 -6.84375 C 3.742188 -6.84375 3.125 -6.585938 2.6875 -6.078125 C 2.25 -5.566406 2.03125 -4.863281 2.03125 -3.96875 C 2.03125 -3.082031 2.242188 -2.394531 2.671875 -1.90625 C 3.109375 -1.414062 3.695312 -1.171875 4.4375 -1.171875 C 5.164062 -1.171875 5.71875 -1.367188 6.09375 -1.765625 C 6.46875 -2.160156 6.691406 -2.679688 6.765625 -3.328125 L 4.734375 -3.328125 L 4.734375 -4.4375 L 8.25 -4.4375 L 8.25 0 L 6.890625 0 L 6.78125 -1.0625 C 6.519531 -0.675781 6.191406 -0.378906 5.796875 -0.171875 C 5.410156 0.0351562 4.914062 0.140625 4.3125 0.140625 Z M 4.3125 0.140625 "/></g></g></g><g fill="#00c485" fill-opacity="1"><g transform="translate(32.818545, 21.403829)"><g><path d="M 3.484375 0.140625 C 2.929688 0.140625 2.429688 0.015625 1.984375 -0.234375 C 1.546875 -0.492188 1.195312 -0.847656 0.9375 -1.296875 C 0.6875 -1.742188 0.5625 -2.265625 0.5625 -2.859375 C 0.5625 -3.453125 0.691406 -3.972656 0.953125 -4.421875 C 1.210938 -4.867188 1.5625 -5.21875 2 -5.46875 C 2.445312 -5.71875 2.945312 -5.84375 3.5 -5.84375 C 4.039062 -5.84375 4.53125 -5.71875 4.96875 -5.46875 C 5.414062 -5.21875 5.769531 -4.867188 6.03125 -4.421875 C 6.289062 -3.972656 6.421875 -3.453125 6.421875 -2.859375 C 6.421875 -2.265625 6.289062 -1.742188 6.03125 -1.296875 C 5.769531 -0.847656 5.414062 -0.492188 4.96875 -0.234375 C 4.53125 0.015625 4.035156 0.140625 3.484375 0.140625 Z M 3.484375 -1.140625 C 3.867188 -1.140625 4.203125 -1.28125 4.484375 -1.5625 C 4.773438 -1.851562 4.921875 -2.285156 4.921875 -2.859375 C 4.921875 -3.421875 4.773438 -3.847656 4.484375 -4.140625 C 4.203125 -4.429688 3.875 -4.578125 3.5 -4.578125 C 3.101562 -4.578125 2.765625 -4.429688 2.484375 -4.140625 C 2.210938 -3.847656 2.078125 -3.421875 2.078125 -2.859375 C 2.078125 -2.285156 2.210938 -1.851562 2.484375 -1.5625 C 2.765625 -1.28125 3.097656 -1.140625 3.484375 -1.140625 Z M 3.484375 -1.140625 "/></g></g></g><g fill="#00c485" fill-opacity="1"><g transform="translate(39.792349, 21.403829)"><g><path d="M 3.484375 0.140625 C 2.929688 0.140625 2.429688 0.015625 1.984375 -0.234375 C 1.546875 -0.492188 1.195312 -0.847656 0.9375 -1.296875 C 0.6875 -1.742188 0.5625 -2.265625 0.5625 -2.859375 C 0.5625 -3.453125 0.691406 -3.972656 0.953125 -4.421875 C 1.210938 -4.867188 1.5625 -5.21875 2 -5.46875 C 2.445312 -5.71875 2.945312 -5.84375 3.5 -5.84375 C 4.039062 -5.84375 4.53125 -5.71875 4.96875 -5.46875 C 5.414062 -5.21875 5.769531 -4.867188 6.03125 -4.421875 C 6.289062 -3.972656 6.421875 -3.453125 6.421875 -2.859375 C 6.421875 -2.265625 6.289062 -1.742188 6.03125 -1.296875 C 5.769531 -0.847656 5.414062 -0.492188 4.96875 -0.234375 C 4.53125 0.015625 4.035156 0.140625 3.484375 0.140625 Z M 3.484375 -1.140625 C 3.867188 -1.140625 4.203125 -1.28125 4.484375 -1.5625 C 4.773438 -1.851562 4.921875 -2.285156 4.921875 -2.859375 C 4.921875 -3.421875 4.773438 -3.847656 4.484375 -4.140625 C 4.203125 -4.429688 3.875 -4.578125 3.5 -4.578125 C 3.101562 -4.578125 2.765625 -4.429688 2.484375 -4.140625 C 2.210938 -3.847656 2.078125 -3.421875 2.078125 -2.859375 C 2.078125 -2.285156 2.210938 -1.851562 2.484375 -1.5625 C 2.765625 -1.28125 3.097656 -1.140625 3.484375 -1.140625 Z M 3.484375 -1.140625 "/></g></g></g><g fill="#00c485" fill-opacity="1"><g transform="translate(46.766153, 21.403829)"><g><path d="M 3.171875 -1.703125 C 2.890625 -1.703125 2.628906 -1.734375 2.390625 -1.796875 L 1.96875 -1.375 C 2.101562 -1.300781 2.28125 -1.238281 2.5 -1.1875 C 2.71875 -1.144531 3.078125 -1.101562 3.578125 -1.0625 C 4.335938 -0.988281 4.890625 -0.804688 5.234375 -0.515625 C 5.578125 -0.222656 5.75 0.175781 5.75 0.6875 C 5.75 1.03125 5.65625 1.351562 5.46875 1.65625 C 5.289062 1.957031 5.007812 2.203125 4.625 2.390625 C 4.238281 2.578125 3.75 2.671875 3.15625 2.671875 C 2.34375 2.671875 1.6875 2.519531 1.1875 2.21875 C 0.6875 1.914062 0.4375 1.460938 0.4375 0.859375 C 0.4375 0.335938 0.6875 -0.109375 1.1875 -0.484375 C 1.03125 -0.554688 0.894531 -0.628906 0.78125 -0.703125 C 0.675781 -0.773438 0.582031 -0.851562 0.5 -0.9375 L 0.5 -1.203125 L 1.5 -2.265625 C 1.050781 -2.660156 0.828125 -3.164062 0.828125 -3.78125 C 0.828125 -4.164062 0.921875 -4.515625 1.109375 -4.828125 C 1.296875 -5.140625 1.5625 -5.382812 1.90625 -5.5625 C 2.257812 -5.75 2.679688 -5.84375 3.171875 -5.84375 C 3.492188 -5.84375 3.789062 -5.800781 4.0625 -5.71875 L 6.234375 -5.71875 L 6.234375 -4.8125 L 5.25 -4.75 C 5.40625 -4.457031 5.484375 -4.132812 5.484375 -3.78125 C 5.484375 -3.394531 5.390625 -3.039062 5.203125 -2.71875 C 5.015625 -2.40625 4.742188 -2.15625 4.390625 -1.96875 C 4.046875 -1.789062 3.640625 -1.703125 3.171875 -1.703125 Z M 3.171875 -2.828125 C 3.460938 -2.828125 3.707031 -2.90625 3.90625 -3.0625 C 4.101562 -3.226562 4.203125 -3.460938 4.203125 -3.765625 C 4.203125 -4.066406 4.101562 -4.296875 3.90625 -4.453125 C 3.707031 -4.617188 3.460938 -4.703125 3.171875 -4.703125 C 2.847656 -4.703125 2.59375 -4.617188 2.40625 -4.453125 C 2.21875 -4.296875 2.125 -4.066406 2.125 -3.765625 C 2.125 -3.460938 2.21875 -3.226562 2.40625 -3.0625 C 2.59375 -2.90625 2.847656 -2.828125 3.171875 -2.828125 Z M 1.78125 0.703125 C 1.78125 0.984375 1.910156 1.191406 2.171875 1.328125 C 2.441406 1.472656 2.769531 1.546875 3.15625 1.546875 C 3.519531 1.546875 3.816406 1.472656 4.046875 1.328125 C 4.285156 1.179688 4.40625 0.976562 4.40625 0.71875 C 4.40625 0.519531 4.328125 0.347656 4.171875 0.203125 C 4.023438 0.0664062 3.726562 -0.015625 3.28125 -0.046875 C 2.96875 -0.0664062 2.675781 -0.101562 2.40625 -0.15625 C 2.1875 -0.03125 2.023438 0.101562 1.921875 0.25 C 1.828125 0.394531 1.78125 0.546875 1.78125 0.703125 Z M 1.78125 0.703125 "/></g></g></g><g fill="#00c485" fill-opacity="1"><g transform="translate(53.314162, 21.403829)"><g><path d="M 0.75 0 L 0.75 -8.296875 L 2.21875 -8.296875 L 2.21875 0 Z M 0.75 0 "/></g></g></g><g fill="#00c485" fill-opacity="1"><g transform="translate(56.294716, 21.403829)"><g><path d="M 3.53125 0.140625 C 2.945312 0.140625 2.429688 0.0195312 1.984375 -0.21875 C 1.546875 -0.46875 1.195312 -0.816406 0.9375 -1.265625 C 0.6875 -1.710938 0.5625 -2.226562 0.5625 -2.8125 C 0.5625 -3.40625 0.6875 -3.929688 0.9375 -4.390625 C 1.1875 -4.847656 1.53125 -5.203125 1.96875 -5.453125 C 2.414062 -5.710938 2.9375 -5.84375 3.53125 -5.84375 C 4.09375 -5.84375 4.585938 -5.71875 5.015625 -5.46875 C 5.453125 -5.226562 5.789062 -4.894531 6.03125 -4.46875 C 6.269531 -4.039062 6.390625 -3.566406 6.390625 -3.046875 C 6.390625 -2.960938 6.382812 -2.875 6.375 -2.78125 C 6.375 -2.695312 6.375 -2.601562 6.375 -2.5 L 2.03125 -2.5 C 2.0625 -2.050781 2.210938 -1.703125 2.484375 -1.453125 C 2.765625 -1.203125 3.109375 -1.078125 3.515625 -1.078125 C 3.816406 -1.078125 4.066406 -1.140625 4.265625 -1.265625 C 4.472656 -1.398438 4.625 -1.578125 4.71875 -1.796875 L 6.21875 -1.796875 C 6.113281 -1.429688 5.9375 -1.101562 5.6875 -0.8125 C 5.4375 -0.519531 5.128906 -0.285156 4.765625 -0.109375 C 4.398438 0.0546875 3.988281 0.140625 3.53125 0.140625 Z M 3.53125 -4.65625 C 3.175781 -4.65625 2.859375 -4.550781 2.578125 -4.34375 C 2.304688 -4.144531 2.128906 -3.835938 2.046875 -3.421875 L 4.890625 -3.421875 C 4.867188 -3.796875 4.726562 -4.09375 4.46875 -4.3125 C 4.21875 -4.539062 3.90625 -4.65625 3.53125 -4.65625 Z M 3.53125 -4.65625 "/></g></g></g><g fill="#00c485" fill-opacity="1"><g transform="translate(63.176461, 21.403829)"><g/></g></g><g fill="#00c485" fill-opacity="1"><g transform="translate(65.91535, 21.403829)"><g><path d="M 0.78125 0 L 0.78125 -8.0625 L 3.765625 -8.0625 C 4.410156 -8.0625 4.941406 -7.953125 5.359375 -7.734375 C 5.785156 -7.523438 6.101562 -7.226562 6.3125 -6.84375 C 6.519531 -6.46875 6.625 -6.046875 6.625 -5.578125 C 6.625 -5.140625 6.519531 -4.734375 6.3125 -4.359375 C 6.113281 -3.984375 5.800781 -3.679688 5.375 -3.453125 C 4.957031 -3.234375 4.421875 -3.125 3.765625 -3.125 L 2.25 -3.125 L 2.25 0 Z M 2.25 -4.3125 L 3.671875 -4.3125 C 4.179688 -4.3125 4.550781 -4.425781 4.78125 -4.65625 C 5.007812 -4.882812 5.125 -5.191406 5.125 -5.578125 C 5.125 -5.984375 5.007812 -6.296875 4.78125 -6.515625 C 4.550781 -6.742188 4.179688 -6.859375 3.671875 -6.859375 L 2.25 -6.859375 Z M 2.25 -4.3125 "/></g></g></g><g fill="#00c485" fill-opacity="1"><g transform="translate(72.900666, 21.403829)"><g><path d="M 0.75 0 L 0.75 -8.296875 L 2.21875 -8.296875 L 2.21875 0 Z M 0.75 0 "/></g></g></g><g fill="#00c485" fill-opacity="1"><g transform="translate(75.88122, 21.403829)"><g><path d="M 2.71875 0.140625 C 2.226562 0.140625 1.820312 0.0625 1.5 -0.09375 C 1.1875 -0.25 0.953125 -0.457031 0.796875 -0.71875 C 0.648438 -0.976562 0.578125 -1.269531 0.578125 -1.59375 C 0.578125 -2.125 0.78125 -2.550781 1.1875 -2.875 C 1.601562 -3.207031 2.226562 -3.375 3.0625 -3.375 L 4.515625 -3.375 L 4.515625 -3.515625 C 4.515625 -3.898438 4.398438 -4.1875 4.171875 -4.375 C 3.953125 -4.5625 3.675781 -4.65625 3.34375 -4.65625 C 3.050781 -4.65625 2.789062 -4.582031 2.5625 -4.4375 C 2.34375 -4.289062 2.207031 -4.082031 2.15625 -3.8125 L 0.71875 -3.8125 C 0.75 -4.226562 0.882812 -4.585938 1.125 -4.890625 C 1.375 -5.203125 1.691406 -5.4375 2.078125 -5.59375 C 2.460938 -5.757812 2.890625 -5.84375 3.359375 -5.84375 C 4.171875 -5.84375 4.8125 -5.640625 5.28125 -5.234375 C 5.75 -4.828125 5.984375 -4.253906 5.984375 -3.515625 L 5.984375 0 L 4.734375 0 L 4.59375 -0.921875 C 4.425781 -0.609375 4.191406 -0.351562 3.890625 -0.15625 C 3.585938 0.0390625 3.195312 0.140625 2.71875 0.140625 Z M 3.046875 -1.015625 C 3.472656 -1.015625 3.800781 -1.148438 4.03125 -1.421875 C 4.269531 -1.703125 4.421875 -2.046875 4.484375 -2.453125 L 3.21875 -2.453125 C 2.832031 -2.453125 2.550781 -2.378906 2.375 -2.234375 C 2.207031 -2.097656 2.125 -1.925781 2.125 -1.71875 C 2.125 -1.488281 2.207031 -1.3125 2.375 -1.1875 C 2.550781 -1.070312 2.773438 -1.015625 3.046875 -1.015625 Z M 3.046875 -1.015625 "/></g></g></g><g clip-path="url(#f6eade11c4)"><g fill="#00c485" fill-opacity="1"><g transform="translate(82.5213, 21.403829)"><g><path d="M 1.46875 2.53125 L 2.78125 -0.375 L 2.4375 -0.375 L 0.21875 -5.71875 L 1.8125 -5.71875 L 3.421875 -1.6875 L 5.09375 -5.71875 L 6.65625 -5.71875 L 3.03125 2.53125 Z M 1.46875 2.53125 "/></g></g></g></g><g clip-path="url(#b7ece8e276)"><path fill="#00c485" d="M 5.777344 5.777344 L 15.441406 11.289062 L 12.65625 14.03125 L 4.070312 5.585938 C 4.269531 5.523438 4.476562 5.492188 4.683594 5.492188 C 5.074219 5.492188 5.441406 5.585938 5.777344 5.777344 Z M 2.496094 21.441406 L 2.496094 7.652344 C 2.503906 6.972656 2.777344 6.421875 3.3125 5.996094 L 12.066406 14.617188 L 3.386719 23.15625 C 2.800781 22.730469 2.503906 22.15625 2.496094 21.441406 Z M 5.777344 23.3125 C 5.277344 23.589844 4.742188 23.664062 4.183594 23.535156 L 12.65625 15.199219 L 15.355469 17.855469 Z M 17.871094 16.417969 L 16.101562 17.425781 L 13.246094 14.613281 L 16.191406 11.714844 L 17.871094 12.675781 C 18.039062 12.769531 18.191406 12.882812 18.324219 13.019531 C 18.460938 13.152344 18.578125 13.300781 18.671875 13.464844 C 18.769531 13.628906 18.839844 13.804688 18.890625 13.988281 C 18.941406 14.167969 18.964844 14.355469 18.964844 14.546875 C 18.964844 14.734375 18.941406 14.921875 18.890625 15.105469 C 18.839844 15.289062 18.769531 15.460938 18.671875 15.625 C 18.578125 15.789062 18.460938 15.941406 18.324219 16.074219 C 18.191406 16.207031 18.039062 16.324219 17.871094 16.417969 Z M 17.871094 16.417969 " fill-opacity="1" fill-rule="nonzero"/></g></svg>