<svg xmlns="http://www.w3.org/2000/svg" xmlns:xlink="http://www.w3.org/1999/xlink" width="304" zoomAndPan="magnify" viewBox="0 0 228 60" height="80" preserveAspectRatio="xMidYMid meet" version="1.0"><defs><g/></defs><g fill="#00c485" fill-opacity="1"><g transform="translate(0.453253, 40.875)"><g><path d="M 0.765625 0 L 9.203125 -23.09375 L 13.953125 -23.09375 L 22.40625 0 L 17.921875 0 L 16.078125 -5.34375 L 7.0625 -5.34375 L 5.1875 0 Z M 8.21875 -8.640625 L 14.921875 -8.640625 L 11.546875 -18.25 Z M 8.21875 -8.640625 "/></g></g></g><g fill="#00c485" fill-opacity="1"><g transform="translate(23.578054, 40.875)"><g><path d="M 8.90625 0.390625 C 7.457031 0.390625 6.179688 0.15625 5.078125 -0.3125 C 3.984375 -0.78125 3.101562 -1.429688 2.4375 -2.265625 C 1.78125 -3.109375 1.382812 -4.082031 1.25 -5.1875 L 5.515625 -5.1875 C 5.640625 -4.539062 5.992188 -3.992188 6.578125 -3.546875 C 7.160156 -3.097656 7.914062 -2.875 8.84375 -2.875 C 9.769531 -2.875 10.445312 -3.0625 10.875 -3.4375 C 11.300781 -3.8125 11.515625 -4.238281 11.515625 -4.71875 C 11.515625 -5.425781 11.207031 -5.90625 10.59375 -6.15625 C 9.976562 -6.40625 9.117188 -6.648438 8.015625 -6.890625 C 7.316406 -7.046875 6.601562 -7.234375 5.875 -7.453125 C 5.144531 -7.671875 4.476562 -7.953125 3.875 -8.296875 C 3.269531 -8.640625 2.78125 -9.078125 2.40625 -9.609375 C 2.03125 -10.148438 1.84375 -10.816406 1.84375 -11.609375 C 1.84375 -13.066406 2.421875 -14.289062 3.578125 -15.28125 C 4.734375 -16.269531 6.359375 -16.765625 8.453125 -16.765625 C 10.390625 -16.765625 11.929688 -16.3125 13.078125 -15.40625 C 14.234375 -14.507812 14.921875 -13.269531 15.140625 -11.6875 L 11.15625 -11.6875 C 10.914062 -12.894531 10.003906 -13.5 8.421875 -13.5 C 7.628906 -13.5 7.015625 -13.34375 6.578125 -13.03125 C 6.148438 -12.726562 5.9375 -12.34375 5.9375 -11.875 C 5.9375 -11.394531 6.253906 -11.007812 6.890625 -10.71875 C 7.535156 -10.4375 8.382812 -10.175781 9.4375 -9.9375 C 10.582031 -9.664062 11.632812 -9.367188 12.59375 -9.046875 C 13.550781 -8.734375 14.3125 -8.265625 14.875 -7.640625 C 15.445312 -7.015625 15.734375 -6.117188 15.734375 -4.953125 C 15.765625 -3.941406 15.503906 -3.023438 14.953125 -2.203125 C 14.398438 -1.390625 13.601562 -0.753906 12.5625 -0.296875 C 11.53125 0.160156 10.3125 0.390625 8.90625 0.390625 Z M 8.90625 0.390625 "/></g></g></g><g fill="#00c485" fill-opacity="1"><g transform="translate(40.896912, 40.875)"><g><path d="M 9.4375 0 C 7.71875 0 6.34375 -0.414062 5.3125 -1.25 C 4.28125 -2.09375 3.765625 -3.578125 3.765625 -5.703125 L 3.765625 -12.84375 L 0.953125 -12.84375 L 0.953125 -16.375 L 3.765625 -16.375 L 4.25 -20.75 L 7.984375 -20.75 L 7.984375 -16.375 L 12.40625 -16.375 L 12.40625 -12.84375 L 7.984375 -12.84375 L 7.984375 -5.671875 C 7.984375 -4.878906 8.15625 -4.332031 8.5 -4.03125 C 8.84375 -3.738281 9.429688 -3.59375 10.265625 -3.59375 L 12.3125 -3.59375 L 12.3125 0 Z M 9.4375 0 "/></g></g></g><g fill="#00c485" fill-opacity="1"><g transform="translate(54.784992, 40.875)"><g><path d="M 2.140625 0 L 2.140625 -16.375 L 5.90625 -16.375 L 6.296875 -13.296875 C 6.890625 -14.359375 7.695312 -15.203125 8.71875 -15.828125 C 9.75 -16.453125 10.957031 -16.765625 12.34375 -16.765625 L 12.34375 -12.3125 L 11.15625 -12.3125 C 10.226562 -12.3125 9.398438 -12.164062 8.671875 -11.875 C 7.953125 -11.59375 7.390625 -11.097656 6.984375 -10.390625 C 6.578125 -9.691406 6.375 -8.710938 6.375 -7.453125 L 6.375 0 Z M 2.140625 0 "/></g></g></g><g fill="#00c485" fill-opacity="1"><g transform="translate(67.848365, 40.875)"><g><path d="M 10 0.390625 C 8.414062 0.390625 6.988281 0.03125 5.71875 -0.6875 C 4.457031 -1.414062 3.457031 -2.421875 2.71875 -3.703125 C 1.976562 -4.992188 1.609375 -6.488281 1.609375 -8.1875 C 1.609375 -9.875 1.984375 -11.363281 2.734375 -12.65625 C 3.484375 -13.945312 4.488281 -14.953125 5.75 -15.671875 C 7.019531 -16.398438 8.445312 -16.765625 10.03125 -16.765625 C 11.59375 -16.765625 13.003906 -16.398438 14.265625 -15.671875 C 15.535156 -14.953125 16.535156 -13.945312 17.265625 -12.65625 C 18.003906 -11.363281 18.375 -9.875 18.375 -8.1875 C 18.375 -6.488281 18.003906 -4.992188 17.265625 -3.703125 C 16.535156 -2.421875 15.53125 -1.414062 14.25 -0.6875 C 12.976562 0.03125 11.5625 0.390625 10 0.390625 Z M 10 -3.265625 C 11.101562 -3.265625 12.0625 -3.675781 12.875 -4.5 C 13.6875 -5.320312 14.09375 -6.550781 14.09375 -8.1875 C 14.09375 -9.8125 13.6875 -11.035156 12.875 -11.859375 C 12.0625 -12.679688 11.113281 -13.09375 10.03125 -13.09375 C 8.90625 -13.09375 7.941406 -12.679688 7.140625 -11.859375 C 6.335938 -11.035156 5.9375 -9.8125 5.9375 -8.1875 C 5.9375 -6.550781 6.335938 -5.320312 7.140625 -4.5 C 7.941406 -3.675781 8.894531 -3.265625 10 -3.265625 Z M 10 -3.265625 "/></g></g></g><g fill="#00c485" fill-opacity="1"><g transform="translate(87.839281, 40.875)"><g/></g></g><g fill="#00c485" fill-opacity="1"><g transform="translate(95.6905, 40.875)"><g><path d="M 8.28125 0.390625 C 6.039062 0.390625 4.242188 -0.238281 2.890625 -1.5 C 1.535156 -2.769531 0.859375 -4.566406 0.859375 -6.890625 L 5.078125 -6.890625 C 5.097656 -5.816406 5.347656 -4.957031 5.828125 -4.3125 C 6.316406 -3.675781 7.101562 -3.359375 8.1875 -3.359375 C 9.195312 -3.359375 9.929688 -3.660156 10.390625 -4.265625 C 10.859375 -4.878906 11.09375 -5.679688 11.09375 -6.671875 L 11.09375 -23.09375 L 15.3125 -23.09375 L 15.3125 -6.671875 C 15.3125 -4.398438 14.675781 -2.65625 13.40625 -1.4375 C 12.144531 -0.21875 10.4375 0.390625 8.28125 0.390625 Z M 8.28125 0.390625 "/></g></g></g><g fill="#00c485" fill-opacity="1"><g transform="translate(113.240277, 40.875)"><g><path d="M 10 0.390625 C 8.414062 0.390625 6.988281 0.03125 5.71875 -0.6875 C 4.457031 -1.414062 3.457031 -2.421875 2.71875 -3.703125 C 1.976562 -4.992188 1.609375 -6.488281 1.609375 -8.1875 C 1.609375 -9.875 1.984375 -11.363281 2.734375 -12.65625 C 3.484375 -13.945312 4.488281 -14.953125 5.75 -15.671875 C 7.019531 -16.398438 8.445312 -16.765625 10.03125 -16.765625 C 11.59375 -16.765625 13.003906 -16.398438 14.265625 -15.671875 C 15.535156 -14.953125 16.535156 -13.945312 17.265625 -12.65625 C 18.003906 -11.363281 18.375 -9.875 18.375 -8.1875 C 18.375 -6.488281 18.003906 -4.992188 17.265625 -3.703125 C 16.535156 -2.421875 15.53125 -1.414062 14.25 -0.6875 C 12.976562 0.03125 11.5625 0.390625 10 0.390625 Z M 10 -3.265625 C 11.101562 -3.265625 12.0625 -3.675781 12.875 -4.5 C 13.6875 -5.320312 14.09375 -6.550781 14.09375 -8.1875 C 14.09375 -9.8125 13.6875 -11.035156 12.875 -11.859375 C 12.0625 -12.679688 11.113281 -13.09375 10.03125 -13.09375 C 8.90625 -13.09375 7.941406 -12.679688 7.140625 -11.859375 C 6.335938 -11.035156 5.9375 -9.8125 5.9375 -8.1875 C 5.9375 -6.550781 6.335938 -5.320312 7.140625 -4.5 C 7.941406 -3.675781 8.894531 -3.265625 10 -3.265625 Z M 10 -3.265625 "/></g></g></g><g fill="#00c485" fill-opacity="1"><g transform="translate(133.231193, 40.875)"><g><path d="M 8.28125 0.390625 C 6.238281 0.390625 4.660156 -0.242188 3.546875 -1.515625 C 2.429688 -2.796875 1.875 -4.664062 1.875 -7.125 L 1.875 -16.375 L 6.078125 -16.375 L 6.078125 -7.53125 C 6.078125 -6.113281 6.359375 -5.03125 6.921875 -4.28125 C 7.492188 -3.539062 8.398438 -3.171875 9.640625 -3.171875 C 10.804688 -3.171875 11.765625 -3.585938 12.515625 -4.421875 C 13.273438 -5.253906 13.65625 -6.421875 13.65625 -7.921875 L 13.65625 -16.375 L 17.890625 -16.375 L 17.890625 0 L 14.15625 0 L 13.828125 -2.765625 C 13.316406 -1.796875 12.582031 -1.023438 11.625 -0.453125 C 10.675781 0.109375 9.5625 0.390625 8.28125 0.390625 Z M 8.28125 0.390625 "/></g></g></g><g fill="#00c485" fill-opacity="1"><g transform="translate(153.288085, 40.875)"><g><path d="M 2.140625 0 L 2.140625 -16.375 L 5.90625 -16.375 L 6.296875 -13.296875 C 6.890625 -14.359375 7.695312 -15.203125 8.71875 -15.828125 C 9.75 -16.453125 10.957031 -16.765625 12.34375 -16.765625 L 12.34375 -12.3125 L 11.15625 -12.3125 C 10.226562 -12.3125 9.398438 -12.164062 8.671875 -11.875 C 7.953125 -11.59375 7.390625 -11.097656 6.984375 -10.390625 C 6.578125 -9.691406 6.375 -8.710938 6.375 -7.453125 L 6.375 0 Z M 2.140625 0 "/></g></g></g><g fill="#00c485" fill-opacity="1"><g transform="translate(166.351457, 40.875)"><g><path d="M 2.140625 0 L 2.140625 -16.375 L 5.875 -16.375 L 6.203125 -13.59375 C 6.710938 -14.5625 7.441406 -15.332031 8.390625 -15.90625 C 9.347656 -16.476562 10.476562 -16.765625 11.78125 -16.765625 C 13.800781 -16.765625 15.375 -16.125 16.5 -14.84375 C 17.625 -13.570312 18.1875 -11.703125 18.1875 -9.234375 L 18.1875 0 L 13.953125 0 L 13.953125 -8.84375 C 13.953125 -10.25 13.664062 -11.328125 13.09375 -12.078125 C 12.53125 -12.828125 11.640625 -13.203125 10.421875 -13.203125 C 9.234375 -13.203125 8.257812 -12.78125 7.5 -11.9375 C 6.75 -11.101562 6.375 -9.941406 6.375 -8.453125 L 6.375 0 Z M 2.140625 0 "/></g></g></g><g fill="#00c485" fill-opacity="1"><g transform="translate(186.408349, 40.875)"><g><path d="M 10.09375 0.390625 C 8.445312 0.390625 6.984375 0.0390625 5.703125 -0.65625 C 4.429688 -1.363281 3.429688 -2.351562 2.703125 -3.625 C 1.972656 -4.90625 1.609375 -6.378906 1.609375 -8.046875 C 1.609375 -9.742188 1.96875 -11.25 2.6875 -12.5625 C 3.40625 -13.882812 4.394531 -14.914062 5.65625 -15.65625 C 6.925781 -16.394531 8.414062 -16.765625 10.125 -16.765625 C 11.738281 -16.765625 13.160156 -16.410156 14.390625 -15.703125 C 15.617188 -15.003906 16.578125 -14.039062 17.265625 -12.8125 C 17.960938 -11.59375 18.3125 -10.238281 18.3125 -8.75 C 18.3125 -8.5 18.304688 -8.242188 18.296875 -7.984375 C 18.285156 -7.722656 18.269531 -7.445312 18.25 -7.15625 L 5.8125 -7.15625 C 5.894531 -5.882812 6.335938 -4.882812 7.140625 -4.15625 C 7.941406 -3.425781 8.914062 -3.0625 10.0625 -3.0625 C 10.925781 -3.0625 11.644531 -3.253906 12.21875 -3.640625 C 12.800781 -4.023438 13.238281 -4.523438 13.53125 -5.140625 L 17.8125 -5.140625 C 17.507812 -4.109375 17 -3.171875 16.28125 -2.328125 C 15.570312 -1.484375 14.691406 -0.816406 13.640625 -0.328125 C 12.597656 0.148438 11.414062 0.390625 10.09375 0.390625 Z M 10.125 -13.328125 C 9.09375 -13.328125 8.179688 -13.035156 7.390625 -12.453125 C 6.597656 -11.867188 6.09375 -10.984375 5.875 -9.796875 L 14.03125 -9.796875 C 13.957031 -10.878906 13.554688 -11.738281 12.828125 -12.375 C 12.109375 -13.007812 11.207031 -13.328125 10.125 -13.328125 Z M 10.125 -13.328125 "/></g></g></g><g fill="#00c485" fill-opacity="1"><g transform="translate(206.135341, 40.875)"><g><path d="M 4.1875 7.265625 L 7.984375 -1.09375 L 7 -1.09375 L 0.625 -16.375 L 5.21875 -16.375 L 9.796875 -4.84375 L 14.59375 -16.375 L 19.078125 -16.375 L 8.671875 7.265625 Z M 4.1875 7.265625 "/></g></g></g></svg>