<svg xmlns="http://www.w3.org/2000/svg" xmlns:xlink="http://www.w3.org/1999/xlink" width="57" zoomAndPan="magnify" viewBox="0 0 42.75 42.749999" height="57" preserveAspectRatio="xMidYMid meet" version="1.0"><defs><clipPath id="d65ecd07aa"><path d="M 4.273438 4.273438 L 38.773438 4.273438 L 38.773438 38.773438 L 4.273438 38.773438 Z M 4.273438 4.273438 " clip-rule="nonzero"/></clipPath><clipPath id="959eefae11"><path d="M 10 11.683594 L 33 11.683594 L 33 31.183594 L 10 31.183594 Z M 10 11.683594 " clip-rule="nonzero"/></clipPath></defs><g clip-path="url(#d65ecd07aa)"><path fill="#edf9f6" d="M 38.773438 21.523438 C 38.773438 22.089844 38.746094 22.652344 38.691406 23.214844 C 38.636719 23.777344 38.554688 24.335938 38.441406 24.890625 C 38.332031 25.445312 38.195312 25.992188 38.03125 26.53125 C 37.867188 27.074219 37.675781 27.605469 37.460938 28.125 C 37.246094 28.648438 37.003906 29.15625 36.738281 29.65625 C 36.472656 30.15625 36.179688 30.636719 35.867188 31.109375 C 35.554688 31.578125 35.21875 32.03125 34.859375 32.46875 C 34.5 32.90625 34.121094 33.324219 33.722656 33.722656 C 33.324219 34.121094 32.90625 34.5 32.46875 34.859375 C 32.03125 35.21875 31.578125 35.554688 31.109375 35.867188 C 30.636719 36.179688 30.15625 36.472656 29.65625 36.738281 C 29.15625 37.003906 28.648438 37.246094 28.125 37.460938 C 27.605469 37.675781 27.074219 37.867188 26.53125 38.03125 C 25.992188 38.195312 25.445312 38.332031 24.890625 38.441406 C 24.335938 38.554688 23.777344 38.636719 23.214844 38.691406 C 22.652344 38.746094 22.089844 38.773438 21.523438 38.773438 C 20.960938 38.773438 20.394531 38.746094 19.832031 38.691406 C 19.273438 38.636719 18.714844 38.554688 18.160156 38.441406 C 17.605469 38.332031 17.058594 38.195312 16.515625 38.03125 C 15.976562 37.867188 15.445312 37.675781 14.921875 37.460938 C 14.402344 37.246094 13.890625 37.003906 13.394531 36.738281 C 12.894531 36.472656 12.410156 36.179688 11.941406 35.867188 C 11.472656 35.554688 11.019531 35.21875 10.582031 34.859375 C 10.144531 34.5 9.726562 34.121094 9.328125 33.722656 C 8.929688 33.324219 8.550781 32.90625 8.191406 32.46875 C 7.832031 32.03125 7.496094 31.578125 7.183594 31.109375 C 6.867188 30.636719 6.578125 30.15625 6.3125 29.65625 C 6.046875 29.15625 5.804688 28.648438 5.589844 28.125 C 5.371094 27.605469 5.183594 27.074219 5.019531 26.53125 C 4.855469 25.992188 4.714844 25.445312 4.605469 24.890625 C 4.496094 24.335938 4.414062 23.777344 4.359375 23.214844 C 4.300781 22.652344 4.273438 22.089844 4.273438 21.523438 C 4.273438 20.960938 4.300781 20.394531 4.359375 19.832031 C 4.414062 19.273438 4.496094 18.714844 4.605469 18.160156 C 4.714844 17.605469 4.855469 17.058594 5.019531 16.515625 C 5.183594 15.976562 5.371094 15.445312 5.589844 14.921875 C 5.804688 14.402344 6.046875 13.890625 6.3125 13.394531 C 6.578125 12.894531 6.867188 12.410156 7.183594 11.941406 C 7.496094 11.472656 7.832031 11.019531 8.191406 10.582031 C 8.550781 10.144531 8.929688 9.726562 9.328125 9.328125 C 9.726562 8.929688 10.144531 8.550781 10.582031 8.191406 C 11.019531 7.832031 11.472656 7.496094 11.941406 7.183594 C 12.410156 6.867188 12.894531 6.578125 13.394531 6.3125 C 13.890625 6.046875 14.402344 5.804688 14.921875 5.589844 C 15.445312 5.371094 15.976562 5.183594 16.515625 5.019531 C 17.058594 4.855469 17.605469 4.714844 18.160156 4.605469 C 18.714844 4.496094 19.273438 4.414062 19.832031 4.359375 C 20.394531 4.300781 20.960938 4.273438 21.523438 4.273438 C 22.089844 4.273438 22.652344 4.300781 23.214844 4.359375 C 23.777344 4.414062 24.335938 4.496094 24.890625 4.605469 C 25.445312 4.714844 25.992188 4.855469 26.53125 5.019531 C 27.074219 5.183594 27.605469 5.371094 28.125 5.589844 C 28.648438 5.804688 29.15625 6.046875 29.65625 6.3125 C 30.15625 6.578125 30.636719 6.867188 31.109375 7.183594 C 31.578125 7.496094 32.03125 7.832031 32.46875 8.191406 C 32.90625 8.550781 33.324219 8.929688 33.722656 9.328125 C 34.121094 9.726562 34.5 10.144531 34.859375 10.582031 C 35.21875 11.019531 35.554688 11.472656 35.867188 11.941406 C 36.179688 12.410156 36.472656 12.894531 36.738281 13.394531 C 37.003906 13.890625 37.246094 14.402344 37.460938 14.921875 C 37.675781 15.445312 37.867188 15.976562 38.03125 16.515625 C 38.195312 17.058594 38.332031 17.605469 38.441406 18.160156 C 38.554688 18.714844 38.636719 19.273438 38.691406 19.832031 C 38.746094 20.394531 38.773438 20.960938 38.773438 21.523438 Z M 38.773438 21.523438 " fill-opacity="1" fill-rule="nonzero"/></g><g clip-path="url(#959eefae11)"><path fill="#00c485" d="M 30.652344 13.464844 C 29.511719 12.316406 27.988281 11.683594 26.371094 11.683594 C 24.757812 11.683594 23.234375 12.316406 22.09375 13.464844 L 21.398438 14.164062 L 20.703125 13.464844 C 19.5625 12.316406 18.039062 11.683594 16.421875 11.683594 C 14.804688 11.683594 13.285156 12.316406 12.144531 13.464844 C 9.78125 15.835938 9.78125 19.695312 12.144531 22.066406 L 21.097656 31.0625 C 21.179688 31.144531 21.289062 31.1875 21.398438 31.1875 C 21.507812 31.1875 21.617188 31.144531 21.699219 31.0625 L 30.652344 22.066406 C 33.011719 19.695312 33.011719 15.835938 30.652344 13.464844 Z M 30.652344 13.464844 " fill-opacity="1" fill-rule="nonzero"/></g></svg>